<?xml version="1.0" encoding="utf-8"?>
<!-- Svg Vector Icons : http://www.onlinewebfonts.com/icon -->
<!DOCTYPE svg PUBLIC "-//W3C//DTD SVG 1.1//EN" "http://www.w3.org/Graphics/SVG/1.1/DTD/svg11.dtd">
<svg version="1.1" xmlns="http://www.w3.org/2000/svg" xmlns:xlink="http://www.w3.org/1999/xlink" x="0px" y="0px" viewBox="0 0 256 256" enable-background="new 0 0 256 256" xml:space="preserve">
<metadata> Svg Vector Icons : http://www.onlinewebfonts.com/icon </metadata>
<g><g><path fill="#000000" d="M228.5,111.4c-2.6-4.2-6.8-6.5-11.7-6.5c-4.5,0-8.5,1.9-10.4,2.8l-14.7,7c-4.5-2-9.3-3.5-11.1-4c-0.7-0.2-6.1-1.8-7.4-2.3c-5.6-2.1-10.9-4.2-13.9-8.2c-2.2-3-3.4-8.5,7.3-24.2c3.1-4.6,2.9-9.6,2.7-13.6l-0.1-1.9c-0.1-2.1-1.1-3.8-1.5-4.4c-0.1-0.2-0.2-0.3-0.4-0.5l0-2.6c0-3.8-0.1-7.7-0.6-11.8c-2.1-16.3-12-27-28-30.2c-7.4-1.5-14.7-1.3-21.7,0.5c-14.2,3.6-23,13-25.6,27.1c-0.4,2.2-0.6,4.5-0.7,6.7c-0.1,1.5-0.2,3-0.4,4.5s-0.2,3-0.1,4.5c0.1,1.8,0.1,2.5-0.4,3.3c-3.2,5.6-2.4,13.8,1.9,19.5c1.3,1.6,2.1,3.6,3.1,5.8l0.7,1.6c1,2.1,2.1,4.2,3.3,6.3c1.8,3,1.1,8.2-1.4,10.4c-4.5,4-10.2,6.8-18.5,8.9c-5.2,1.4-10,3.5-15.1,5.7c-7.7,3.4-12.8,9.4-15.4,18.2c-1.6,5.5-2.9,12.1-4,19.1c-15.9,7-22.6,20.3-18.9,38c1,4.7,16.5,47.8,39.9,53.9c2.4,0.6,4.9,0.9,7.5,0.9c18.1,0,33.8-16.1,38.5-21.5c5.9,0.5,11.8,0.9,17.8,0.9c14.4,0,28.5-1.3,41.9-3.8c15.8-3,29.4-7.7,41.5-14.4c5.1-2.8,5.7-7.2,5.3-10.3c-0.4-3.7-0.8-9.8-1.1-16.1c-0.4-7-0.8-14.2-1.4-18.4c-0.9-6.8-2.1-14.5-4.2-22.3c5.8-2.8,9.8-4.7,10.5-5.1c2.1-1.2,7.8-4.3,9.4-10.7C232.2,120.1,231.3,115.8,228.5,111.4z M69.2,126.7c4.4-1.9,8.5-3.7,12.7-4.8c10.1-2.6,17.6-6.3,23.5-11.6c6.9-6.1,8.6-17.6,3.8-25.7c-1-1.6-1.9-3.3-2.6-5.1l-0.7-1.5c-1.1-2.6-2.4-5.5-4.5-8.2c-1.6-2.1-1.7-5.1-1.1-6.2c2.3-3.9,2.1-7.5,2-9.9c0-0.7-0.1-1.4,0-2.1c0.3-1.8,0.4-3.6,0.5-5.4c0.1-1.8,0.2-3.6,0.6-5.4c1.7-9.5,7-15,16.7-17.5c5.3-1.3,10.8-1.5,16.4-0.3c10.9,2.2,16.9,8.7,18.3,19.9c0.4,3.3,0.5,6.7,0.5,10.3l0,3.5c0.1,2.9,1.2,4.8,2,5.8l0,0.6c0.1,2.6,0.2,5-0.6,6.2c-8.3,12.3-15.7,26.4-7,38.2c5.1,6.9,12.6,9.8,19.5,12.4c1,0.4,5.2,1.6,7.2,2.2l-38.1,18.2c-2.2-11-8.9-17.9-17.8-17.9c-5.2,0-13.4,2.5-22.3,14.3c-4.2,5.6-11.4,8.5-23.2,9.4c-5.9,0.4-11.7,1.4-17.5,2.9c0.7-4,1.5-7.9,2.5-11.2C61.6,132.1,64.2,128.9,69.2,126.7z M203.4,163.8c0.5,3.9,0.9,10.8,1.3,17.6c0.3,5.9,0.7,11.6,1.1,15.6c-10.7,5.8-22.8,9.9-36.9,12.6c-15.6,2.9-32.2,3.9-48.6,3.2c6.4-7.3,12.8-11.2,20.2-12.2c8.5-1.2,14.5-5.3,17-11.7c2.5-6.4,1.2-13.9-3.7-21.5c10.4-4.9,30.6-14.5,46.3-22C201.6,151.7,202.7,158.1,203.4,163.8z M215.4,124.5c-2.4,1.3-42.7,20.4-69.6,33.2c-0.7,0.4-1.3,0.6-1.8,0.8c-1.2,0.5-4.1,1.5-5,4.9c-0.9,3.4,1.1,6,2.6,7.8c4.1,5.1,5.8,10,4.6,13.1c-1.2,2.9-5.2,3.9-7.5,4.2c-17.7,2.5-28.5,16.2-35.2,26.4l-0.5,0.6c-0.1,0.2-14.9,18.3-30.2,18.3c-1.5,0-3-0.2-4.4-0.6c-15.1-3.9-29.7-38.2-31.1-44.7c-2.8-12.9,1.5-20.7,13.9-25.3c8.1-3,16.3-4.8,24.6-5.3c9.7-0.7,23.5-3,32-14.1c6.7-8.8,11.4-9.5,12.7-9.5c3.9,0,5.8,5.7,6.3,10.6c0.9,8.6,7.3,9,8.6,9c3,0,5.8-1.5,8.4-3l68-32.3c1-0.5,3.3-1.6,5.1-1.6c0.8,0,1,0.1,1.4,0.8c0.9,1.4,1.3,2.7,1.1,3.4C219,122.5,216.7,123.8,215.4,124.5z"/><path fill="#000000" d="M111,153.6c-3.2,0-6.4,0.8-9.2,2.3c-9.3,5.2-12.8,17-7.7,26.2c3.4,6.2,9.9,10,17.1,10c3.2,0,6.4-0.8,9.2-2.3c9.1-5,12.7-17,7.7-26.3C124.7,157.4,118.1,153.6,111,153.6z M116.7,183.2c-5.4,3-13,0.7-16-4.6c-3.1-5.7-1-12.8,4.7-16c1.7-0.9,3.6-1.4,5.6-1.4c4.3,0,8.4,2.3,10.4,5.9C124.4,172.8,122.3,180.2,116.7,183.2z"/></g></g>
</svg>