<svg width="27" height="31" viewBox="0 0 27 31" fill="none" xmlns="http://www.w3.org/2000/svg">
<path d="M12.4945 30.9084C12.196 30.9932 11.8832 31.0195 11.5742 30.9857C11.2653 30.952 10.9662 30.8589 10.6944 30.7118C10.4226 30.5647 10.1834 30.3666 9.99079 30.1289C9.79814 29.8911 9.65582 29.6186 9.57206 29.3269L8.95835 27.1824H5.62024C5.19381 27.1824 4.77156 27.1006 4.3776 26.9416C3.98363 26.7827 3.62566 26.5497 3.32413 26.256C3.02261 25.9623 2.78342 25.6136 2.62023 25.2299C2.45705 24.8461 2.37306 24.4348 2.37306 24.0195V20.8091L1.51255 20.5307C1.21997 20.4361 0.950957 20.2829 0.72284 20.0809C0.494722 19.879 0.312553 19.6327 0.188059 19.358C0.0635648 19.0833 -0.000494982 18.7862 2.87982e-06 18.4859C0.000500741 18.1856 0.0655454 17.8888 0.19095 17.6145L2.01587 13.6228C2.25175 13.1094 2.37347 12.5532 2.37306 11.9908C2.37536 9.48783 3.17979 7.04805 4.6741 5.01187C6.1684 2.9757 8.27803 1.44472 10.7086 0.632591C10.8298 1.44231 10.938 2.26889 11.0333 3.11235C9.2218 3.82694 7.66993 5.05101 6.57569 6.62838C5.48145 8.20575 4.89447 10.0649 4.88962 11.9686C4.89112 12.8721 4.69635 13.7657 4.31812 14.5907L2.6101 18.3198L3.65245 18.6614C4.00986 18.776 4.32098 18.9977 4.5414 19.2948C4.76182 19.5918 4.88028 19.9491 4.87988 20.3156V24.0384C4.87988 24.1331 4.89903 24.2269 4.93624 24.3144C4.97345 24.4019 5.02798 24.4814 5.09673 24.5484C5.16548 24.6153 5.24709 24.6684 5.33692 24.7047C5.42674 24.7409 5.52302 24.7596 5.62024 24.7596H10.8385L11.9458 28.5551L23.1258 25.4459L21.2749 19.12L21.7717 18.6171C22.7779 17.6001 23.5398 16.3783 24.0026 15.0398C24.4654 13.7013 24.6174 12.2794 24.4478 10.8767C24.2782 9.47403 23.7912 8.12548 23.0218 6.92831C22.2525 5.73113 21.22 4.71518 19.9988 3.95369C19.9208 2.96685 19.8234 1.99688 19.7065 1.04377C21.453 1.8019 22.994 2.94619 24.2072 4.38579C25.4204 5.8254 26.2722 7.52067 26.6952 9.33701C27.1182 11.1533 27.1007 13.0407 26.644 14.8493C26.1873 16.6579 25.304 18.3378 24.0642 19.7558L25.5677 24.8924C25.6543 25.1832 25.681 25.4878 25.6461 25.7886C25.6113 26.0894 25.5157 26.3806 25.3647 26.6452C25.2138 26.9099 25.0105 27.1428 24.7667 27.3305C24.5229 27.5183 24.2433 27.6571 23.9441 27.7391L12.4945 30.9084ZM10.5235 19.0916C10.1839 18.8924 9.78694 18.8063 9.39267 18.8464C8.99841 18.8865 8.62826 19.0506 8.33821 19.3138C8.04816 19.577 7.85398 19.925 7.78503 20.3052C7.71608 20.6855 7.77612 21.0772 7.95606 21.4213C8.136 21.7653 8.42606 22.043 8.78237 22.2122C9.13869 22.3814 9.54188 22.433 9.93098 22.3592C10.3201 22.2854 10.6739 22.0902 10.939 21.8031C11.2041 21.516 11.366 21.1526 11.4002 20.7679C12.8842 19.8852 14.0897 18.6212 14.8845 17.1147C15.8152 17.2819 16.7766 17.1327 17.6079 16.6921C18.4392 16.2515 19.0899 15.5461 19.4512 14.6941C19.8125 13.8421 19.8624 12.895 19.5927 12.0114C19.3229 11.1278 18.7498 10.3612 17.9693 9.83994C17.9663 6.64238 17.7494 3.44841 17.3198 0.278341C16.7412 0.154444 16.1541 0.0719871 15.5631 0.0316304C15.273 0.010544 14.9819 8.30373e-07 14.6896 8.30373e-07C14.1008 -0.000210596 13.5127 0.0399527 12.9297 0.120193C13.4005 3.27104 13.6424 6.45032 13.6538 9.63435C13.0535 9.95518 12.5447 10.4164 12.173 10.9765C11.8013 11.5366 11.5786 12.178 11.5248 12.8429C11.471 13.5077 11.5879 14.1752 11.8648 14.7851C12.1418 15.395 12.5703 15.9282 13.1115 16.3366C12.5157 17.4628 11.6223 18.4138 10.5235 19.0916Z" fill="white"/>
</svg>
