<svg width="49" height="48" viewBox="0 0 49 48" fill="none" xmlns="http://www.w3.org/2000/svg">
<g clip-path="url(#clip0_977_4552)">
<path d="M24.667 48C37.9218 48 48.667 37.2548 48.667 24C48.667 10.7452 37.9218 0 24.667 0C11.4122 0 0.666992 10.7452 0.666992 24C0.666992 37.2548 11.4122 48 24.667 48Z" fill="#ED4622"/>
<path d="M29.9466 36.7198C29.1786 35.9038 28.8426 34.9438 28.8906 33.7438C28.9866 31.8238 28.9386 29.8558 28.9386 27.9358C28.9386 24.6238 28.9386 24.6238 32.3946 23.9998C31.6266 23.9038 31.1946 23.8078 30.7626 23.8078C29.4666 23.8078 28.8426 23.1838 28.8426 21.9358C28.8426 19.1038 28.7946 16.2718 28.8426 13.4398C28.8906 11.9518 29.7546 11.3758 31.1946 11.8558C34.1226 12.8158 34.5546 13.4878 34.4586 16.6558C34.4106 18.3838 34.4106 20.1598 34.4586 21.8878C34.4586 22.8958 33.9786 23.5678 33.1626 24.0958C34.0746 24.3838 34.5546 25.1038 34.5546 25.9678C34.6026 28.4158 34.6026 30.8638 34.5546 33.3118C34.5546 34.3198 33.8826 34.9438 33.0186 35.3758C32.2506 35.8078 31.2906 35.9038 30.6666 36.6238C30.4746 36.7198 30.2346 36.7198 29.9466 36.7198Z" fill="white"/>
<path d="M25.243 36.7202C23.803 35.7602 22.075 35.8562 20.443 35.5202C18.811 35.2322 18.043 34.4162 18.091 32.7842C18.139 30.7682 18.139 28.8002 18.091 26.7842C18.043 25.1042 18.811 24.2882 20.539 24.2882C22.315 24.2882 24.043 24.2402 25.819 24.2402C27.403 24.2402 28.267 25.0562 28.267 26.5922C28.315 29.0882 28.267 31.6322 28.267 34.1282C28.267 35.4722 27.499 36.1922 26.395 36.7202C26.011 36.7202 25.627 36.7202 25.243 36.7202Z" fill="white"/>
<path d="M17.7553 18.5762C17.8033 24.0002 18.2353 23.4722 12.6673 23.5202C11.0353 23.5202 10.2193 22.9922 10.3153 21.2642C10.4113 19.7282 10.3153 18.1922 10.3153 16.6082C10.3153 16.3682 10.2673 16.0802 10.3153 15.8402C10.5073 14.6402 13.7233 13.2962 16.2193 13.4882C17.9473 13.5842 17.8033 14.8802 17.8033 16.0802C17.7553 16.8962 17.7553 17.7602 17.7553 18.5762Z" fill="white"/>
<path d="M35.0834 18.5275C35.0834 17.6155 35.0354 16.7035 35.0834 15.8395C35.1314 15.0235 34.6514 13.7275 36.0434 13.7275C37.2434 13.7275 38.7794 14.1595 38.9234 15.5515C39.1634 17.9515 39.0674 20.4475 38.9234 22.8475C38.8274 24.1435 37.5794 23.7595 36.7154 23.8075C35.7554 23.8555 35.0354 23.4715 35.0834 22.3675C35.0834 21.1195 35.0834 19.8235 35.0834 18.5275Z" fill="white"/>
<path d="M34.9874 29.3757C34.9874 28.2717 35.0354 27.1677 34.9874 26.1117C34.8914 24.5757 35.8034 24.3357 37.0994 24.2877C38.3954 24.2397 39.0674 24.6717 39.0194 26.0637C38.9714 27.9837 39.0194 29.9517 39.0194 31.8717C38.9714 33.2157 37.2914 34.7037 35.9954 34.5117C35.2754 34.4157 35.0354 33.9357 35.0354 33.2637C34.9874 31.9677 34.9874 30.6717 34.9874 29.3757Z" fill="white"/>
<path d="M28.3155 13.488C28.2195 11.76 27.3075 11.088 25.6275 11.376C23.8515 11.664 22.0275 12.048 20.2515 12.432C18.9075 12.672 18.1875 13.392 18.1875 14.832C18.1875 17.04 18.1875 19.2 18.1875 21.408C18.1875 22.8 18.9075 23.568 20.3475 23.616C22.2195 23.616 24.1395 23.616 26.0115 23.568C27.5475 23.568 28.2675 22.752 28.3155 21.264C28.3155 19.968 28.3155 18.672 28.3155 17.376C28.3155 16.08 28.3635 14.784 28.3155 13.488ZM22.9395 22.704C20.9715 20.832 21.0675 20.112 23.1795 19.056C21.9315 18.096 21.3075 17.088 22.5555 15.696C23.0835 15.12 22.8915 14.304 22.5075 13.488C24.8115 14.112 25.2435 14.976 24.0915 16.512C22.9875 17.952 24.1395 18.72 25.0515 19.824C23.2275 19.968 22.5075 20.928 22.9395 22.704Z" fill="white"/>
<path d="M17.8031 25.824C17.7551 24.72 17.1791 23.856 16.0271 24C14.1551 24.24 11.8991 22.944 10.4111 25.056C10.2191 25.344 10.3151 25.824 10.3151 26.208C10.3151 27.84 10.4111 29.424 10.2671 31.056C10.1231 32.736 10.7471 33.408 12.4751 33.744C17.8511 34.752 17.8511 34.848 17.8031 29.52C17.8031 28.272 17.8031 27.072 17.8031 25.824ZM15.7391 26.544C14.2511 26.64 14.6831 27.696 14.6351 28.512C14.5871 29.424 14.6831 30.288 14.5871 31.2C14.5391 32.304 13.8191 32.736 12.2831 32.832C12.1391 32.832 11.5631 32.736 11.4671 32.016C11.3711 31.344 11.3711 30.384 12.0911 30.384C14.7791 30.288 13.9631 28.368 14.0111 26.976C14.0111 26.016 14.1551 25.344 15.3071 25.344C15.6431 25.344 15.9791 25.2 16.0751 25.632C16.1711 25.968 16.2671 26.544 15.7391 26.544Z" fill="white"/>
</g>
<defs>
<clipPath id="clip0_977_4552">
<rect width="48" height="48" fill="white" transform="translate(0.666992)"/>
</clipPath>
</defs>
</svg>
