<svg width="1920" height="269" viewBox="0 0 1920 269" fill="none" xmlns="http://www.w3.org/2000/svg">
<rect width="1920" height="10" transform="matrix(-1 0 0 1 1920 6)" fill="#004857"/>
<rect width="22.7437" height="12.6354" transform="matrix(4.37114e-08 1 1 -4.37114e-08 78.141 0)" fill="#004857"/>
<rect width="1920" height="10" transform="matrix(-1 0 0 1 1920 37)" fill="#004857"/>
<rect width="22.7437" height="12.6354" transform="matrix(4.37114e-08 1 1 -4.37114e-08 104.043 30.7439)" fill="#004857"/>
<rect width="1920" height="10" transform="matrix(-1 0 0 1 1920 68)" fill="#004857"/>
<rect width="22.7437" height="12.6354" transform="matrix(4.37114e-08 1 1 -4.37114e-08 60.4512 61.4875)" fill="#004857"/>
<rect width="1920" height="10" transform="matrix(-1 0 0 1 1920 99)" fill="#004857"/>
<rect width="22.7437" height="12.6354" transform="matrix(4.37114e-08 1 1 -4.37114e-08 91.408 92.2312)" fill="#004857"/>
<rect width="1920" height="10" transform="matrix(-1 0 0 1 1920 129)" fill="#004857"/>
<rect width="22.7437" height="12.6354" transform="matrix(4.37114e-08 1 1 -4.37114e-08 122.365 122.975)" fill="#004857"/>
<rect width="1920" height="10" transform="matrix(-1 0 0 1 1920 160)" fill="#004857"/>
<rect width="22.7437" height="12.6354" transform="matrix(4.37114e-08 1 1 -4.37114e-08 54.1333 153.719)" fill="#004857"/>
<rect width="1920" height="10" transform="matrix(-1 0 0 1 1920 191)" fill="#004857"/>
<rect width="22.7437" height="12.6354" transform="matrix(4.37114e-08 1 1 -4.37114e-08 78.141 184.462)" fill="#004857"/>
<rect width="1920" height="10" transform="matrix(-1 0 0 1 1920 222)" fill="#004857"/>
<rect width="22.7437" height="12.6354" transform="matrix(4.37114e-08 1 1 -4.37114e-08 102.148 215.206)" fill="#004857"/>
<rect width="1920" height="10" transform="matrix(-1 0 0 1 1920 252)" fill="#004857"/>
<rect width="22.7437" height="12.6354" transform="matrix(4.37114e-08 1 1 -4.37114e-08 85.09 245.95)" fill="#004857"/>
</svg>
