<svg width="1920" height="269" viewBox="0 0 1920 269" fill="none" xmlns="http://www.w3.org/2000/svg">
<rect y="6" width="1920" height="10" fill="#004857"/>
<rect x="1811.86" width="22.7437" height="12.6354" transform="rotate(90 1811.86 0)" fill="#004857"/>
<rect y="37" width="1920" height="10" fill="#004857"/>
<rect x="1785.96" y="30.7439" width="22.7437" height="12.6354" transform="rotate(90 1785.96 30.7439)" fill="#004857"/>
<rect y="68" width="1920" height="10" fill="#004857"/>
<rect x="1829.55" y="61.4875" width="22.7437" height="12.6354" transform="rotate(90 1829.55 61.4875)" fill="#004857"/>
<rect y="99" width="1920" height="10" fill="#004857"/>
<rect x="1798.59" y="92.2312" width="22.7437" height="12.6354" transform="rotate(90 1798.59 92.2312)" fill="#004857"/>
<rect y="129" width="1920" height="10" fill="#004857"/>
<rect x="1767.64" y="122.975" width="22.7437" height="12.6354" transform="rotate(90 1767.64 122.975)" fill="#004857"/>
<rect y="160" width="1920" height="10" fill="#004857"/>
<rect x="1835.87" y="153.719" width="22.7437" height="12.6354" transform="rotate(90 1835.87 153.719)" fill="#004857"/>
<rect y="191" width="1920" height="10" fill="#004857"/>
<rect x="1811.86" y="184.462" width="22.7437" height="12.6354" transform="rotate(90 1811.86 184.462)" fill="#004857"/>
<rect y="222" width="1920" height="10" fill="#004857"/>
<rect x="1787.85" y="215.206" width="22.7437" height="12.6354" transform="rotate(90 1787.85 215.206)" fill="#004857"/>
<rect y="252" width="1920" height="10" fill="#004857"/>
<rect x="1804.91" y="245.95" width="22.7437" height="12.6354" transform="rotate(90 1804.91 245.95)" fill="#004857"/>
</svg>
