<svg width="31" height="24" viewBox="0 0 31 24" fill="none" xmlns="http://www.w3.org/2000/svg">
<path d="M3.09458 0C1.53798 0 0.258789 1.27919 0.258789 2.83579V16.4518C0.258789 18.0084 1.53798 19.2876 3.09458 19.2876H9.65236C10.1294 21.9642 12.4581 24 15.2718 24C18.0856 24 20.4142 21.9642 20.8913 19.2876H27.4491C29.0057 19.2876 30.2849 18.0084 30.2849 16.4518V2.83579C30.2849 1.27919 29.0057 0 27.4491 0H3.09458ZM3.09458 1.66811H27.4491C28.1104 1.66811 28.6167 2.17447 28.6167 2.83579V4.76455H1.9269V2.83579C1.9269 2.17447 2.43326 1.66811 3.09458 1.66811ZM1.9269 8.51781H28.6167V16.4518C28.6167 17.1131 28.1104 17.6195 27.4491 17.6195H20.9538C20.627 14.7714 18.2074 12.563 15.2718 12.563C12.3362 12.563 9.9166 14.7714 9.58981 17.6195H3.09458C2.43326 17.6195 1.9269 17.1131 1.9269 16.4518V8.51781ZM14.2188 14.3458H16.3248L15.9912 19.8089H14.5524L14.2188 14.3458ZM15.2718 20.4031C15.77 20.4031 16.1789 20.8015 16.1789 21.2997C16.1789 21.798 15.77 22.2172 15.2718 22.2172C14.7736 22.2172 14.3648 21.798 14.3648 21.2997C14.3648 20.8015 14.7736 20.4031 15.2718 20.4031Z" fill="white"/>
</svg>
