<svg width="347" height="336" viewBox="0 0 347 336" fill="none" xmlns="http://www.w3.org/2000/svg">
<mask id="mask0_705_6522" style="mask-type:luminance" maskUnits="userSpaceOnUse" x="0" y="0" width="347" height="336">
<path d="M346.03 0H0V336H346.03V0Z" fill="white"/>
</mask>
<g mask="url(#mask0_705_6522)">
<path d="M200.811 218.381C200.746 218.833 200.746 219.026 200.746 219.22C200.746 220.188 201.329 220.511 203.272 220.575L203.143 221.802H194.982L195.112 220.64C196.666 220.576 197.249 220.317 197.443 219.026L198.674 208.828C198.739 208.441 198.739 208.183 198.739 207.989C198.739 207.085 198.156 206.892 196.796 206.827L196.925 205.665H204.438C208.324 205.665 210.461 207.214 210.461 209.99C210.461 213.217 208 215.347 204.438 215.347H201.2L200.811 218.381ZM201.329 213.992H203.143C205.604 213.992 207.093 212.701 207.093 210.119C207.093 208.183 206.122 207.021 203.725 207.021H202.236L201.329 213.992Z" fill="#A89157"/>
<path d="M218.558 216.381H218.493C218.169 217.22 217.846 217.93 217.069 219.156C215.903 221.028 214.608 221.996 213.183 221.996C211.499 221.996 210.527 220.641 210.527 218.511C210.527 214.186 213.701 210.378 217.716 210.378C218.882 210.378 219.789 210.765 220.436 211.475L221.796 210.249H222.962L222.185 212.637C221.537 215.219 220.954 218.511 220.954 219.673C220.954 220.06 221.084 220.253 221.343 220.253C221.796 220.253 222.185 219.866 222.832 219.156L223.545 219.802C222.314 221.286 221.213 221.996 219.659 221.996C218.364 221.996 217.781 221.286 217.781 220.06C217.846 219.156 218.234 217.542 218.558 216.381ZM217.069 217.413C218.105 215.735 218.947 213.412 219.141 212.185C218.882 211.862 218.429 211.669 217.781 211.669C215.255 211.669 213.507 215.283 213.507 218.188C213.507 219.285 213.766 219.995 214.478 219.995C215.32 219.931 216.097 219.092 217.069 217.413Z" fill="#A89157"/>
<path d="M228.856 218.445C229.763 215.993 231.253 212.636 232.223 211.474C232.806 210.764 233.389 210.377 234.296 210.377C235.332 210.377 235.915 211.023 235.915 212.055C235.915 212.959 235.526 213.54 234.943 213.992H233.907C233.842 213.475 233.584 213.217 233.13 213.217C231.9 213.217 230.41 216.057 228.533 221.737H225.488L226.977 213.475C227.043 213.217 227.043 212.83 227.043 212.701C227.043 212.378 226.914 212.185 226.654 212.185C226.2 212.185 225.747 212.701 225.099 213.346L224.322 212.701C225.618 210.958 226.848 210.313 228.338 210.313C229.697 210.313 230.152 211.023 230.152 212.12C230.152 212.507 230.086 213.088 229.892 213.798L228.727 218.381H228.856V218.445Z" fill="#A89157"/>
<path d="M243.815 216.381H243.75C243.427 217.22 243.103 217.93 242.326 219.156C241.159 221.028 239.863 221.996 238.439 221.996C236.756 221.996 235.784 220.641 235.784 218.511C235.784 214.186 238.957 210.378 242.972 210.378C244.139 210.378 245.046 210.765 245.693 211.475L247.053 210.249H248.218L247.442 212.637C246.794 215.219 246.21 218.511 246.21 219.673C246.21 220.06 246.341 220.253 246.599 220.253C247.053 220.253 247.442 219.866 248.089 219.156L248.802 219.802C247.571 221.286 246.47 221.996 244.917 221.996C243.621 221.996 243.038 221.286 243.038 220.06C243.038 219.156 243.49 217.542 243.815 216.381ZM242.326 217.413C243.361 215.735 244.204 213.412 244.397 212.185C244.139 211.862 243.685 211.669 243.038 211.669C240.512 211.669 238.764 215.283 238.764 218.188C238.764 219.285 239.022 219.995 239.734 219.995C240.577 219.931 241.353 219.092 242.326 217.413Z" fill="#A89157"/>
<path d="M206.576 238.714H206.641C208.584 233.936 210.332 230.711 212.988 230.711C214.283 230.711 214.93 231.548 214.93 232.775C214.93 234.776 213.506 238.649 213.506 240.005C213.506 240.392 213.635 240.584 213.894 240.584C214.348 240.584 214.736 240.197 215.384 239.489L216.096 240.134C214.866 241.619 213.765 242.327 212.21 242.327C210.85 242.327 210.203 241.619 210.203 240.392C210.203 238.649 211.628 235.1 211.628 233.42C211.628 233.099 211.563 232.841 211.239 232.841C210.138 232.841 207.742 237.293 206.252 242.069H203.208C203.791 239.101 204.698 235.292 204.698 233.42C204.698 233.099 204.633 232.775 204.309 232.775C203.208 232.775 200.877 237.164 199.387 242.006H196.343L197.833 233.744C197.898 233.486 197.898 233.099 197.898 232.97C197.898 232.646 197.768 232.452 197.509 232.452C197.056 232.452 196.602 232.97 195.955 233.615L195.178 232.97C196.473 231.227 197.703 230.58 199.193 230.58C200.553 230.58 201.006 231.29 201.006 232.388C201.006 232.775 200.942 233.357 200.747 234.066L199.582 238.649H199.646C201.589 233.873 203.338 230.645 205.993 230.645C207.288 230.645 207.807 231.419 207.807 232.581C207.807 233.357 207.612 234.453 207.288 235.679L206.576 238.714Z" fill="#A89157"/>
<path d="M225.42 236.646H225.356C225.032 237.422 224.708 238.196 223.931 239.423C222.765 241.295 221.47 242.262 220.045 242.262C218.361 242.262 217.39 240.906 217.39 238.776C217.39 234.453 220.563 230.643 224.578 230.643C225.744 230.643 226.65 231.032 227.299 231.741L228.658 230.514H229.824L229.047 232.904C228.4 235.485 227.817 238.776 227.817 239.939C227.817 240.326 227.946 240.519 228.205 240.519C228.658 240.519 229.047 240.132 229.695 239.423L230.408 240.068C229.176 241.553 228.076 242.262 226.521 242.262C225.226 242.262 224.643 241.553 224.643 240.326C224.643 239.487 225.096 237.873 225.42 236.646ZM223.931 237.68C224.967 236.001 225.809 233.678 226.003 232.452C225.744 232.128 225.291 231.936 224.643 231.936C222.182 231.936 220.369 235.55 220.369 238.455C220.369 239.552 220.628 240.261 221.34 240.261C222.182 240.261 222.959 239.358 223.931 237.68Z" fill="#A89157"/>
<path d="M240.965 233.355C240.965 233.097 240.899 232.839 240.576 232.839C239.475 232.839 236.949 237.035 235.33 242.069H232.287L233.775 233.807C233.84 233.549 233.84 233.162 233.84 233.033C233.84 232.71 233.711 232.517 233.451 232.517C232.999 232.517 232.545 233.033 231.898 233.678L231.12 233.033C232.416 231.29 233.646 230.645 235.136 230.645C236.495 230.645 236.949 231.354 236.949 232.452C236.949 232.839 236.884 233.42 236.689 234.129L235.525 238.649H235.588C237.661 233.613 239.669 230.709 242.195 230.709C243.491 230.709 244.137 231.483 244.137 232.775C244.137 234.582 242.647 238.778 242.647 240.003C242.647 240.392 242.778 240.584 243.036 240.584C243.491 240.584 243.879 240.197 244.526 239.487L245.239 240.132C244.008 241.617 242.907 242.327 241.354 242.327C239.993 242.327 239.41 241.617 239.41 240.455C239.54 238.842 240.965 234.905 240.965 233.355Z" fill="#A89157"/>
<path d="M250.615 238.649C250.486 239.294 250.486 239.552 250.486 239.876C250.486 240.197 250.68 240.455 251.069 240.455C251.781 240.455 252.688 239.81 253.724 238.584L254.502 239.294C253.077 241.295 251.458 242.327 249.708 242.327C248.22 242.327 247.508 241.617 247.508 240.263C247.508 239.876 247.571 239.358 247.702 238.584L248.867 232.259H247.377L247.571 231.29C249.19 230.645 250.551 229.547 251.652 228.45H252.688L252.299 230.903H255.148L254.89 232.259H251.976L250.615 238.649Z" fill="#A89157"/>
<path d="M265.447 238.972C264.346 241.102 262.533 242.329 260.136 242.329C257.287 242.329 255.862 240.65 255.862 237.938C255.862 234.454 258.517 230.711 262.467 230.711C264.541 230.711 265.707 231.614 265.707 233.228C265.707 236.003 262.144 236.906 258.971 237.551V237.809C258.971 239.552 259.618 240.521 260.979 240.521C262.467 240.521 263.634 239.747 264.606 238.391L265.447 238.972ZM259.035 236.519C261.755 235.745 263.051 234.712 263.051 233.033C263.051 232.324 262.792 231.936 262.08 231.936C260.461 231.936 259.229 234.131 259.035 236.519Z" fill="#A89157"/>
<path d="M271.146 238.778C272.053 236.325 273.542 232.968 274.513 231.806C275.096 231.096 275.679 230.709 276.586 230.709C277.622 230.709 278.205 231.354 278.205 232.388C278.205 233.291 277.816 233.871 277.233 234.324H276.197C276.132 233.807 275.874 233.549 275.42 233.549C274.189 233.549 272.699 236.39 270.822 242.069H267.779L269.267 233.807C269.332 233.549 269.332 233.162 269.332 233.033C269.332 232.71 269.203 232.517 268.944 232.517C268.491 232.517 268.037 233.033 267.39 233.678L266.612 233.033C267.908 231.29 269.138 230.645 270.628 230.645C271.987 230.645 272.441 231.354 272.441 232.452C272.441 232.839 272.376 233.42 272.182 234.129L271.017 238.713H271.146V238.778Z" fill="#A89157"/>
<path d="M203.598 256.916H203.533C203.21 257.753 202.886 258.464 202.109 259.691C200.943 261.563 199.648 262.531 198.223 262.531C196.539 262.531 195.567 261.176 195.567 259.046C195.567 254.72 198.741 250.913 202.756 250.913C203.922 250.913 204.829 251.3 205.476 252.009L206.836 250.784H208.002L207.225 253.172C206.577 255.753 205.994 259.046 205.994 260.207C205.994 260.594 206.124 260.788 206.383 260.788C206.836 260.788 207.225 260.401 207.872 259.691L208.585 260.336C207.354 261.821 206.253 262.531 204.699 262.531C203.404 262.531 202.821 261.821 202.821 260.594C202.886 259.754 203.274 258.142 203.598 256.916ZM202.109 257.948C203.145 256.27 203.987 253.946 204.181 252.719C203.922 252.398 203.469 252.203 202.821 252.203C200.295 252.203 198.547 255.818 198.547 258.722C198.547 259.82 198.806 260.53 199.518 260.53C200.36 260.53 201.137 259.625 202.109 257.948Z" fill="#A89157"/>
<path d="M224.84 258.98H224.905C226.848 254.204 228.596 250.976 231.251 250.976C232.546 250.976 233.195 251.816 233.195 253.043C233.195 254.978 231.769 258.916 231.769 260.272C231.769 260.659 231.899 260.852 232.158 260.852C232.612 260.852 233.001 260.465 233.647 259.756L234.36 260.401C233.13 261.886 232.029 262.595 230.475 262.595C229.114 262.595 228.531 261.886 228.531 260.659C228.531 258.916 229.955 255.365 229.955 253.688C229.955 253.364 229.892 253.106 229.568 253.106C228.467 253.106 226.07 257.561 224.581 262.337H221.537C222.12 259.367 223.026 255.56 223.026 253.753C223.026 253.43 222.962 253.106 222.638 253.106C221.537 253.106 219.205 257.495 217.716 262.337H214.672L216.097 254.075C216.162 253.817 216.162 253.43 216.162 253.301C216.162 252.977 216.032 252.785 215.773 252.785C215.319 252.785 214.866 253.301 214.219 253.946L213.441 253.301C214.737 251.558 215.967 250.913 217.457 250.913C218.817 250.913 219.27 251.623 219.27 252.719C219.27 253.106 219.205 253.688 219.011 254.398L217.845 258.98H217.91C219.853 254.204 221.602 250.976 224.257 250.976C225.552 250.976 226.07 251.752 226.07 252.914C226.07 253.688 225.876 254.786 225.552 256.012L224.84 258.98Z" fill="#A89157"/>
<path d="M244.98 254.591H244.915C242.907 259.691 240.901 262.595 238.568 262.595C237.143 262.595 236.562 261.755 236.562 260.465C236.562 258.593 237.987 254.849 237.987 253.364C237.987 253.043 237.856 252.848 237.598 252.848C237.143 252.848 236.691 253.364 236.042 254.011L235.33 253.364C236.562 251.622 237.856 250.976 239.346 250.976C240.707 250.976 241.159 251.687 241.159 252.785C241.159 254.462 239.735 258.142 239.735 259.754C239.735 260.143 239.8 260.401 240.123 260.401C241.419 260.401 243.621 255.883 245.24 251.234H248.284C247.766 254.011 246.728 259.238 246.728 260.336C246.728 260.723 246.859 260.917 247.117 260.917C247.571 260.917 247.96 260.53 248.607 259.82L249.385 260.465C248.153 261.95 247.054 262.66 245.498 262.66C244.139 262.66 243.556 261.95 243.556 260.723C243.556 259.433 244.333 256.979 244.98 254.591ZM248.736 245.813L243.945 250.138H242.326L244.98 245.813H248.736Z" fill="#A89157"/>
<path d="M255.732 260.27C255.732 258.528 251.393 257.432 251.393 254.397C251.393 252.461 253.076 250.976 255.603 250.976C257.48 250.976 258.776 251.687 258.776 252.912C258.776 253.43 258.516 253.817 257.998 254.075H256.833C256.574 252.912 255.861 252.267 254.826 252.267C254.113 252.267 253.659 252.59 253.659 253.172C253.659 254.849 258.193 256.205 258.193 259.109C258.193 261.045 256.445 262.595 253.79 262.595C251.588 262.595 250.032 261.692 250.032 260.336C250.032 259.691 250.421 259.238 250.939 258.98H251.976C252.3 260.594 253.207 261.368 254.308 261.368C255.214 261.368 255.732 260.916 255.732 260.27Z" fill="#A89157"/>
<path d="M264.474 260.27C264.474 260.658 264.603 260.852 264.861 260.852C265.315 260.852 265.704 260.465 266.351 259.754L267.063 260.399C265.833 261.884 264.732 262.595 263.178 262.595C261.817 262.595 261.234 261.884 261.234 260.658C261.234 259.109 262.595 254.849 262.595 253.299C262.595 252.977 262.466 252.783 262.141 252.783C261.688 252.783 261.234 253.299 260.587 253.946L259.875 253.299C261.105 251.558 262.401 250.911 263.891 250.911C265.25 250.911 265.704 251.621 265.704 252.719C265.833 254.462 264.474 258.98 264.474 260.27ZM263.048 247.878C263.048 246.78 263.825 245.877 265.055 245.877C266.157 245.877 266.869 246.651 266.869 247.62C266.869 248.717 266.028 249.557 264.861 249.557C263.696 249.621 263.048 248.91 263.048 247.878Z" fill="#A89157"/>
<path d="M271.535 257.819C271.535 259.625 272.053 260.787 273.477 260.787C274.578 260.787 275.614 260.012 276.521 258.915L277.364 259.496C276.392 261.175 274.773 262.53 272.571 262.53C269.916 262.53 268.491 260.787 268.491 258.27C268.491 254.397 271.34 250.976 275.162 250.976C276.91 250.976 278.011 251.751 278.011 252.977C278.011 253.688 277.622 254.204 277.104 254.462H275.679C275.614 253.106 275.421 252.203 274.515 252.203C272.571 252.203 271.535 255.494 271.535 257.819Z" fill="#A89157"/>
<path d="M287.012 256.916H286.946C286.623 257.753 286.299 258.464 285.522 259.691C284.357 261.563 283.062 262.531 281.637 262.531C279.953 262.531 278.98 261.176 278.98 259.046C278.98 254.72 282.155 250.913 286.17 250.913C287.335 250.913 288.242 251.3 288.891 252.009L290.25 250.784H291.416L290.639 253.172C289.992 255.753 289.408 259.046 289.408 260.207C289.408 260.594 289.537 260.788 289.797 260.788C290.25 260.788 290.639 260.401 291.286 259.691L292 260.336C290.768 261.821 289.667 262.531 288.113 262.531C286.817 262.531 286.234 261.821 286.234 260.594C286.234 259.754 286.688 258.142 287.012 256.916ZM285.458 257.948C286.494 256.27 287.335 253.946 287.53 252.719C287.272 252.398 286.817 252.203 286.17 252.203C283.645 252.203 281.895 255.818 281.895 258.722C281.895 259.82 282.155 260.53 282.867 260.53C283.708 260.53 284.486 259.625 285.458 257.948Z" fill="#A89157"/>
<path d="M202.755 272.729V272.018C203.144 271.567 203.791 271.244 204.504 271.244C206.058 271.244 206.641 272.342 206.641 273.632C206.641 276.602 203.014 280.151 199.711 282.799H198.74C198.351 279.119 197.898 275.891 197.509 274.472C197.315 273.761 197.25 273.181 196.797 273.181C196.344 273.181 195.955 273.632 195.437 274.277L194.725 273.632C195.761 272.018 196.991 271.244 198.287 271.244C199.647 271.244 200.035 272.018 200.359 273.31C200.748 274.859 201.071 277.892 201.136 280.022C203.014 278.15 204.245 276.667 204.245 274.73C204.374 273.697 203.856 272.923 202.755 272.729Z" fill="#A89157"/>
<path d="M212.145 280.54C212.145 280.927 212.275 281.12 212.534 281.12C212.987 281.12 213.376 280.732 214.023 280.024L214.736 280.669C213.505 282.154 212.404 282.862 210.85 282.862C209.49 282.862 208.907 282.154 208.907 280.927C208.907 279.377 210.267 275.117 210.267 273.568C210.267 273.245 210.137 273.052 209.814 273.052C209.36 273.052 208.907 273.568 208.259 274.213L207.547 273.568C208.777 271.825 210.137 271.18 211.562 271.18C212.922 271.18 213.376 271.889 213.376 272.987C213.505 274.73 212.145 279.248 212.145 280.54ZM210.72 268.211C210.72 267.113 211.497 266.275 212.728 266.275C213.829 266.275 214.541 267.049 214.541 268.018C214.541 269.114 213.764 269.953 212.534 269.953C211.368 269.888 210.72 269.179 210.72 268.211Z" fill="#A89157"/>
<path d="M223.091 272.729V272.018C223.48 271.567 224.127 271.244 224.84 271.244C226.394 271.244 226.977 272.342 226.977 273.632C226.977 276.602 223.35 280.151 220.047 282.799H219.076C218.687 279.119 218.234 275.891 217.845 274.472C217.651 273.761 217.586 273.181 217.133 273.181C216.68 273.181 216.291 273.632 215.773 274.277L215.061 273.632C216.097 272.018 217.327 271.244 218.622 271.244C219.983 271.244 220.371 272.018 220.695 273.31C221.084 274.859 221.407 277.892 221.472 280.022C223.35 278.15 224.581 276.667 224.581 274.73C224.71 273.697 224.257 272.923 223.091 272.729Z" fill="#A89157"/>
<path d="M236.042 277.247H235.977C235.653 278.021 235.33 278.795 234.552 280.022C233.387 281.894 232.092 282.862 230.667 282.862C228.983 282.862 228.011 281.507 228.011 279.377C228.011 275.053 231.185 271.244 235.201 271.244C236.365 271.244 237.272 271.631 237.921 272.342L239.28 271.115H240.447L239.669 273.439C239.022 276.02 238.439 279.377 238.439 280.538C238.439 280.927 238.568 281.12 238.828 281.12C239.28 281.12 239.669 280.732 240.316 280.022L241.03 280.667C239.798 282.152 238.697 282.862 237.143 282.862C235.848 282.862 235.264 282.152 235.264 280.927C235.264 280.022 235.719 278.408 236.042 277.247ZM234.552 278.279C235.59 276.601 236.431 274.277 236.625 273.052C236.365 272.729 235.913 272.534 235.264 272.534C232.739 272.534 230.991 276.149 230.991 279.055C230.991 280.151 231.25 280.861 231.963 280.861C232.804 280.796 233.516 279.958 234.552 278.279Z" fill="#A89157"/>
<path d="M67.9795 124.531V161.646H85.7248V173.006H67.9795V210.314H85.9837V221.803H54.3145V113.042H85.9837V124.531H67.9795Z" fill="#1C1C1C"/>
<path d="M137.148 226.838C137.148 242.329 128.6 247.3 115.712 247.3C102.889 247.3 94.3398 242.329 94.3398 226.838V156.74C94.3398 141.249 102.889 136.279 115.712 136.279C128.664 136.279 137.148 141.249 137.148 156.74V172.941H123.419V156.805C123.419 149.834 120.051 147.833 115.712 147.833C111.502 147.833 108.005 149.834 108.005 156.805V226.774C108.005 233.615 111.502 235.745 115.712 235.745C120.051 235.745 123.419 233.615 123.419 226.774V210.249H137.148V226.838Z" fill="#1C1C1C"/>
<path d="M177.497 173.006H158.521L156.125 195.275H142.978L155.542 86.5136H180.346L192.91 195.275H179.828L177.497 173.006ZM176.136 161.646L169.271 98.9066H166.552L159.816 161.646H176.136Z" fill="#1C1C1C"/>
<path d="M217.908 52.8849C231.183 52.8849 240.187 57.2095 240.187 73.3461V140.087C240.187 156.998 231.767 161.646 217.908 161.646H197.442V52.8849H217.908ZM218.102 150.157C223.089 150.157 226.586 148.543 226.586 140.926V73.1525C226.586 65.6651 223.218 64.3096 218.361 64.3096H211.172V150.157H218.102Z" fill="#1C1C1C"/>
</g>
</svg>
