<svg width="34" height="20" viewBox="0 0 34 20" fill="none" xmlns="http://www.w3.org/2000/svg">
<path d="M17 0.727539C7.61033 0.727539 0 10.0003 0 10.0003C0 10.0003 7.61033 19.273 17 19.273C26.3897 19.273 34 10.0003 34 10.0003C34 10.0003 26.3897 0.727539 17 0.727539ZM17 17.2124C13.0176 17.2124 9.78788 13.9826 9.78788 10.0003C9.78788 6.01789 13.0176 2.78815 17 2.78815C20.9824 2.78815 24.2121 6.01789 24.2121 10.0003C24.2121 13.9826 20.9824 17.2124 17 17.2124Z" fill="white"/>
<path d="M19.3263 9.47682C18.3302 9.47682 17.5233 8.66989 17.5233 7.67379C17.5233 7.03588 17.8574 6.47648 18.3584 6.15652C17.9278 6.00358 17.4649 5.91504 16.982 5.91504C14.7161 5.91504 12.8789 7.75228 12.8789 10.0181C12.8789 12.286 14.7161 14.1212 16.982 14.1212C19.2478 14.1212 21.0851 12.284 21.0851 10.0181C21.0851 9.53516 20.9965 9.07235 20.8436 8.64168C20.5236 9.14275 19.9663 9.47682 19.3263 9.47682Z" fill="white"/>
</svg>
