<svg width="70" height="70" viewBox="0 0 70 70" fill="none" xmlns="http://www.w3.org/2000/svg">
<circle cx="35" cy="35" r="35" fill="#004857"/>
<g clip-path="url(#clip0_33_432)">
<path d="M31.5238 19C35.2567 19 38.6369 20.5138 41.084 22.9608C43.5296 25.4065 45.0433 28.7866 45.0433 32.5209C45.0433 36.2539 43.5295 39.634 41.084 42.0797C38.6369 44.5267 35.2581 46.0404 31.5238 46.0404C30.7357 46.0404 29.9585 45.9713 29.2002 45.8397C28.541 45.7257 27.8912 45.5603 27.2578 45.35L22.5265 47.504C22.1277 47.6858 21.657 47.5108 21.4739 47.1107C21.4034 46.956 21.3857 46.7892 21.4156 46.6345H21.4142L22.2199 42.3279C20.9489 41.122 19.9126 39.6761 19.1869 38.062C18.4259 36.3678 18 34.4933 18 32.5209C18 28.7866 19.5138 25.4078 21.9607 22.9607C24.4064 20.5137 27.7866 19 31.5209 19L31.5238 19ZM30.7262 39.7823C30.7262 39.3428 31.0829 38.9847 31.5238 38.9847C31.9633 38.9847 32.3214 39.3414 32.3214 39.7823V40.2326C32.3214 40.6721 31.9647 41.0302 31.5238 41.0302C31.083 41.0302 30.7262 40.6735 30.7262 40.2326V39.7823ZM27.879 29.6089C27.879 30.0484 27.5223 30.4065 27.0814 30.4065C26.6406 30.4065 26.2838 30.0498 26.2838 29.6089C26.2838 28.1616 26.8698 26.8526 27.818 25.9044C28.7661 24.9563 30.0751 24.3703 31.5224 24.3703C32.9698 24.3703 34.2787 24.9563 35.2269 25.9044C36.1751 26.8526 36.7611 28.1616 36.7611 29.6089C36.7611 31.0562 36.1751 32.3652 35.2269 33.3134C34.4564 34.0838 33.4459 34.6156 32.3187 34.7878V36.6326C32.3187 37.0734 31.962 37.4302 31.5211 37.4302C31.0802 37.4302 30.7235 37.0735 30.7235 36.6326V34.0499C30.7235 33.6104 31.0802 33.2523 31.5211 33.2523C32.5276 33.2523 33.4391 32.8454 34.0984 32.1862C34.7576 31.5269 35.1645 30.6154 35.1645 29.6089C35.1645 28.6024 34.7562 27.6909 34.0984 27.0316C33.4391 26.3724 32.5276 25.9655 31.5211 25.9655C30.5146 25.9655 29.6031 26.3738 28.9438 27.0316C28.2846 27.6909 27.8777 28.6024 27.8777 29.6089H27.879ZM33.9993 49.3952C33.5842 49.2487 33.3686 48.7957 33.5137 48.3806C33.6602 47.9655 34.1133 47.7499 34.5284 47.895C35.1564 48.1175 35.8075 48.287 36.4749 48.3996L36.4776 48.401C37.1287 48.5108 37.8028 48.5691 38.4946 48.5691C39.1986 48.5691 39.8863 48.5081 40.5496 48.3928C41.2387 48.2734 41.902 48.0971 42.5328 47.8692C42.7349 47.796 42.9478 47.8123 43.131 47.8936L46.758 49.5444L46.1517 46.308C46.0961 46.0095 46.2141 45.7193 46.4365 45.5416C47.6777 44.4347 48.6855 43.0701 49.3787 41.5291C50.0488 40.0397 50.4218 38.3862 50.4218 36.6419C50.4218 34.9056 50.0528 33.2589 49.3909 31.7776C48.7004 30.234 47.6912 28.864 46.4487 27.7516C46.1232 27.4586 46.0947 26.9567 46.3863 26.6311C46.6793 26.3042 47.1812 26.2758 47.5067 26.5687C48.9161 27.8302 50.0596 29.382 50.8409 31.132C51.5951 32.8194 52.0156 34.6857 52.0156 36.6446C52.0156 38.6168 51.591 40.4928 50.8287 42.1856C50.103 43.7998 49.0667 45.2458 47.7957 46.4516L48.6014 50.7596H48.6C48.6299 50.9156 48.6122 51.0811 48.5417 51.2357C48.3599 51.6345 47.8879 51.8095 47.4891 51.6277L42.7578 49.4737C42.1257 49.684 41.476 49.8494 40.8154 49.9648C40.0571 50.0963 39.2812 50.1642 38.4918 50.1642C37.7172 50.1642 36.9536 50.0977 36.2075 49.9702C35.4466 49.84 34.706 49.646 33.9965 49.3964L33.9993 49.3952ZM39.9554 24.088C37.7973 21.9299 34.8157 20.595 31.5238 20.595C28.2303 20.595 25.249 21.9297 23.0908 24.088C20.9327 26.246 19.5978 29.2276 19.5978 32.5209C19.5978 34.2653 19.9708 35.9189 20.6409 37.4081C21.334 38.9491 22.3419 40.315 23.5831 41.4206C23.8055 41.5983 23.9222 41.89 23.8679 42.187L23.2616 45.4235L26.8886 43.7727C27.0704 43.6899 27.2833 43.675 27.4868 43.7483C28.1176 43.9748 28.7795 44.1512 29.4699 44.2719C30.1332 44.3872 30.8196 44.4468 31.525 44.4468C34.8184 44.4468 37.7998 43.1121 39.9565 40.9538C42.1146 38.7958 43.4495 35.8142 43.4495 32.5223C43.4495 29.2288 42.1148 26.2474 39.9565 24.0893L39.9554 24.088Z" fill="white"/>
</g>
<defs>
<clipPath id="clip0_33_432">
<rect width="35" height="35" fill="white" transform="translate(17.5 17.5)"/>
</clipPath>
</defs>
</svg>
