<svg width="25" height="34" viewBox="0 0 25 34" fill="none" xmlns="http://www.w3.org/2000/svg">
<path fill-rule="evenodd" clip-rule="evenodd" d="M14.4119 30.1505C14.6071 30.4529 14.8266 30.7269 15.0747 30.9751C15.957 31.8581 17.1769 32.4047 18.5241 32.4047C19.8714 32.4047 21.0912 31.8595 21.9736 30.9751C22.8559 30.0921 23.4022 28.8714 23.4022 27.5232C23.4022 26.175 22.8559 24.9543 21.9736 24.0713C21.0912 23.1883 19.8714 22.6417 18.5241 22.6417C17.1769 22.6417 15.957 23.187 15.0747 24.0713C14.1923 24.9543 13.6461 26.175 13.6461 27.5232C13.6461 28.4903 13.9267 29.3923 14.4105 30.1505H14.4119ZM15.3945 28.3859C15.0828 28.0739 15.0828 27.5707 15.3945 27.2601C15.7063 26.9481 16.2091 26.9481 16.5195 27.2601L17.4683 28.2096L20.5274 25.1483C20.8391 24.8377 21.342 24.8377 21.6523 25.1483C21.9641 25.4602 21.9641 25.9634 21.6523 26.2754L18.0295 29.9008C17.7178 30.2114 17.2149 30.2114 16.9032 29.9008L15.3906 28.3871L15.3945 28.3859ZM13.3249 31.3794H3.38845C2.45595 31.3794 1.60883 30.9968 0.994856 30.3838C0.380878 29.7694 0 28.9216 0 27.9885V8.07712C0 7.14395 0.380878 6.29623 0.994856 5.68181C1.60883 5.06739 2.45595 4.68624 3.38845 4.68624H4.65166V3.63234C4.65166 3.19289 5.00811 2.8348 5.44863 2.8348H7.41121V2.64084C7.41121 1.91382 7.70804 1.25329 8.18515 0.774496C8.20141 0.758219 8.21903 0.741943 8.23665 0.727023C8.70969 0.276705 9.34941 0 10.0488 0C10.7739 0 11.4327 0.297042 11.9125 0.777197C12.3923 1.25734 12.6891 1.91652 12.6891 2.64083V2.83479H14.6517C15.0908 2.83479 15.4487 3.19149 15.4487 3.63233V4.68623H16.7119C17.6444 4.68623 18.4915 5.06739 19.1055 5.6818C19.7194 6.29622 20.1003 7.14394 20.1003 8.07711V21.2405C21.2551 21.5294 22.2879 22.1275 23.1038 22.944C24.2749 24.1159 25 25.7354 25 27.5233C25 29.3123 24.2749 30.9304 23.1038 32.1025C21.9328 33.2745 20.3144 34 18.5279 34C16.7401 34 15.1232 33.2744 13.9519 32.1025C13.7256 31.8773 13.5182 31.6359 13.3285 31.3796L13.3249 31.3794ZM4.53105 26.3091C4.09191 26.3091 3.73407 25.9524 3.73407 25.5116C3.73407 25.0722 4.09053 24.7141 4.53105 24.7141H8.57265C9.01179 24.7141 9.36962 25.0708 9.36962 25.5116C9.36962 25.9511 9.01317 26.3091 8.57265 26.3091H4.53105ZM4.53105 21.673C4.09191 21.673 3.73407 21.3163 3.73407 20.8754C3.73407 20.436 4.09053 20.0779 4.53105 20.0779H10.759C11.1981 20.0779 11.5559 20.4346 11.5559 20.8754C11.5559 21.3149 11.1995 21.673 10.759 21.673H4.53105ZM4.53105 17.0368C4.09191 17.0368 3.73407 16.6801 3.73407 16.2393C3.73407 15.7998 4.09053 15.4417 4.53105 15.4417H15.5625C16.0017 15.4417 16.3595 15.7984 16.3595 16.2393C16.3595 16.6801 16.003 17.0368 15.5625 17.0368H4.53105ZM4.53105 12.4006C4.09191 12.4006 3.73407 12.0439 3.73407 11.6031C3.73407 11.1623 4.09053 10.8056 4.53105 10.8056H15.5625C16.0017 10.8056 16.3595 11.1623 16.3595 11.6031C16.3595 12.0425 16.003 12.4006 15.5625 12.4006H4.53105ZM8.20416 4.42381H6.24158V6.53293H13.8508V4.42381H11.8882C11.4491 4.42381 11.0913 4.0671 11.0913 3.62626V2.63611C11.0913 2.34721 10.9733 2.08545 10.7849 1.89555C10.5952 1.70566 10.3336 1.58901 10.0449 1.58901C9.77248 1.58901 9.52309 1.69481 9.33603 1.86571L9.30622 1.89691C9.11646 2.08815 8.99854 2.34858 8.99854 2.63612V3.62627C8.99854 4.06572 8.64209 4.42381 8.20157 4.42381L8.20416 4.42381Z" fill="white"/>
</svg>
