<svg width="34" height="39" viewBox="0 0 34 39" fill="none" xmlns="http://www.w3.org/2000/svg">
<path fill-rule="evenodd" clip-rule="evenodd" d="M16.8896 15.0671C16.4197 14.8624 15.9302 14.7068 15.4307 14.5986C15.1761 14.5698 14.9838 14.3483 14.9855 14.0827V12.6282C14.9871 12.5791 14.9493 12.5369 14.9017 12.5385H12.5458C12.4965 12.5385 12.4571 12.5791 12.4571 12.6282V14.0827C12.4571 14.3347 12.278 14.5495 12.0365 14.5901C11.5239 14.6967 11.0228 14.8574 10.5398 15.0671C10.0634 15.2684 9.60665 15.5153 9.17624 15.8062C8.97581 15.9618 8.69489 15.9415 8.5158 15.7589L7.53174 14.7373C7.49724 14.7035 7.44138 14.7035 7.40688 14.7373L5.72457 16.4692C5.7065 16.4861 5.695 16.5098 5.695 16.5335C5.69664 16.5588 5.70814 16.5808 5.72457 16.5994L6.72508 17.6294C6.89265 17.8053 6.91894 18.0777 6.78751 18.284C6.50493 18.7254 6.26343 19.1939 6.06462 19.6827C5.86583 20.1664 5.71469 20.6687 5.6112 21.1846C5.56848 21.4349 5.35655 21.6193 5.11012 21.6176H3.70051C3.65451 21.6193 3.61673 21.6599 3.61673 21.7089V24.1343V24.1326C3.61673 24.18 3.65451 24.2189 3.70051 24.2189H5.11832C5.35654 24.2189 5.5619 24.3914 5.6112 24.6316C5.82148 25.6819 6.22234 26.6815 6.79243 27.5796C6.94358 27.7842 6.92386 28.0734 6.74643 28.2544L5.74592 29.2895H5.74427C5.71306 29.325 5.71306 29.3808 5.74427 29.4146L7.42658 31.1466C7.44465 31.1635 7.46765 31.1719 7.49065 31.1736C7.51365 31.1736 7.53665 31.1635 7.55308 31.1466L8.55359 30.1165H8.55524C8.72445 29.9423 8.98893 29.9153 9.18938 30.0523C9.62804 30.3499 10.0929 30.6036 10.5776 30.81C11.0491 31.0112 11.537 31.1652 12.0365 31.2734C12.283 31.3174 12.462 31.5389 12.4571 31.796V33.2556C12.4587 33.3047 12.4982 33.3453 12.5458 33.347H14.8968C14.9444 33.3453 14.9805 33.3047 14.9805 33.2556V31.796C14.9855 31.5457 15.1613 31.3343 15.4011 31.2903C16.4214 31.0772 17.3923 30.6662 18.2614 30.0776C18.4618 29.9203 18.7444 29.9406 18.9218 30.125L19.9272 31.155V31.1567C19.9617 31.1888 20.0143 31.1888 20.0488 31.1567L21.7311 29.4247C21.764 29.3892 21.764 29.3334 21.7311 29.2979L20.701 28.2814C20.5302 28.1089 20.5039 27.8349 20.637 27.6319C21.2087 26.7389 21.6112 25.7427 21.8231 24.6958C21.8658 24.4455 22.0778 24.2628 22.3242 24.2628H23.7289C23.7765 24.2628 23.8143 24.2239 23.8176 24.1766V21.7512C23.8143 21.7021 23.7765 21.6632 23.7289 21.6598H22.3242C22.0794 21.6582 21.8724 21.4755 21.8313 21.2269C21.7278 20.6992 21.5734 20.1833 21.373 19.6861C21.1758 19.1973 20.936 18.7271 20.6551 18.284C20.5006 18.0776 20.522 17.785 20.7011 17.604L21.7016 16.574V16.5723C21.7344 16.5368 21.7344 16.4793 21.7016 16.4438L20.0193 14.7119C19.9848 14.6781 19.9322 14.6781 19.8977 14.7119L18.8923 15.7419C18.723 15.9144 18.4602 15.9432 18.2614 15.8062C17.8227 15.5102 17.3578 15.2565 16.8732 15.0485L16.8896 15.0671ZM13.7238 17.1355C16.0025 17.1355 18.0578 18.5478 18.9318 20.7161C19.8058 22.8826 19.3277 25.3775 17.7194 27.0397C16.111 28.7023 13.6878 29.2046 11.5798 28.3133C9.47197 27.4203 8.09193 25.3095 8.08373 22.9638C8.07716 21.4197 8.66859 19.9364 9.72659 18.8421C10.7846 17.7495 12.2239 17.1355 13.7238 17.1355ZM23.6978 20.6011L22.7236 20.5994C22.556 19.9195 22.3162 19.2598 22.009 18.634H22.3112C24.1825 18.634 25.8631 17.4535 26.5431 15.6607C27.2249 13.8662 26.7682 11.8247 25.3914 10.5191C24.0163 9.21336 22.0038 8.91062 20.3214 9.75458C18.6407 10.5985 17.6336 12.4184 17.7864 14.3381C17.213 14.0523 16.6117 13.8273 15.994 13.6683V12.6282C15.9957 12.4996 15.9743 12.3694 15.9316 12.2476C16.0154 11.9161 16.1222 11.5897 16.2503 11.2734C16.4048 10.9064 16.5904 10.5529 16.8056 10.2214C16.9371 10.0151 16.9108 9.74276 16.7432 9.56688L15.953 8.7618L17.2607 7.4155L18.0509 8.24257C18.2284 8.42524 18.511 8.44553 18.7114 8.28993C19.403 7.82314 20.1735 7.49671 20.9818 7.32417C21.2233 7.28358 21.4007 7.06878 21.4024 6.81845V5.64469H23.2523V6.7965H23.2539C23.2523 7.05189 23.4297 7.27009 23.6745 7.31235C24.0688 7.39861 24.4565 7.52208 24.8311 7.67937C25.2171 7.84512 25.5868 8.04808 25.9367 8.28654C26.1355 8.42184 26.3984 8.39478 26.5676 8.22058L27.3627 7.40705L28.6705 8.75336L27.8802 9.56688C27.6995 9.74955 27.6798 10.0405 27.8342 10.2468C28.286 10.9622 28.6064 11.7588 28.7756 12.5944C28.8167 12.8413 29.0237 13.024 29.2685 13.0273H30.3873V14.9318H29.2636C29.0204 14.9385 28.8151 15.1229 28.7756 15.3698C28.6951 15.7774 28.5752 16.1766 28.4175 16.5605C28.2598 16.958 28.0643 17.3402 27.8343 17.6988C27.6995 17.9034 27.7258 18.1757 27.8967 18.3482L28.6869 19.1668L27.3792 20.5131L26.584 19.6996C26.4082 19.5152 26.1273 19.4949 25.9285 19.6522C25.5851 19.8789 25.2237 20.0751 24.8475 20.2358C24.4811 20.3931 24.1 20.5165 23.7123 20.6045L23.6978 20.6011ZM16.8193 0.881888C16.7224 0.778718 16.6714 0.64003 16.6764 0.497957C16.6829 0.354195 16.7454 0.220582 16.8505 0.127556C16.9556 0.0328418 17.092 -0.0111317 17.2316 0.00239893C17.3696 0.0159295 17.4962 0.0886572 17.5799 0.201977L19.3247 2.28062H19.3263C19.4232 2.38718 19.4742 2.53094 19.4627 2.67639C19.4528 2.82185 19.3822 2.95715 19.2704 3.04679L17.2513 4.84297H17.253C17.0427 5.03578 16.724 5.01548 16.5367 4.80068C16.351 4.58588 16.3708 4.25608 16.5794 4.06496L17.7311 3.04677C13.0324 2.82013 8.47501 4.73638 5.27484 8.28495C2.07286 11.8333 0.553021 16.6536 1.11836 21.4622C1.15122 21.7447 0.954075 22.0018 0.679699 22.0356C0.403695 22.0694 0.155618 21.8665 0.122771 21.5823C-0.476888 16.4727 1.13973 11.3497 4.54388 7.57803C7.94795 3.80808 12.791 1.77177 17.787 2.01208L16.8193 0.881888ZM17.1807 38.1181C17.2776 38.2213 17.3286 38.36 17.3236 38.502C17.3171 38.6458 17.2546 38.7794 17.1495 38.8724C17.0444 38.9672 16.908 39.0111 16.7684 38.9976C16.6304 38.9841 16.5038 38.9113 16.4201 38.798L14.6753 36.7194H14.6737C14.5768 36.6128 14.5258 36.4691 14.5373 36.3236C14.5472 36.1782 14.6178 36.0428 14.7296 35.9532L16.7487 34.157H16.747C16.9573 33.9642 17.276 33.9845 17.4633 34.1993C17.649 34.4141 17.6292 34.7439 17.4206 34.935L16.2689 35.9532C20.9676 36.1799 25.525 34.2636 28.7252 30.715C31.9271 27.1667 33.447 22.3464 32.8816 17.5378C32.8488 17.2553 33.0459 16.9982 33.3203 16.9644C33.5963 16.9306 33.8444 17.1335 33.8772 17.4177C34.4769 22.5273 32.8603 27.6503 29.4561 31.422C26.0521 35.1919 21.209 37.2282 16.213 36.9879L17.1807 38.1181Z" fill="white"/>
</svg>
