<svg width="26" height="36" viewBox="0 0 26 36" fill="none" xmlns="http://www.w3.org/2000/svg">
<path d="M18.8737 24.455V25.2793C19.7602 25.5236 20.4134 26.3338 20.4134 27.2914C20.4134 28.1677 19.8664 28.92 19.0938 29.2293C19.1559 29.4248 19.1886 29.6322 19.1886 29.8473C19.1886 30.7296 18.6362 31.4862 17.8565 31.7922C17.5297 34.1656 15.4751 36 12.9978 36C10.5227 36 8.46926 34.1656 8.14237 31.7922C7.36164 31.4873 6.80755 30.7306 6.80755 29.8473C6.80755 29.6317 6.84024 29.4237 6.90235 29.2282C6.13088 28.9184 5.58606 28.1666 5.58606 27.2914C5.58606 26.3344 6.2393 25.5236 7.12573 25.2793V24.455C2.77968 22.2636 0 17.7953 0 12.9251C0 5.79852 5.83178 0 12.9984 0C20.1671 0 26 5.79852 26 12.9251C26 17.7936 23.2198 22.263 18.8737 24.455ZM24.3704 12.9251C24.3704 6.69218 19.2693 1.61997 12.9984 1.61997C6.72964 1.61997 1.62956 6.69218 1.62956 12.9251C1.62956 17.3387 4.24035 21.3753 8.27966 23.2092C8.57005 23.3409 8.75529 23.6295 8.75529 23.9469V25.204H17.2447V23.9469C17.2447 23.6301 17.431 23.3419 17.7209 23.2103C21.7607 21.3743 24.3704 17.3376 24.3704 12.9251ZM21.0432 19.1146L18.883 21.26C18.6138 21.5275 18.1954 21.573 17.8734 21.3726L16.0799 20.2482C15.9829 20.2899 15.8865 20.3295 15.7884 20.3679L15.3209 22.4255C15.2376 22.7944 14.9074 23.0565 14.5271 23.0565H11.474C11.0931 23.0565 10.763 22.7944 10.6791 22.4255L10.2116 20.3679C10.1135 20.3306 10.0171 20.2899 9.92012 20.2482L8.12657 21.3726C7.80567 21.573 7.38561 21.5275 7.11647 21.26L4.95625 19.1146C4.68602 18.8471 4.63916 18.43 4.84292 18.1099L5.97398 16.3291C5.93202 16.2327 5.89116 16.1358 5.85248 16.0372L3.78597 15.573C3.41495 15.4902 3.15125 15.1619 3.15125 14.7828V11.7449C3.15125 11.3669 3.41495 11.0386 3.78597 10.9547L5.85248 10.4905C5.89116 10.3925 5.93202 10.295 5.97398 10.1997L4.84292 8.41776C4.63916 8.09767 4.68602 7.68009 4.95625 7.41307L7.11647 5.26774C7.38561 5.00126 7.80403 4.95469 8.12657 5.15617L9.92012 6.27947C10.0171 6.23777 10.1135 6.19769 10.2116 6.15978L10.6791 4.10327C10.7624 3.73335 11.0926 3.47229 11.474 3.47229H14.5271C14.9074 3.47229 15.2376 3.73389 15.3209 4.10327L15.7884 6.16086C15.8865 6.19823 15.9829 6.23777 16.0799 6.27947L17.8734 5.15617C18.1954 4.95469 18.6144 5.00126 18.883 5.26774L21.0432 7.41307C21.3134 7.68063 21.3603 8.09767 21.1565 8.41776L20.0255 10.1997C20.0674 10.295 20.1083 10.3919 20.147 10.4905L22.2135 10.9547C22.5856 11.0386 22.8482 11.3669 22.8482 11.7449V14.7828C22.8482 15.1619 22.5851 15.4902 22.2135 15.573L20.147 16.0372C20.1083 16.1352 20.0674 16.2327 20.0255 16.3291L21.1565 18.1099C21.3603 18.4295 21.3134 18.8471 21.0432 19.1146ZM18.2178 13.2641C18.2178 10.4044 15.8772 8.07763 12.9984 8.07763C10.1217 8.07763 7.78224 10.4044 7.78224 13.2641C7.78224 16.1228 10.1217 18.4495 12.9984 18.4495C15.8772 18.4501 18.2178 16.1228 18.2178 13.2641ZM15.3449 11.239C14.9842 10.972 14.4737 11.0468 14.2051 11.4053L12.3473 13.8875L11.5873 13.2874C11.2353 13.009 10.7226 13.0675 10.4426 13.4179C10.1631 13.7678 10.2214 14.2775 10.5739 14.5559L11.9921 15.6759C12.137 15.7902 12.3157 15.8514 12.4988 15.8514C12.5336 15.8514 12.569 15.8493 12.6045 15.8444C12.8229 15.8162 13.0207 15.7008 13.1526 15.5248L15.5127 12.3721C15.7808 12.013 15.7061 11.506 15.3449 11.239Z" fill="white"/>
</svg>
