<svg width="528" height="169" viewBox="0 0 528 169" fill="none" xmlns="http://www.w3.org/2000/svg">
<g clip-path="url(#clip0_941_5600)">
<path d="M72.4805 59.4898V2.56741H80.0709C82.9625 2.56741 85.0674 3.27894 86.3856 4.702C87.7251 6.12506 88.4161 8.48496 88.4587 11.7817C88.5012 14.1535 88.5225 16.2288 88.5225 18.0076C88.5225 19.7864 88.5012 21.4941 88.4587 23.1306C88.3736 25.1229 88.0334 26.6764 87.4381 27.7911C86.8428 28.9059 85.9073 29.7241 84.6316 30.2459V31.5622C85.9498 32.0366 86.9066 32.843 87.5019 33.9814C88.1185 35.1199 88.4587 36.6852 88.5225 38.6775C88.565 40.7647 88.5862 42.6977 88.5862 44.4765C88.5862 46.2553 88.565 48.1883 88.5225 50.2755C88.4161 53.5485 87.7039 55.9084 86.3856 57.3552C85.0887 58.7782 82.9838 59.4898 80.0709 59.4898H72.4805ZM76.6903 55.2206H80.0709C81.4954 55.2206 82.5373 54.8174 83.1964 54.011C83.8768 53.2046 84.2382 51.9476 84.2807 50.2399C84.3445 48.2239 84.3764 46.3265 84.3764 44.5476C84.3764 42.7688 84.3445 40.8714 84.2807 38.8554C84.2382 36.7445 83.8661 35.2385 83.1645 34.3372C82.4841 33.4122 81.3785 32.9497 79.8477 32.9497H76.6903V55.2206ZM76.6903 28.7161H80.0071C81.4317 28.7161 82.4841 28.2536 83.1645 27.3286C83.8449 26.4036 84.1957 24.9806 84.217 23.0595C84.302 21.0197 84.3445 19.0986 84.3445 17.2961C84.3445 15.4935 84.302 13.5843 84.217 11.5683C84.1957 9.93174 83.8449 8.734 83.1645 7.97503C82.4841 7.21607 81.4529 6.83658 80.0709 6.83658H76.6903V28.7161ZM94.5936 59.4898V2.56741H102.343C105.235 2.56741 107.329 3.27894 108.626 4.702C109.923 6.12506 110.636 8.48496 110.763 11.7817C110.827 13.8926 110.869 15.8967 110.891 17.7941C110.912 19.6678 110.912 21.4941 110.891 23.2729C110.869 25.028 110.827 26.7831 110.763 28.5382C110.699 30.8388 110.338 32.677 109.679 34.0526C109.02 35.4045 107.999 36.3651 106.617 36.9343L111.752 59.4898H107.223L102.535 37.7525H98.8034V59.4898H94.5936ZM98.8034 33.4834H102.312C103.757 33.4834 104.799 33.1039 105.437 32.3449C106.096 31.586 106.458 30.3882 106.521 28.7517C106.585 26.878 106.628 24.9806 106.649 23.0595C106.67 21.1146 106.67 19.1816 106.649 17.2605C106.628 15.3394 106.585 13.4419 106.521 11.5683C106.458 9.93174 106.107 8.734 105.469 7.97503C104.831 7.21607 103.789 6.83658 102.343 6.83658H98.8034V33.4834ZM127.324 34.3372V30.068H143.749V34.3372H127.324ZM159.827 59.4898L165.281 2.56741H173.19L178.612 59.4898H174.307L172.967 42.9823H165.472L164.165 59.4898H159.827ZM165.887 38.7131H172.553L171.564 26.2613L170.129 6.83658H168.343L166.908 26.2969L165.887 38.7131ZM190.986 60.0234C188.073 60.0234 185.979 59.3 184.704 57.8532C183.449 56.3828 182.79 53.9873 182.726 50.6668C182.662 47.3226 182.62 44.0259 182.599 40.7765C182.577 37.5272 182.567 34.2898 182.567 31.0642C182.567 27.8386 182.577 24.6011 182.599 21.3518C182.62 18.0788 182.662 14.7701 182.726 11.426C182.769 8.34266 183.428 6.03018 184.704 4.48854C186 2.92317 188.073 2.14049 190.923 2.14049C193.835 2.14049 195.94 2.86388 197.237 4.31066C198.534 5.73371 199.236 8.11734 199.342 11.4615C199.363 12.3628 199.374 13.5012 199.374 14.8769C199.374 16.2288 199.363 17.5925 199.342 18.9682C199.321 20.3201 199.3 21.4467 199.278 22.3479H195.069C195.09 21.1383 195.1 19.8694 195.1 18.5412C195.122 17.2131 195.132 15.8849 195.132 14.5567C195.132 13.2048 195.122 11.9359 195.1 10.75C195.079 9.06604 194.739 7.88016 194.08 7.19235C193.442 6.48082 192.39 6.12506 190.923 6.12506C189.562 6.12506 188.573 6.48082 187.957 7.19235C187.34 7.88016 187.01 9.06604 186.968 10.75C186.904 14.2602 186.851 17.6993 186.808 21.0672C186.787 24.4114 186.777 27.7437 186.777 31.0642C186.777 34.3609 186.787 37.6932 186.808 41.0611C186.851 44.4053 186.904 47.8444 186.968 51.3783C187.01 53.0148 187.34 54.2007 187.957 54.936C188.594 55.6475 189.604 56.0033 190.986 56.0033C192.517 56.0033 193.623 55.6475 194.303 54.936C194.984 54.2007 195.334 53.0148 195.356 51.3783C195.377 50.0739 195.388 48.7101 195.388 47.287C195.388 45.864 195.377 44.4409 195.356 43.0179C195.334 41.5948 195.313 40.2429 195.292 38.9621H199.534C199.597 40.9781 199.629 42.9348 199.629 44.8323C199.65 46.706 199.64 48.6508 199.597 50.6668C199.491 53.9873 198.768 56.3828 197.429 57.8532C196.11 59.3 193.963 60.0234 190.986 60.0234ZM206.334 59.4898L216.89 6.83658H204.069V2.56741H221.196V6.69428L210.671 59.4898H206.334ZM236.954 34.3372V30.068H253.379V34.3372H236.954ZM272.063 59.4898C272.041 58.6834 272.02 57.9955 271.999 57.4263C271.999 56.8571 271.988 56.3353 271.967 55.861C271.967 55.3629 271.967 54.8292 271.967 54.26C271.967 53.6671 271.967 52.9555 271.967 52.1254C271.967 51.2953 271.978 50.228 271.999 48.9235C272.041 45.6268 272.36 42.923 272.956 40.8121C273.551 38.6775 274.338 36.9224 275.316 35.5468C276.315 34.1712 277.442 32.9853 278.696 31.9892L281.471 29.57C282.789 28.3129 283.64 27.0203 284.022 25.6921C284.405 24.3402 284.628 22.9171 284.692 21.4229C284.777 19.6441 284.82 17.8653 284.82 16.0865C284.82 14.2839 284.777 12.4932 284.692 10.7144C284.628 9.10162 284.256 7.9276 283.576 7.19235C282.917 6.4571 281.822 6.08948 280.291 6.08948C278.866 6.08948 277.825 6.4571 277.166 7.19235C276.528 7.9276 276.187 9.10162 276.145 10.7144C276.124 12.6355 276.113 14.5685 276.113 16.5134C276.113 18.4345 276.145 20.3675 276.209 22.3123H272.031C272.01 21.0079 271.978 19.7153 271.935 18.4345C271.914 17.13 271.903 15.8849 271.903 14.699C271.903 13.5131 271.914 12.4221 271.935 11.426C272.041 8.08176 272.743 5.68628 274.04 4.2395C275.358 2.79273 277.463 2.06934 280.355 2.06934C282.396 2.06934 284.022 2.38953 285.234 3.0299C286.468 3.64656 287.371 4.6427 287.945 6.01833C288.519 7.37023 288.849 9.14906 288.934 11.3548C288.955 12.0663 288.976 12.8727 288.998 13.774C289.019 14.6515 289.03 15.5647 289.03 16.5134C289.03 17.4384 289.03 18.3278 289.03 19.1816C289.03 20.0355 289.008 20.7707 288.966 21.3874C288.881 23.5694 288.594 25.4194 288.105 26.9373C287.637 28.4315 286.967 29.7478 286.095 30.8863C285.224 32.001 284.139 33.1157 282.842 34.2305L279.908 36.6141C279.079 37.3731 278.399 38.3929 277.867 39.6737C277.357 40.9307 276.964 42.3538 276.687 43.9428C276.432 45.5082 276.304 47.1684 276.304 48.9235V55.2206H288.87V59.4898H272.063ZM303.472 59.9878C300.474 59.9878 298.294 59.2644 296.934 57.8177C295.594 56.3472 294.871 53.9398 294.765 50.5956C294.722 48.6982 294.701 46.872 294.701 45.1169C294.701 43.3618 294.733 41.5948 294.797 39.816H299.007C298.964 41.0256 298.932 42.2826 298.911 43.5871C298.911 44.8915 298.911 46.1842 298.911 47.4649C298.932 48.722 298.964 49.9315 299.007 51.0937C299.092 52.7777 299.464 54.011 300.123 54.7937C300.803 55.5526 301.877 55.9321 303.344 55.9321C304.811 55.9321 305.864 55.5526 306.501 54.7937C307.139 54.011 307.499 52.7777 307.586 51.0937C307.735 48.0816 307.809 45.188 307.809 42.4131C307.83 39.6381 307.777 36.709 307.65 33.6257C307.607 32.0129 307.277 30.8388 306.661 30.1036C306.044 29.3683 305.087 29.0007 303.791 29.0007C302.876 29.0007 302.1 29.1905 301.462 29.57C300.825 29.9494 300.325 30.4949 299.963 31.2065C299.602 31.918 299.411 32.7718 299.389 33.768H295.339V2.56741H311.572V6.83658H299.547V27.8979H300.506C300.888 27.0677 301.505 26.3681 302.355 25.7988C303.227 25.2296 304.248 24.945 305.417 24.945C307.564 24.945 309.148 25.6684 310.169 27.1152C311.211 28.5619 311.785 30.7084 311.891 33.5545C311.955 35.6417 311.987 37.6458 311.987 39.5669C312.008 41.4643 311.998 43.3143 311.955 45.1169C311.934 46.9194 311.891 48.7457 311.827 50.5956C311.7 52.8251 311.338 54.6276 310.743 56.0033C310.148 57.3789 309.255 58.3869 308.064 59.0273C306.895 59.6676 305.364 59.9878 303.472 59.9878ZM329.269 34.3372V30.068H345.694V34.3372H329.269ZM372.67 59.9878C369.991 59.9878 367.928 59.1933 366.483 57.6042C365.037 55.9914 364.303 53.7027 364.282 50.7379C364.239 46.5162 364.208 42.1759 364.186 37.717C364.165 33.258 364.165 28.7991 364.186 24.3402C364.208 19.8813 364.239 15.541 364.282 11.3192C364.303 8.3308 365.037 6.04204 366.483 4.45296C367.928 2.86388 369.991 2.06934 372.67 2.06934C375.327 2.06934 377.379 2.86388 378.825 4.45296C380.271 6.04204 381.015 8.3308 381.057 11.3192C381.1 14.4974 381.132 17.7467 381.153 21.0672C381.196 24.3876 381.217 27.72 381.217 31.0642C381.217 34.4083 381.196 37.7407 381.153 41.0611C381.132 44.3579 381.1 47.5835 381.057 50.7379C381.015 53.7027 380.271 55.9914 378.825 57.6042C377.379 59.1933 375.327 59.9878 372.67 59.9878ZM372.67 55.9321C375.37 55.9321 376.752 54.4379 376.816 51.4495C376.922 46.4925 376.986 41.6185 377.007 36.8276C377.028 32.0129 377.028 27.3879 377.007 22.9527C376.986 18.5175 376.922 14.4025 376.816 10.6077C376.752 7.59555 375.37 6.08948 372.67 6.08948C369.969 6.08948 368.587 7.59555 368.524 10.6077C368.46 14.2365 368.417 17.8534 368.396 21.4585C368.375 25.0399 368.364 28.5738 368.364 32.0603C368.364 35.5468 368.375 38.9147 368.396 42.164C368.417 45.4133 368.46 48.5085 368.524 51.4495C368.587 54.4379 369.969 55.9321 372.67 55.9321ZM396.401 59.9878C393.722 59.9878 391.66 59.1933 390.214 57.6042C388.768 55.9914 388.035 53.7027 388.014 50.7379C387.971 46.5162 387.939 42.1759 387.918 37.717C387.897 33.258 387.897 28.7991 387.918 24.3402C387.939 19.8813 387.971 15.541 388.014 11.3192C388.035 8.3308 388.768 6.04204 390.214 4.45296C391.66 2.86388 393.722 2.06934 396.401 2.06934C399.059 2.06934 401.111 2.86388 402.557 4.45296C404.002 6.04204 404.747 8.3308 404.789 11.3192C404.832 14.4974 404.864 17.7467 404.885 21.0672C404.927 24.3876 404.949 27.72 404.949 31.0642C404.949 34.4083 404.927 37.7407 404.885 41.0611C404.864 44.3579 404.832 47.5835 404.789 50.7379C404.747 53.7027 404.002 55.9914 402.557 57.6042C401.111 59.1933 399.059 59.9878 396.401 59.9878ZM396.401 55.9321C399.102 55.9321 400.484 54.4379 400.547 51.4495C400.654 46.4925 400.717 41.6185 400.739 36.8276C400.76 32.0129 400.76 27.3879 400.739 22.9527C400.717 18.5175 400.654 14.4025 400.547 10.6077C400.484 7.59555 399.102 6.08948 396.401 6.08948C393.701 6.08948 392.319 7.59555 392.255 10.6077C392.192 14.2365 392.149 17.8534 392.128 21.4585C392.107 25.0399 392.096 28.5738 392.096 32.0603C392.096 35.5468 392.107 38.9147 392.128 42.164C392.149 45.4133 392.192 48.5085 392.255 51.4495C392.319 54.4379 393.701 55.9321 396.401 55.9321ZM420.135 59.9878C417.456 59.9878 415.393 59.1933 413.948 57.6042C412.502 55.9914 411.768 53.7027 411.747 50.7379C411.705 46.5162 411.673 42.1759 411.651 37.717C411.63 33.258 411.63 28.7991 411.651 24.3402C411.673 19.8813 411.705 15.541 411.747 11.3192C411.768 8.3308 412.502 6.04204 413.948 4.45296C415.393 2.86388 417.456 2.06934 420.135 2.06934C422.793 2.06934 424.844 2.86388 426.29 4.45296C427.736 6.04204 428.48 8.3308 428.523 11.3192C428.565 14.4974 428.597 17.7467 428.618 21.0672C428.661 24.3876 428.682 27.72 428.682 31.0642C428.682 34.4083 428.661 37.7407 428.618 41.0611C428.597 44.3579 428.565 47.5835 428.523 50.7379C428.48 53.7027 427.736 55.9914 426.29 57.6042C424.844 59.1933 422.793 59.9878 420.135 59.9878ZM420.135 55.9321C422.835 55.9321 424.217 54.4379 424.281 51.4495C424.387 46.4925 424.451 41.6185 424.472 36.8276C424.493 32.0129 424.493 27.3879 424.472 22.9527C424.451 18.5175 424.387 14.4025 424.281 10.6077C424.217 7.59555 422.835 6.08948 420.135 6.08948C417.435 6.08948 416.053 7.59555 415.989 10.6077C415.925 14.2365 415.882 17.8534 415.861 21.4585C415.84 25.0399 415.829 28.5738 415.829 32.0603C415.829 35.5468 415.84 38.9147 415.861 42.164C415.882 45.4133 415.925 48.5085 415.989 51.4495C416.053 54.4379 417.435 55.9321 420.135 55.9321ZM443.866 59.9878C441.187 59.9878 439.125 59.1933 437.679 57.6042C436.233 55.9914 435.5 53.7027 435.479 50.7379C435.436 46.5162 435.404 42.1759 435.383 37.717C435.362 33.258 435.362 28.7991 435.383 24.3402C435.404 19.8813 435.436 15.541 435.479 11.3192C435.5 8.3308 436.233 6.04204 437.679 4.45296C439.125 2.86388 441.187 2.06934 443.866 2.06934C446.524 2.06934 448.576 2.86388 450.022 4.45296C451.468 6.04204 452.212 8.3308 452.254 11.3192C452.297 14.4974 452.329 17.7467 452.35 21.0672C452.392 24.3876 452.414 27.72 452.414 31.0642C452.414 34.4083 452.392 37.7407 452.35 41.0611C452.329 44.3579 452.297 47.5835 452.254 50.7379C452.212 53.7027 451.468 55.9914 450.022 57.6042C448.576 59.1933 446.524 59.9878 443.866 59.9878ZM443.866 55.9321C446.567 55.9321 447.949 54.4379 448.012 51.4495C448.119 46.4925 448.183 41.6185 448.204 36.8276C448.225 32.0129 448.225 27.3879 448.204 22.9527C448.183 18.5175 448.119 14.4025 448.012 10.6077C447.949 7.59555 446.567 6.08948 443.866 6.08948C441.166 6.08948 439.784 7.59555 439.72 10.6077C439.657 14.2365 439.614 17.8534 439.593 21.4585C439.572 25.0399 439.561 28.5738 439.561 32.0603C439.561 35.5468 439.572 38.9147 439.593 42.164C439.614 45.4133 439.657 48.5085 439.72 51.4495C439.784 54.4379 441.166 55.9321 443.866 55.9321ZM460.839 59.4898V7.76157H458.67L458.479 5.84044L461.668 2.56741H465.08V59.4898H460.839Z" fill="black"/>
<path d="M47.8398 95.0663C47.8398 96.1579 48.6331 97.0428 49.6117 97.0428H65.558C66.5365 97.0428 67.3298 96.1579 67.3298 95.0663C67.3298 93.9747 66.5365 93.0898 65.558 93.0898H51.3835V77.2781C51.3835 76.1864 50.5902 75.3016 49.6117 75.3016C48.6331 75.3016 47.8398 76.1864 47.8398 77.2781V95.0663ZM72.6452 69.3722L71.3924 67.9746L48.3588 93.6687L49.6117 95.0663L50.8645 96.4639L73.8981 70.7697L72.6452 69.3722Z" fill="#004857"/>
<path d="M182.929 96.3606C183.57 97.1856 184.69 97.2747 185.429 96.5598L197.479 84.9097C198.218 84.1948 198.299 82.9467 197.658 82.1217C197.017 81.2967 195.899 81.2076 195.158 81.9225L184.447 92.2782L175.164 80.3294C174.523 79.5045 173.404 79.4153 172.664 80.1302C171.925 80.8451 171.845 82.0934 172.486 82.9182L182.929 96.3606ZM186.04 67.3956L184.274 67.2549L182.502 94.9255L184.268 95.0662L186.035 95.2069L187.807 67.5363L186.04 67.3956Z" fill="#004857"/>
<path d="M297.105 92.9885C298.033 93.3336 299.036 92.7741 299.346 91.7384L304.389 74.8631C304.697 73.8274 304.196 72.7081 303.267 72.363C302.339 72.0178 301.336 72.5775 301.026 73.613L296.545 88.6134L283.097 83.6133C282.168 83.268 281.166 83.8278 280.856 84.8632C280.547 85.8989 281.049 87.0182 281.977 87.3633L297.105 92.9885ZM288.806 71.3487L287.222 72.2326L296.081 91.9973L297.665 91.1134L299.249 90.2295L290.39 70.4648L288.806 71.3487Z" fill="#004857"/>
<path d="M278.759 126.689L281.032 102.972H284.328L286.587 126.689H284.792L284.234 119.811H281.112L280.566 126.689H278.759ZM281.284 118.032H284.062L283.649 112.844L283.052 104.751H282.308L281.709 112.859L281.284 118.032ZM288.63 126.689V108.901H290.396V110.487H290.782C291.03 109.914 291.332 109.474 291.686 109.168C292.049 108.852 292.528 108.694 293.121 108.694C293.954 108.694 294.578 108.965 294.994 109.509C295.41 110.052 295.623 110.957 295.632 112.222V126.689H293.878V112.088C293.869 111.426 293.754 110.952 293.532 110.665C293.32 110.379 292.974 110.235 292.496 110.235C292.035 110.235 291.615 110.393 291.234 110.71C290.853 111.016 290.573 111.461 290.396 112.044V126.689H288.63ZM301.748 126.897C300.924 126.897 300.263 126.768 299.767 126.511C299.271 126.245 298.908 125.83 298.678 125.266C298.456 124.703 298.328 123.962 298.293 123.043C298.266 122.242 298.243 121.402 298.226 120.523C298.217 119.633 298.213 118.734 298.213 117.825C298.213 116.906 298.217 116.002 298.226 115.112C298.243 114.223 298.266 113.368 298.293 112.548C298.328 111.629 298.456 110.887 298.678 110.324C298.908 109.761 299.271 109.351 299.767 109.094C300.263 108.827 300.924 108.694 301.748 108.694C302.581 108.694 303.24 108.827 303.727 109.094C304.214 109.351 304.569 109.761 304.79 110.324C305.021 110.887 305.153 111.629 305.189 112.548C305.207 113.348 305.221 114.193 305.23 115.083C305.247 115.972 305.256 116.871 305.256 117.78C305.256 118.69 305.247 119.594 305.23 120.493C305.221 121.383 305.207 122.232 305.189 123.043C305.153 123.952 305.021 124.693 304.79 125.266C304.569 125.83 304.214 126.245 303.727 126.511C303.24 126.768 302.581 126.897 301.748 126.897ZM301.748 125.326C302.333 125.326 302.753 125.187 303.01 124.91C303.266 124.634 303.405 124.15 303.422 123.458C303.449 122.4 303.47 121.412 303.488 120.493C303.506 119.574 303.515 118.675 303.515 117.795C303.515 116.916 303.506 116.016 303.488 115.097C303.47 114.178 303.449 113.195 303.422 112.147C303.405 111.446 303.272 110.957 303.024 110.68C302.776 110.403 302.35 110.265 301.748 110.265C301.146 110.265 300.715 110.403 300.458 110.68C300.201 110.957 300.065 111.446 300.047 112.147C300.021 113.195 299.998 114.178 299.98 115.097C299.971 116.016 299.967 116.921 299.967 117.81C299.967 118.69 299.971 119.589 299.98 120.508C299.998 121.427 300.021 122.41 300.047 123.458C300.065 124.15 300.201 124.634 300.458 124.91C300.724 125.187 301.154 125.326 301.748 125.326ZM315.754 126.897C314.913 126.897 314.287 126.62 313.88 126.067C313.472 125.513 313.251 124.614 313.215 123.369C313.197 122.519 313.185 121.639 313.176 120.73C313.167 119.811 313.162 118.877 313.162 117.929C313.162 116.98 313.167 116.026 313.176 115.068C313.185 114.109 313.197 113.16 313.215 112.222C313.251 110.957 313.477 110.052 313.894 109.509C314.319 108.965 314.948 108.694 315.781 108.694C316.392 108.694 316.865 108.842 317.202 109.138C317.547 109.425 317.854 109.875 318.12 110.487H318.439V102.972H320.193V126.689H318.439V125.103H318.093C317.836 125.676 317.535 126.121 317.189 126.437C316.844 126.744 316.366 126.897 315.754 126.897ZM316.339 125.355C316.835 125.355 317.264 125.212 317.627 124.925C317.99 124.629 318.261 124.169 318.439 123.547V112.044C318.261 111.411 317.99 110.952 317.627 110.665C317.273 110.379 316.847 110.235 316.351 110.235C315.882 110.235 315.542 110.379 315.329 110.665C315.116 110.952 315.001 111.426 314.983 112.088C314.948 113.442 314.925 114.771 314.916 116.076C314.907 117.38 314.907 118.65 314.916 119.885C314.925 121.121 314.948 122.326 314.983 123.502C315.001 124.155 315.111 124.629 315.315 124.925C315.519 125.212 315.861 125.355 316.339 125.355ZM325.251 126.882C324.392 126.882 323.757 126.6 323.35 126.037C322.942 125.474 322.7 124.634 322.62 123.517C322.611 123.27 322.602 123.018 322.593 122.761C322.585 122.504 322.585 122.257 322.593 122.02C322.638 121.328 322.744 120.701 322.912 120.137C323.081 119.574 323.35 119.06 323.722 118.596C324.103 118.131 324.622 117.687 325.278 117.262C325.659 117.015 326.052 116.777 326.46 116.55C326.867 116.323 327.275 116.11 327.682 115.913V112.133C327.682 111.48 327.572 111.006 327.351 110.71C327.129 110.413 326.731 110.265 326.155 110.265C325.65 110.265 325.272 110.393 325.024 110.65C324.776 110.907 324.64 111.387 324.613 112.088C324.604 112.315 324.596 112.602 324.587 112.948C324.587 113.284 324.587 113.635 324.587 114C324.596 114.356 324.604 114.677 324.613 114.964H322.898C322.889 114.569 322.88 114.119 322.872 113.615C322.863 113.111 322.863 112.661 322.872 112.266C322.898 111.426 323.028 110.744 323.258 110.22C323.488 109.697 323.843 109.316 324.321 109.079C324.799 108.832 325.428 108.708 326.208 108.708C327.023 108.708 327.661 108.842 328.121 109.109C328.591 109.366 328.922 109.776 329.117 110.339C329.321 110.892 329.424 111.619 329.424 112.518V126.689H327.67V125.088H327.377C327.182 125.652 326.926 126.091 326.607 126.408C326.288 126.724 325.836 126.882 325.251 126.882ZM325.836 125.355C326.288 125.355 326.663 125.212 326.964 124.925C327.275 124.629 327.514 124.199 327.682 123.636V117.543C327.372 117.682 327.053 117.845 326.725 118.032C326.406 118.22 326.048 118.482 325.65 118.818C325.145 119.233 324.808 119.703 324.64 120.226C324.472 120.74 324.374 121.338 324.348 122.02C324.339 122.198 324.333 122.41 324.333 122.657C324.342 122.904 324.351 123.151 324.36 123.399C324.404 124.021 324.555 124.505 324.812 124.851C325.069 125.187 325.411 125.355 325.836 125.355ZM341.003 131.507C339.886 131.507 339 131.309 338.345 130.914C337.689 130.529 337.331 129.891 337.269 129.002C337.269 128.923 337.26 128.824 337.243 128.705C337.234 128.597 337.234 128.478 337.243 128.35C337.269 127.786 337.438 127.347 337.748 127.03C338.067 126.714 338.439 126.521 338.864 126.452V126.052C338.474 125.914 338.173 125.721 337.96 125.474C337.757 125.227 337.641 124.915 337.615 124.54C337.615 124.451 337.615 124.367 337.615 124.288C337.615 124.209 337.615 124.125 337.615 124.036C337.633 123.631 337.765 123.29 338.013 123.013C338.262 122.736 338.554 122.573 338.891 122.524V122.124C338.43 121.867 338.084 121.476 337.854 120.953C337.633 120.429 337.503 119.757 337.468 118.937C337.45 118.294 337.438 117.721 337.429 117.217C337.42 116.703 337.415 116.209 337.415 115.735C337.415 115.26 337.42 114.751 337.429 114.208C337.438 113.664 337.45 113.042 337.468 112.34C337.503 111.48 337.641 110.784 337.881 110.25C338.12 109.707 338.483 109.316 338.97 109.079C339.466 108.832 340.113 108.708 340.91 108.708C341.77 108.708 342.443 108.847 342.93 109.123C343.426 109.39 343.79 109.825 344.02 110.428H344.365C344.401 109.914 344.551 109.534 344.817 109.287C345.092 109.03 345.468 108.901 345.946 108.901V110.472H345.521C345.184 110.472 344.918 110.64 344.723 110.976C344.528 111.312 344.427 111.826 344.419 112.518L344.392 114.178C344.401 114.603 344.404 115.003 344.404 115.379C344.404 115.755 344.404 116.125 344.404 116.491C344.404 116.847 344.401 117.222 344.392 117.617C344.392 118.013 344.383 118.452 344.365 118.937C344.321 119.796 344.179 120.493 343.94 121.027C343.701 121.56 343.332 121.951 342.836 122.198C342.349 122.435 341.708 122.554 340.91 122.554C340.246 122.534 339.762 122.623 339.461 122.82C339.169 123.008 339.023 123.31 339.023 123.725V123.903C339.032 124.159 339.098 124.362 339.222 124.51C339.355 124.659 339.567 124.772 339.86 124.851C340.152 124.92 340.551 124.97 341.056 124.999C342.278 125.039 343.214 125.261 343.86 125.667C344.507 126.072 344.865 126.798 344.936 127.846C344.945 127.974 344.95 128.103 344.95 128.231C344.95 128.359 344.945 128.493 344.936 128.631C344.892 129.362 344.702 129.936 344.365 130.351C344.029 130.776 343.572 131.072 342.996 131.24C342.42 131.418 341.756 131.507 341.003 131.507ZM341.029 129.98C341.481 129.98 341.876 129.941 342.213 129.862C342.549 129.783 342.815 129.639 343.01 129.432C343.214 129.224 343.329 128.928 343.355 128.542C343.364 128.424 343.364 128.31 343.355 128.201C343.355 128.103 343.35 127.999 343.341 127.89C343.315 127.495 343.205 127.203 343.01 127.015C342.824 126.838 342.562 126.714 342.225 126.645C341.888 126.576 341.495 126.531 341.043 126.511C340.37 126.462 339.842 126.536 339.461 126.734C339.08 126.931 338.873 127.327 338.837 127.92C338.829 128.018 338.823 128.122 338.823 128.231C338.823 128.34 338.829 128.443 338.837 128.542C338.864 128.947 338.965 129.254 339.142 129.461C339.328 129.669 339.582 129.807 339.9 129.876C340.219 129.946 340.595 129.98 341.029 129.98ZM340.91 120.982C341.513 120.982 341.942 120.849 342.199 120.582C342.455 120.305 342.597 119.821 342.624 119.129C342.641 118.606 342.656 118.057 342.664 117.484C342.682 116.911 342.691 116.323 342.691 115.72C342.691 115.107 342.682 114.499 342.664 113.897C342.656 113.294 342.641 112.706 342.624 112.133C342.597 111.431 342.455 110.947 342.199 110.68C341.942 110.403 341.513 110.265 340.91 110.265C340.308 110.265 339.874 110.403 339.608 110.68C339.351 110.947 339.213 111.431 339.195 112.133C339.178 112.735 339.165 113.343 339.156 113.956C339.147 114.569 339.142 115.171 339.142 115.764C339.142 116.347 339.147 116.921 339.156 117.484C339.165 118.047 339.178 118.591 339.195 119.115C339.222 119.806 339.364 120.291 339.621 120.567C339.877 120.844 340.308 120.982 340.91 120.982ZM347.415 126.689V108.901H349.183V110.591H349.555C349.706 109.939 349.94 109.489 350.258 109.242C350.586 108.985 351.026 108.857 351.575 108.857C351.717 108.857 351.862 108.862 352.013 108.871C352.172 108.881 352.305 108.886 352.411 108.886V110.472H351.587C350.843 110.472 350.29 110.626 349.927 110.932C349.573 111.238 349.325 111.737 349.183 112.429V126.689H347.415ZM355.721 126.882C354.862 126.882 354.227 126.6 353.82 126.037C353.412 125.474 353.17 124.634 353.09 123.517C353.081 123.27 353.072 123.018 353.063 122.761C353.054 122.504 353.054 122.257 353.063 122.02C353.108 121.328 353.214 120.701 353.382 120.137C353.551 119.574 353.82 119.06 354.192 118.596C354.573 118.131 355.092 117.687 355.748 117.262C356.129 117.015 356.522 116.777 356.929 116.55C357.337 116.323 357.744 116.11 358.152 115.913V112.133C358.152 111.48 358.042 111.006 357.821 110.71C357.599 110.413 357.2 110.265 356.625 110.265C356.12 110.265 355.742 110.393 355.494 110.65C355.246 110.907 355.11 111.387 355.083 112.088C355.074 112.315 355.065 112.602 355.057 112.948C355.057 113.284 355.057 113.635 355.057 114C355.065 114.356 355.074 114.677 355.083 114.964H353.368C353.359 114.569 353.35 114.119 353.341 113.615C353.333 113.111 353.333 112.661 353.341 112.266C353.368 111.426 353.497 110.744 353.728 110.22C353.958 109.697 354.312 109.316 354.791 109.079C355.269 108.832 355.898 108.708 356.678 108.708C357.493 108.708 358.131 108.842 358.591 109.109C359.061 109.366 359.392 109.776 359.587 110.339C359.791 110.892 359.894 111.619 359.894 112.518V126.689H358.14V125.088H357.847C357.652 125.652 357.395 126.091 357.076 126.408C356.757 126.724 356.306 126.882 355.721 126.882ZM356.306 125.355C356.757 125.355 357.133 125.212 357.434 124.925C357.744 124.629 357.984 124.199 358.152 123.636V117.543C357.842 117.682 357.523 117.845 357.195 118.032C356.876 118.22 356.518 118.482 356.12 118.818C355.615 119.233 355.278 119.703 355.11 120.226C354.941 120.74 354.844 121.338 354.817 122.02C354.809 122.198 354.803 122.41 354.803 122.657C354.812 122.904 354.821 123.151 354.83 123.399C354.874 124.021 355.025 124.505 355.282 124.851C355.538 125.187 355.88 125.355 356.306 125.355ZM363.659 126.689L361.745 108.901H363.565L364.336 117.869L364.934 125.148H365.718L366.316 117.869L367.153 108.901H368.974L366.981 126.689H363.659ZM372.955 126.882C372.096 126.882 371.462 126.6 371.054 126.037C370.647 125.474 370.404 124.634 370.324 123.517C370.315 123.27 370.307 123.018 370.298 122.761C370.289 122.504 370.289 122.257 370.298 122.02C370.342 121.328 370.448 120.701 370.617 120.137C370.785 119.574 371.054 119.06 371.426 118.596C371.807 118.131 372.326 117.687 372.982 117.262C373.363 117.015 373.756 116.777 374.164 116.55C374.571 116.323 374.979 116.11 375.386 115.913V112.133C375.386 111.48 375.276 111.006 375.055 110.71C374.834 110.413 374.435 110.265 373.859 110.265C373.354 110.265 372.977 110.393 372.729 110.65C372.481 110.907 372.344 111.387 372.318 112.088C372.309 112.315 372.3 112.602 372.291 112.948C372.291 113.284 372.291 113.635 372.291 114C372.3 114.356 372.309 114.677 372.318 114.964H370.602C370.594 114.569 370.585 114.119 370.576 113.615C370.567 113.111 370.567 112.661 370.576 112.266C370.602 111.426 370.732 110.744 370.962 110.22C371.192 109.697 371.547 109.316 372.025 109.079C372.504 108.832 373.133 108.708 373.912 108.708C374.727 108.708 375.365 108.842 375.826 109.109C376.295 109.366 376.627 109.776 376.821 110.339C377.025 110.892 377.128 111.619 377.128 112.518V126.689H375.374V125.088H375.082C374.887 125.652 374.63 126.091 374.311 126.408C373.992 126.724 373.54 126.882 372.955 126.882ZM373.54 125.355C373.992 125.355 374.368 125.212 374.669 124.925C374.979 124.629 375.218 124.199 375.386 123.636V117.543C375.076 117.682 374.757 117.845 374.43 118.032C374.111 118.22 373.753 118.482 373.354 118.818C372.849 119.233 372.512 119.703 372.344 120.226C372.176 120.74 372.078 121.338 372.052 122.02C372.043 122.198 372.038 122.41 372.038 122.657C372.046 122.904 372.055 123.151 372.064 123.399C372.108 124.021 372.259 124.505 372.516 124.851C372.773 125.187 373.115 125.355 373.54 125.355ZM384.772 114.964C384.789 114.628 384.798 114.287 384.798 113.941C384.807 113.595 384.807 113.259 384.798 112.933C384.798 112.607 384.798 112.325 384.798 112.088C384.78 111.387 384.644 110.907 384.387 110.65C384.139 110.393 383.732 110.265 383.165 110.265C382.589 110.265 382.176 110.393 381.928 110.65C381.68 110.907 381.547 111.387 381.529 112.088C381.511 113.146 381.499 114.139 381.49 115.068C381.481 115.987 381.476 116.891 381.476 117.78C381.476 118.67 381.481 119.574 381.49 120.493C381.499 121.412 381.511 122.4 381.529 123.458C381.547 124.179 381.68 124.673 381.928 124.94C382.185 125.197 382.601 125.326 383.177 125.326C383.744 125.326 384.151 125.197 384.4 124.94C384.648 124.673 384.78 124.179 384.798 123.458C384.798 123.072 384.798 122.643 384.798 122.168C384.807 121.694 384.798 121.165 384.772 120.582H386.499C386.526 121.027 386.54 121.491 386.54 121.975C386.549 122.46 386.543 122.895 386.526 123.28C386.481 124.565 386.203 125.489 385.689 126.052C385.184 126.615 384.346 126.897 383.177 126.897C381.99 126.897 381.136 126.615 380.613 126.052C380.09 125.489 379.807 124.565 379.763 123.28C379.745 122.479 379.731 121.615 379.722 120.686C379.713 119.757 379.71 118.808 379.71 117.84C379.71 116.861 379.713 115.903 379.722 114.964C379.731 114.025 379.745 113.151 379.763 112.34C379.816 111.036 380.099 110.102 380.613 109.538C381.136 108.975 381.986 108.694 383.165 108.694C384.343 108.694 385.188 108.97 385.702 109.524C386.225 110.077 386.499 110.996 386.526 112.281C386.535 112.666 386.54 113.096 386.54 113.571C386.54 114.045 386.526 114.509 386.499 114.964H384.772ZM381.092 130.499V129.417H381.848C382.256 129.417 382.539 129.313 382.699 129.106C382.858 128.898 382.902 128.572 382.831 128.127L382.566 126.586H383.629L383.895 128.127C384.01 128.928 383.9 129.521 383.563 129.906C383.227 130.301 382.654 130.499 381.848 130.499H381.092ZM391.226 126.882C390.367 126.882 389.734 126.6 389.327 126.037C388.919 125.474 388.675 124.634 388.595 123.517C388.586 123.27 388.577 123.018 388.569 122.761C388.56 122.504 388.56 122.257 388.569 122.02C388.613 121.328 388.719 120.701 388.888 120.137C389.056 119.574 389.327 119.06 389.699 118.596C390.08 118.131 390.597 117.687 391.253 117.262C391.634 117.015 392.029 116.777 392.436 116.55C392.844 116.323 393.252 116.11 393.659 115.913V112.133C393.659 111.48 393.547 111.006 393.326 110.71C393.104 110.413 392.706 110.265 392.13 110.265C391.625 110.265 391.249 110.393 391.001 110.65C390.753 110.907 390.615 111.387 390.588 112.088C390.58 112.315 390.571 112.602 390.562 112.948C390.562 113.284 390.562 113.635 390.562 114C390.571 114.356 390.58 114.677 390.588 114.964H388.875C388.866 114.569 388.857 114.119 388.849 113.615C388.84 113.111 388.84 112.661 388.849 112.266C388.875 111.426 389.003 110.744 389.233 110.22C389.463 109.697 389.818 109.316 390.296 109.079C390.775 108.832 391.403 108.708 392.183 108.708C392.998 108.708 393.636 108.842 394.097 109.109C394.566 109.366 394.899 109.776 395.094 110.339C395.298 110.892 395.399 111.619 395.399 112.518V126.689H393.645V125.088H393.353C393.158 125.652 392.901 126.091 392.582 126.408C392.263 126.724 391.811 126.882 391.226 126.882ZM391.811 125.355C392.263 125.355 392.64 125.212 392.941 124.925C393.252 124.629 393.491 124.199 393.659 123.636V117.543C393.349 117.682 393.03 117.845 392.702 118.032C392.383 118.22 392.024 118.482 391.625 118.818C391.12 119.233 390.783 119.703 390.615 120.226C390.447 120.74 390.349 121.338 390.323 122.02C390.314 122.198 390.31 122.41 390.31 122.657C390.319 122.904 390.328 123.151 390.337 123.399C390.381 124.021 390.532 124.505 390.789 124.851C391.046 125.187 391.386 125.355 391.811 125.355ZM393.804 105.521H394.669C394.66 106.213 394.536 106.737 394.297 107.093C394.067 107.448 393.73 107.626 393.287 107.626C392.995 107.626 392.759 107.577 392.582 107.478C392.413 107.369 392.268 107.246 392.144 107.107C392.02 106.959 391.891 106.836 391.758 106.737C391.625 106.628 391.457 106.574 391.253 106.574C391.067 106.574 390.922 106.663 390.815 106.841C390.709 107.009 390.638 107.251 390.603 107.567H389.752C389.805 106.855 389.959 106.322 390.216 105.966C390.482 105.6 390.837 105.418 391.279 105.418C391.59 105.418 391.834 105.472 392.011 105.581C392.188 105.689 392.334 105.813 392.449 105.951C392.573 106.09 392.693 106.213 392.809 106.322C392.924 106.431 393.074 106.485 393.26 106.485C393.446 106.485 393.583 106.406 393.671 106.248C393.76 106.08 393.804 105.838 393.804 105.521ZM401.515 126.897C400.691 126.897 400.032 126.768 399.536 126.511C399.04 126.245 398.677 125.83 398.446 125.266C398.225 124.703 398.096 123.962 398.06 123.043C398.034 122.242 398.012 121.402 397.995 120.523C397.986 119.633 397.98 118.734 397.98 117.825C397.98 116.906 397.986 116.002 397.995 115.112C398.012 114.223 398.034 113.368 398.06 112.548C398.096 111.629 398.225 110.887 398.446 110.324C398.677 109.761 399.04 109.351 399.536 109.094C400.032 108.827 400.691 108.694 401.515 108.694C402.348 108.694 403.009 108.827 403.496 109.094C403.983 109.351 404.338 109.761 404.559 110.324C404.79 110.887 404.922 111.629 404.958 112.548C404.976 113.348 404.988 114.193 404.997 115.083C405.015 115.972 405.023 116.871 405.023 117.78C405.023 118.69 405.015 119.594 404.997 120.493C404.988 121.383 404.976 122.232 404.958 123.043C404.922 123.952 404.79 124.693 404.559 125.266C404.338 125.83 403.983 126.245 403.496 126.511C403.009 126.768 402.348 126.897 401.515 126.897ZM401.515 125.326C402.1 125.326 402.522 125.187 402.779 124.91C403.035 124.634 403.172 124.15 403.19 123.458C403.216 122.4 403.239 121.412 403.257 120.493C403.275 119.574 403.284 118.675 403.284 117.795C403.284 116.916 403.275 116.016 403.257 115.097C403.239 114.178 403.216 113.195 403.19 112.147C403.172 111.446 403.039 110.957 402.791 110.68C402.543 110.403 402.118 110.265 401.515 110.265C400.913 110.265 400.484 110.403 400.227 110.68C399.97 110.957 399.832 111.446 399.814 112.147C399.788 113.195 399.766 114.178 399.749 115.097C399.74 116.016 399.735 116.921 399.735 117.81C399.735 118.69 399.74 119.589 399.749 120.508C399.766 121.427 399.788 122.41 399.814 123.458C399.832 124.15 399.97 124.634 400.227 124.91C400.493 125.187 400.922 125.326 401.515 125.326Z" fill="#1C1C1C"/>
<path d="M439.324 97.0402C440.302 97.0919 441.133 96.2502 441.179 95.1599L441.938 77.3919C441.984 76.3014 441.229 75.3755 440.253 75.3235C439.274 75.2715 438.444 76.1135 438.397 77.2037L437.724 92.9977L423.566 92.2454C422.588 92.1937 421.758 93.0354 421.711 94.1257C421.664 95.2161 422.419 96.1421 423.397 96.194L439.324 97.0402ZM421.691 73.3247L420.38 74.6543L438.098 96.3954L439.409 95.0659L440.72 93.7363L423.002 71.9951L421.691 73.3247Z" fill="#004857"/>
<path d="M2.84369 126.689V104.751H0.132812V102.972H7.30865V104.751H4.61107V126.689H2.84369ZM11.011 126.882C9.80615 126.882 8.94239 126.605 8.4197 126.052C7.89702 125.489 7.6091 124.565 7.55594 123.28C7.53823 122.479 7.52494 121.62 7.51608 120.701C7.50722 119.772 7.50279 118.818 7.50279 117.84C7.50279 116.861 7.50722 115.903 7.51608 114.964C7.52494 114.025 7.53823 113.151 7.55594 112.34C7.6091 111.036 7.90145 110.107 8.43299 109.553C8.97339 108.99 9.82829 108.708 10.9977 108.708C12.1316 108.708 12.9511 108.985 13.4561 109.538C13.9699 110.082 14.2578 110.991 14.3198 112.266C14.3287 112.572 14.3376 113.022 14.3464 113.615C14.3553 114.208 14.3553 114.9 14.3464 115.69C14.3464 116.471 14.3287 117.311 14.2933 118.21H9.27017C9.27017 119.021 9.2746 119.856 9.28346 120.715C9.30118 121.575 9.31447 122.489 9.32333 123.458C9.34105 124.169 9.47836 124.658 9.73527 124.925C9.99219 125.192 10.4086 125.326 10.9844 125.326C11.5425 125.326 11.9412 125.192 12.1804 124.925C12.4196 124.658 12.5525 124.169 12.579 123.458C12.5967 123.092 12.6056 122.667 12.6056 122.183C12.6056 121.699 12.5967 121.16 12.579 120.567H14.2933C14.3198 121.012 14.3331 121.481 14.3331 121.975C14.342 122.46 14.3376 122.895 14.3198 123.28C14.2578 124.565 13.9832 125.489 13.4959 126.052C13.0087 126.605 12.1804 126.882 11.011 126.882ZM9.27017 116.683H12.6056C12.6145 116.051 12.6189 115.433 12.6189 114.831C12.6189 114.218 12.6145 113.669 12.6056 113.185C12.5968 112.701 12.5879 112.335 12.579 112.088C12.5525 111.436 12.4151 110.971 12.1671 110.695C11.9279 110.408 11.5381 110.265 10.9977 110.265C10.413 110.265 9.99219 110.408 9.73527 110.695C9.47836 110.971 9.34105 111.436 9.32333 112.088C9.31447 112.938 9.30561 113.739 9.29675 114.49C9.28789 115.231 9.27903 115.962 9.27017 116.683ZM16.8652 126.689V108.901H18.6327V110.591H19.0047C19.1553 109.939 19.3901 109.489 19.709 109.242C20.0368 108.985 20.4753 108.857 21.0246 108.857C21.1664 108.857 21.3125 108.862 21.4631 108.871C21.6226 108.881 21.7555 108.886 21.8618 108.886V110.472H21.0379C20.2937 110.472 19.74 110.626 19.3768 110.932C19.0225 111.238 18.7744 111.737 18.6327 112.429V126.689H16.8652ZM23.4316 126.689V108.901H25.199V110.591H25.5711C25.7217 109.939 25.9564 109.489 26.2754 109.242C26.6032 108.985 27.0417 108.857 27.5909 108.857C27.7327 108.857 27.8789 108.862 28.0295 108.871C28.1889 108.881 28.3218 108.886 28.4281 108.886V110.472H27.6042C26.8601 110.472 26.3064 110.626 25.9432 110.932C25.5888 111.238 25.3407 111.737 25.199 112.429V126.689H23.4316ZM29.4932 105.343V102.972H32.2838V105.343H29.4932ZM30.0114 126.689V108.901H31.7655V126.689H30.0114ZM38.1648 126.897C36.9334 126.897 36.0829 126.615 35.6133 126.052C35.1527 125.489 34.9223 124.565 34.9223 123.28V110.472H33.8194V108.901H34.9489V103.861H36.7163V108.901H39.0817V110.472H36.6764V123.473C36.6764 124.184 36.765 124.673 36.9422 124.94C37.1194 125.207 37.5402 125.34 38.2046 125.34C38.4527 125.34 38.6564 125.335 38.8159 125.326C38.9754 125.306 39.1525 125.276 39.3474 125.237V126.749C39.1791 126.788 38.9931 126.823 38.7893 126.852C38.5856 126.882 38.3774 126.897 38.1648 126.897ZM44.285 126.897C43.4611 126.897 42.8011 126.768 42.305 126.511C41.8088 126.245 41.4456 125.83 41.2153 125.266C40.9938 124.703 40.8654 123.962 40.8299 123.043C40.8033 122.242 40.7812 121.402 40.7635 120.523C40.7546 119.633 40.7502 118.734 40.7502 117.825C40.7502 116.906 40.7546 116.002 40.7635 115.112C40.7812 114.223 40.8033 113.368 40.8299 112.548C40.8654 111.629 40.9938 110.887 41.2153 110.324C41.4456 109.761 41.8088 109.351 42.305 109.094C42.8011 108.827 43.4611 108.694 44.285 108.694C45.1177 108.694 45.7777 108.827 46.265 109.094C46.7522 109.351 47.1066 109.761 47.328 110.324C47.5584 110.887 47.6913 111.629 47.7267 112.548C47.7444 113.348 47.7577 114.193 47.7666 115.082C47.7843 115.972 47.7931 116.871 47.7931 117.78C47.7931 118.69 47.7843 119.594 47.7666 120.493C47.7577 121.383 47.7444 122.232 47.7267 123.043C47.6913 123.952 47.5584 124.693 47.328 125.266C47.1066 125.83 46.7522 126.245 46.265 126.511C45.7777 126.768 45.1177 126.897 44.285 126.897ZM44.285 125.326C44.8697 125.326 45.2905 125.187 45.5474 124.91C45.8043 124.634 45.9416 124.15 45.9593 123.458C45.9859 122.4 46.008 121.412 46.0258 120.493C46.0435 119.574 46.0523 118.675 46.0523 117.795C46.0523 116.916 46.0435 116.016 46.0258 115.097C46.008 114.178 45.9859 113.195 45.9593 112.147C45.9416 111.446 45.8087 110.957 45.5607 110.68C45.3126 110.403 44.8874 110.265 44.285 110.265C43.6825 110.265 43.2529 110.403 42.996 110.68C42.739 110.957 42.6017 111.446 42.584 112.147C42.5574 113.195 42.5353 114.178 42.5176 115.097C42.5087 116.016 42.5043 116.921 42.5043 117.81C42.5043 118.69 42.5087 119.589 42.5176 120.508C42.5353 121.427 42.5574 122.41 42.584 123.458C42.6017 124.15 42.739 124.634 42.996 124.91C43.2617 125.187 43.6914 125.326 44.285 125.326ZM43.6737 107.715L45.5341 104.35H46.8629L44.9494 107.715H43.6737ZM50.4502 126.689V108.901H52.2175V110.591H52.5896C52.7402 109.939 52.975 109.489 53.2939 109.242C53.6217 108.985 54.0602 108.857 54.6095 108.857C54.7512 108.857 54.8974 108.862 55.048 108.871C55.2075 108.881 55.3404 108.886 55.4467 108.886V110.472H54.6228C53.8786 110.472 53.3249 110.626 52.9617 110.932C52.6073 111.238 52.3593 111.737 52.2175 112.429V126.689H50.4502ZM56.5115 105.343V102.972H59.3021V105.343H56.5115ZM57.0298 126.689V108.901H58.7839V126.689H57.0298ZM64.9705 126.897C64.1466 126.897 63.4866 126.768 62.9905 126.511C62.4944 126.245 62.1312 125.83 61.9008 125.266C61.6794 124.703 61.5509 123.962 61.5155 123.043C61.4889 122.242 61.4667 121.402 61.449 120.523C61.4402 119.633 61.4357 118.734 61.4357 117.825C61.4357 116.906 61.4402 116.002 61.449 115.112C61.4667 114.223 61.4889 113.368 61.5155 112.548C61.5509 111.629 61.6794 110.887 61.9008 110.324C62.1312 109.761 62.4944 109.351 62.9905 109.094C63.4866 108.827 64.1466 108.694 64.9705 108.694C65.8033 108.694 66.4633 108.827 66.9505 109.094C67.4378 109.351 67.7921 109.761 68.0136 110.324C68.2439 110.887 68.3768 111.629 68.4123 112.548C68.43 113.348 68.4433 114.193 68.4521 115.082C68.4698 115.972 68.4787 116.871 68.4787 117.78C68.4787 118.69 68.4698 119.594 68.4521 120.493C68.4433 121.383 68.43 122.232 68.4123 123.043C68.3768 123.952 68.2439 124.693 68.0136 125.266C67.7921 125.83 67.4378 126.245 66.9505 126.511C66.4633 126.768 65.8033 126.897 64.9705 126.897ZM64.9705 125.326C65.5552 125.326 65.976 125.187 66.2329 124.91C66.4898 124.634 66.6272 124.15 66.6449 123.458C66.6714 122.4 66.6936 121.412 66.7113 120.493C66.729 119.574 66.7379 118.675 66.7379 117.795C66.7379 116.916 66.729 116.016 66.7113 115.097C66.6936 114.178 66.6714 113.195 66.6449 112.147C66.6272 111.446 66.4943 110.957 66.2462 110.68C65.9982 110.403 65.5729 110.265 64.9705 110.265C64.3681 110.265 63.9384 110.403 63.6815 110.68C63.4246 110.957 63.2873 111.446 63.2696 112.147C63.243 113.195 63.2208 114.178 63.2031 115.097C63.1943 116.016 63.1898 116.921 63.1898 117.81C63.1898 118.69 63.1943 119.589 63.2031 120.508C63.2208 121.427 63.243 122.41 63.2696 123.458C63.2873 124.15 63.4246 124.634 63.6815 124.91C63.9473 125.187 64.3769 125.326 64.9705 125.326Z" fill="#1C1C1C"/>
<path d="M105.945 126.689V102.972H107.699V126.689H105.945ZM110.513 126.689V102.972H116.506V104.75H112.267V113.867H116.24V115.631H112.267V126.689H110.513ZM118.351 126.689V102.972H121.58C122.785 102.972 123.658 103.268 124.198 103.861C124.739 104.454 125.035 105.437 125.089 106.811C125.124 108.125 125.142 109.306 125.142 110.354C125.142 111.401 125.124 112.478 125.089 113.585C125.035 114.949 124.734 115.927 124.185 116.52C123.645 117.113 122.772 117.41 121.567 117.41H120.105V126.689H118.351ZM120.105 115.646H121.567C122.17 115.646 122.604 115.488 122.869 115.171C123.144 114.855 123.295 114.351 123.321 113.659C123.348 112.879 123.366 112.108 123.374 111.347C123.383 110.576 123.383 109.81 123.374 109.049C123.366 108.278 123.348 107.503 123.321 106.722C123.295 106.04 123.148 105.541 122.883 105.225C122.617 104.908 122.183 104.75 121.58 104.75H120.105V115.646ZM127.279 126.689V102.972H129.034V126.689H127.279ZM136.219 116.209V114.43H143.063V116.209H136.219ZM150.303 105.343V102.972H153.094V105.343H150.303ZM150.821 126.689V108.901H152.575V126.689H150.821ZM157.819 126.897C156.977 126.897 156.352 126.62 155.945 126.067C155.537 125.513 155.316 124.614 155.28 123.369C155.263 122.519 155.249 121.639 155.241 120.73C155.232 119.811 155.227 118.877 155.227 117.928C155.227 116.98 155.232 116.026 155.241 115.068C155.249 114.109 155.263 113.16 155.28 112.221C155.316 110.956 155.542 110.052 155.958 109.509C156.383 108.965 157.012 108.693 157.845 108.693C158.456 108.693 158.93 108.842 159.267 109.138C159.613 109.425 159.918 109.874 160.184 110.487H160.503V102.972H162.257V126.689H160.503V125.103H160.157C159.9 125.676 159.599 126.121 159.254 126.437C158.908 126.744 158.43 126.897 157.819 126.897ZM158.403 125.355C158.899 125.355 159.329 125.212 159.692 124.925C160.055 124.629 160.326 124.169 160.503 123.547V112.044C160.326 111.411 160.055 110.952 159.692 110.665C159.338 110.378 158.913 110.235 158.417 110.235C157.947 110.235 157.606 110.378 157.393 110.665C157.181 110.952 157.066 111.426 157.048 112.088C157.012 113.442 156.99 114.771 156.981 116.076C156.973 117.38 156.973 118.65 156.981 119.885C156.99 121.12 157.012 122.326 157.048 123.502C157.066 124.154 157.176 124.629 157.38 124.925C157.584 125.212 157.925 125.355 158.403 125.355ZM168.235 126.882C167.03 126.882 166.166 126.605 165.643 126.052C165.121 125.488 164.833 124.564 164.78 123.28C164.762 122.479 164.749 121.62 164.74 120.7C164.731 119.772 164.727 118.818 164.727 117.84C164.727 116.861 164.731 115.903 164.74 114.964C164.749 114.025 164.762 113.15 164.78 112.34C164.833 111.036 165.125 110.107 165.657 109.553C166.197 108.99 167.052 108.708 168.221 108.708C169.355 108.708 170.175 108.985 170.68 109.538C171.194 110.082 171.482 110.991 171.544 112.266C171.552 112.572 171.561 113.022 171.57 113.615C171.579 114.208 171.579 114.9 171.57 115.69C171.57 116.471 171.552 117.311 171.517 118.21H166.494C166.494 119.02 166.498 119.856 166.507 120.715C166.525 121.575 166.538 122.489 166.547 123.458C166.565 124.169 166.702 124.658 166.959 124.925C167.216 125.192 167.632 125.325 168.208 125.325C168.766 125.325 169.165 125.192 169.404 124.925C169.643 124.658 169.776 124.169 169.803 123.458C169.82 123.092 169.829 122.667 169.829 122.183C169.829 121.699 169.82 121.16 169.803 120.567H171.517C171.544 121.012 171.557 121.481 171.557 121.975C171.566 122.46 171.561 122.894 171.544 123.28C171.482 124.564 171.207 125.488 170.72 126.052C170.232 126.605 169.404 126.882 168.235 126.882ZM166.494 116.683H169.829C169.838 116.051 169.843 115.433 169.843 114.83C169.843 114.218 169.838 113.669 169.829 113.185C169.82 112.701 169.812 112.335 169.803 112.088C169.776 111.436 169.639 110.971 169.391 110.695C169.152 110.408 168.762 110.265 168.221 110.265C167.637 110.265 167.216 110.408 166.959 110.695C166.702 110.971 166.565 111.436 166.547 112.088C166.538 112.938 166.529 113.738 166.52 114.489C166.512 115.231 166.503 115.962 166.494 116.683ZM174.089 126.689V108.901H175.856V110.487H176.242C176.49 109.914 176.791 109.474 177.145 109.168C177.509 108.852 177.987 108.693 178.58 108.693C179.413 108.693 180.039 108.965 180.453 109.509C180.871 110.052 181.084 110.956 181.093 112.221V126.689H179.339V112.088C179.33 111.426 179.215 110.952 178.993 110.665C178.781 110.378 178.435 110.235 177.957 110.235C177.496 110.235 177.074 110.393 176.693 110.709C176.313 111.016 176.034 111.46 175.856 112.044V126.689H174.089ZM187.42 126.897C186.189 126.897 185.338 126.615 184.869 126.052C184.408 125.488 184.178 124.564 184.178 123.28V110.472H183.076V108.901H184.204V103.861H185.972V108.901H188.338V110.472H185.932V123.472C185.932 124.184 186.02 124.673 186.197 124.94C186.375 125.207 186.796 125.34 187.461 125.34C187.709 125.34 187.913 125.335 188.072 125.325C188.232 125.306 188.409 125.276 188.604 125.236V126.748C188.435 126.788 188.249 126.823 188.046 126.852C187.842 126.882 187.633 126.897 187.42 126.897ZM189.754 105.343V102.972H192.544V105.343H189.754ZM190.271 126.689V108.901H192.025V126.689H190.271ZM195.17 126.689V110.472H193.96V108.901H195.17V106.336C195.17 105.062 195.427 104.143 195.941 103.579C196.463 103.016 197.309 102.734 198.478 102.734C198.717 102.734 198.983 102.754 199.275 102.794C199.576 102.833 199.842 102.878 200.073 102.927V104.439C199.833 104.409 199.585 104.385 199.328 104.365C199.071 104.345 198.797 104.335 198.505 104.335C197.938 104.335 197.53 104.474 197.282 104.75C197.043 105.027 196.928 105.511 196.936 106.203V108.901H199.662V110.472H196.936V126.689H195.17ZM200.684 105.343V102.972H203.474V105.343H200.684ZM201.203 126.689V108.901H202.957V126.689H201.203ZM210.668 114.964C210.686 114.628 210.695 114.287 210.695 113.941C210.703 113.595 210.703 113.259 210.695 112.933C210.695 112.607 210.695 112.325 210.695 112.088C210.677 111.386 210.539 110.907 210.282 110.65C210.034 110.393 209.626 110.265 209.059 110.265C208.483 110.265 208.072 110.393 207.824 110.65C207.576 110.907 207.443 111.386 207.426 112.088C207.408 113.145 207.394 114.139 207.385 115.068C207.376 115.987 207.372 116.891 207.372 117.78C207.372 118.67 207.376 119.574 207.385 120.493C207.394 121.412 207.408 122.4 207.426 123.458C207.443 124.179 207.576 124.673 207.824 124.94C208.081 125.197 208.498 125.325 209.073 125.325C209.64 125.325 210.048 125.197 210.296 124.94C210.544 124.673 210.677 124.179 210.695 123.458C210.695 123.072 210.695 122.642 210.695 122.168C210.703 121.694 210.695 121.165 210.668 120.582H212.396C212.422 121.027 212.434 121.491 212.434 121.975C212.443 122.46 212.44 122.894 212.422 123.28C212.378 124.564 212.098 125.488 211.584 126.052C211.079 126.615 210.243 126.897 209.073 126.897C207.886 126.897 207.03 126.615 206.508 126.052C205.985 125.488 205.702 124.564 205.657 123.28C205.64 122.479 205.627 121.615 205.618 120.686C205.609 119.757 205.604 118.808 205.604 117.84C205.604 116.861 205.609 115.903 205.618 114.964C205.627 114.025 205.64 113.15 205.657 112.34C205.71 111.036 205.994 110.102 206.508 109.538C207.03 108.975 207.881 108.693 209.059 108.693C210.237 108.693 211.084 108.97 211.598 109.524C212.121 110.077 212.396 110.996 212.422 112.281C212.431 112.666 212.434 113.096 212.434 113.57C212.434 114.045 212.422 114.509 212.396 114.964H210.668ZM217.121 126.882C216.262 126.882 215.629 126.6 215.222 126.037C214.814 125.474 214.57 124.634 214.49 123.517C214.481 123.27 214.472 123.018 214.463 122.761C214.454 122.504 214.454 122.257 214.463 122.02C214.508 121.328 214.614 120.7 214.782 120.137C214.95 119.574 215.222 119.06 215.594 118.596C215.975 118.131 216.492 117.686 217.148 117.261C217.528 117.014 217.924 116.777 218.331 116.55C218.739 116.323 219.146 116.11 219.554 115.912V112.132C219.554 111.48 219.442 111.006 219.221 110.709C218.999 110.413 218.6 110.265 218.025 110.265C217.52 110.265 217.144 110.393 216.896 110.65C216.648 110.907 216.51 111.386 216.483 112.088C216.474 112.315 216.465 112.602 216.457 112.948C216.457 113.284 216.457 113.635 216.457 114C216.465 114.356 216.474 114.677 216.483 114.964H214.77C214.761 114.568 214.752 114.119 214.743 113.615C214.734 113.111 214.734 112.661 214.743 112.266C214.77 111.426 214.897 110.744 215.128 110.22C215.358 109.696 215.712 109.316 216.191 109.079C216.669 108.832 217.298 108.708 218.078 108.708C218.893 108.708 219.531 108.842 219.991 109.108C220.461 109.365 220.794 109.776 220.989 110.339C221.193 110.892 221.294 111.619 221.294 112.518V126.689H219.539V125.088H219.247C219.052 125.652 218.795 126.091 218.476 126.408C218.157 126.724 217.706 126.882 217.121 126.882ZM217.706 125.355C218.157 125.355 218.535 125.212 218.836 124.925C219.146 124.629 219.385 124.199 219.554 123.636V117.543C219.244 117.681 218.925 117.844 218.597 118.032C218.278 118.22 217.918 118.482 217.52 118.818C217.015 119.233 216.678 119.702 216.51 120.226C216.341 120.74 216.244 121.338 216.217 122.02C216.208 122.198 216.205 122.41 216.205 122.657C216.214 122.904 216.223 123.151 216.231 123.398C216.276 124.021 216.426 124.505 216.683 124.851C216.94 125.187 217.28 125.355 217.706 125.355ZM228.939 114.964C228.957 114.628 228.965 114.287 228.965 113.941C228.974 113.595 228.974 113.259 228.965 112.933C228.965 112.607 228.965 112.325 228.965 112.088C228.948 111.386 228.811 110.907 228.554 110.65C228.306 110.393 227.899 110.265 227.332 110.265C226.756 110.265 226.343 110.393 226.095 110.65C225.847 110.907 225.714 111.386 225.697 112.088C225.679 113.145 225.666 114.139 225.658 115.068C225.649 115.987 225.643 116.891 225.643 117.78C225.643 118.67 225.649 119.574 225.658 120.493C225.666 121.412 225.679 122.4 225.697 123.458C225.714 124.179 225.847 124.673 226.095 124.94C226.352 125.197 226.768 125.325 227.344 125.325C227.911 125.325 228.319 125.197 228.567 124.94C228.815 124.673 228.948 124.179 228.965 123.458C228.965 123.072 228.965 122.642 228.965 122.168C228.974 121.694 228.965 121.165 228.939 120.582H230.666C230.693 121.027 230.707 121.491 230.707 121.975C230.716 122.46 230.711 122.894 230.693 123.28C230.649 124.564 230.371 125.488 229.857 126.052C229.352 126.615 228.514 126.897 227.344 126.897C226.157 126.897 225.303 126.615 224.78 126.052C224.258 125.488 223.974 124.564 223.93 123.28C223.912 122.479 223.898 121.615 223.889 120.686C223.88 119.757 223.877 118.808 223.877 117.84C223.877 116.861 223.88 115.903 223.889 114.964C223.898 114.025 223.912 113.15 223.93 112.34C223.983 111.036 224.267 110.102 224.78 109.538C225.303 108.975 226.154 108.693 227.332 108.693C228.51 108.693 229.355 108.97 229.869 109.524C230.392 110.077 230.666 110.996 230.693 112.281C230.702 112.666 230.707 113.096 230.707 113.57C230.707 114.045 230.693 114.509 230.666 114.964H228.939ZM225.259 130.499V129.417H226.015C226.423 129.417 226.706 129.313 226.866 129.105C227.025 128.898 227.07 128.572 226.999 128.127L226.733 126.585H227.796L228.062 128.127C228.177 128.928 228.067 129.52 227.731 129.906C227.394 130.301 226.822 130.499 226.015 130.499H225.259ZM235.394 126.882C234.534 126.882 233.9 126.6 233.492 126.037C233.085 125.474 232.842 124.634 232.762 123.517C232.754 123.27 232.745 123.018 232.736 122.761C232.727 122.504 232.727 122.257 232.736 122.02C232.78 121.328 232.887 120.7 233.055 120.137C233.223 119.574 233.492 119.06 233.865 118.596C234.245 118.131 234.765 117.686 235.42 117.261C235.801 117.014 236.194 116.777 236.602 116.55C237.01 116.323 237.417 116.11 237.825 115.912V112.132C237.825 111.48 237.715 111.006 237.493 110.709C237.272 110.413 236.873 110.265 236.297 110.265C235.792 110.265 235.415 110.393 235.167 110.65C234.919 110.907 234.782 111.386 234.756 112.088C234.747 112.315 234.738 112.602 234.729 112.948C234.729 113.284 234.729 113.635 234.729 114C234.738 114.356 234.747 114.677 234.756 114.964H233.041C233.032 114.568 233.023 114.119 233.014 113.615C233.005 113.111 233.005 112.661 233.014 112.266C233.041 111.426 233.17 110.744 233.4 110.22C233.631 109.696 233.985 109.316 234.463 109.079C234.942 108.832 235.571 108.708 236.35 108.708C237.165 108.708 237.803 108.842 238.264 109.108C238.734 109.365 239.065 109.776 239.26 110.339C239.463 110.892 239.566 111.619 239.566 112.518V126.689H237.812V125.088H237.52C237.325 125.652 237.068 126.091 236.749 126.408C236.43 126.724 235.978 126.882 235.394 126.882ZM235.978 125.355C236.43 125.355 236.806 125.212 237.107 124.925C237.417 124.629 237.656 124.199 237.825 123.636V117.543C237.514 117.681 237.196 117.844 236.868 118.032C236.549 118.22 236.191 118.482 235.792 118.818C235.287 119.233 234.951 119.702 234.782 120.226C234.614 120.74 234.517 121.338 234.49 122.02C234.481 122.198 234.476 122.41 234.476 122.657C234.485 122.904 234.494 123.151 234.502 123.398C234.547 124.021 234.697 124.505 234.954 124.851C235.211 125.187 235.553 125.355 235.978 125.355ZM237.972 105.521H238.834C238.826 106.213 238.702 106.737 238.462 107.092C238.232 107.448 237.895 107.626 237.452 107.626C237.16 107.626 236.926 107.577 236.749 107.478C236.581 107.369 236.434 107.246 236.31 107.107C236.186 106.959 236.058 106.836 235.925 106.737C235.792 106.628 235.624 106.574 235.42 106.574C235.234 106.574 235.087 106.663 234.981 106.84C234.874 107.008 234.804 107.251 234.768 107.567H233.918C233.971 106.855 234.127 106.322 234.384 105.966C234.649 105.6 235.004 105.417 235.447 105.417C235.757 105.417 236 105.472 236.177 105.58C236.354 105.689 236.501 105.813 236.616 105.951C236.74 106.089 236.859 106.213 236.974 106.322C237.089 106.43 237.24 106.485 237.426 106.485C237.612 106.485 237.75 106.406 237.839 106.248C237.927 106.08 237.972 105.837 237.972 105.521ZM245.683 126.897C244.859 126.897 244.2 126.768 243.703 126.511C243.207 126.244 242.844 125.829 242.614 125.266C242.392 124.703 242.263 123.962 242.228 123.043C242.201 122.242 242.18 121.402 242.162 120.523C242.153 119.633 242.148 118.734 242.148 117.825C242.148 116.906 242.153 116.001 242.162 115.112C242.18 114.223 242.201 113.368 242.228 112.548C242.263 111.628 242.392 110.887 242.614 110.324C242.844 109.761 243.207 109.351 243.703 109.094C244.2 108.827 244.859 108.693 245.683 108.693C246.515 108.693 247.176 108.827 247.663 109.094C248.151 109.351 248.505 109.761 248.727 110.324C248.957 110.887 249.09 111.628 249.125 112.548C249.143 113.348 249.155 114.193 249.164 115.082C249.182 115.972 249.191 116.871 249.191 117.78C249.191 118.689 249.182 119.594 249.164 120.493C249.155 121.382 249.143 122.232 249.125 123.043C249.09 123.952 248.957 124.693 248.727 125.266C248.505 125.829 248.151 126.244 247.663 126.511C247.176 126.768 246.515 126.897 245.683 126.897ZM245.683 125.325C246.267 125.325 246.689 125.187 246.946 124.91C247.203 124.634 247.339 124.149 247.357 123.458C247.383 122.4 247.407 121.412 247.424 120.493C247.442 119.574 247.451 118.675 247.451 117.795C247.451 116.916 247.442 116.016 247.424 115.097C247.407 114.178 247.383 113.195 247.357 112.147C247.339 111.446 247.206 110.956 246.958 110.68C246.71 110.403 246.285 110.265 245.683 110.265C245.08 110.265 244.651 110.403 244.394 110.68C244.138 110.956 243.999 111.446 243.982 112.147C243.955 113.195 243.934 114.178 243.916 115.097C243.907 116.016 243.902 116.92 243.902 117.81C243.902 118.689 243.907 119.589 243.916 120.508C243.934 121.427 243.955 122.41 243.982 123.458C243.999 124.149 244.138 124.634 244.394 124.91C244.66 125.187 245.089 125.325 245.683 125.325ZM108.324 162.473C107.482 162.473 106.858 162.196 106.45 161.643C106.042 161.09 105.821 160.19 105.786 158.945C105.768 158.095 105.755 157.216 105.746 156.307C105.737 155.388 105.732 154.454 105.732 153.505C105.732 152.556 105.737 151.603 105.746 150.644C105.755 149.685 105.768 148.737 105.786 147.798C105.821 146.533 106.047 145.629 106.463 145.085C106.889 144.542 107.518 144.27 108.35 144.27C108.962 144.27 109.436 144.418 109.772 144.715C110.118 145.001 110.423 145.451 110.689 146.064H111.008V138.548H112.762V162.266H111.008V160.68H110.662C110.406 161.253 110.104 161.697 109.759 162.014C109.413 162.32 108.935 162.473 108.324 162.473ZM108.908 160.932C109.405 160.932 109.834 160.788 110.197 160.502C110.561 160.205 110.831 159.746 111.008 159.123V147.62C110.831 146.988 110.561 146.528 110.197 146.241C109.843 145.955 109.418 145.812 108.922 145.812C108.452 145.812 108.111 145.955 107.898 146.241C107.686 146.528 107.571 147.002 107.553 147.665C107.518 149.018 107.495 150.348 107.487 151.652C107.478 152.956 107.478 154.226 107.487 155.462C107.495 156.697 107.518 157.903 107.553 159.079C107.571 159.731 107.681 160.205 107.885 160.502C108.089 160.788 108.43 160.932 108.908 160.932ZM118.766 162.473C117.943 162.473 117.283 162.345 116.786 162.088C116.29 161.821 115.927 161.406 115.697 160.843C115.475 160.279 115.347 159.538 115.311 158.619C115.285 157.819 115.263 156.979 115.245 156.099C115.236 155.21 115.232 154.31 115.232 153.401C115.232 152.482 115.236 151.578 115.245 150.688C115.263 149.799 115.285 148.944 115.311 148.124C115.347 147.205 115.475 146.464 115.697 145.9C115.927 145.337 116.29 144.927 116.786 144.67C117.283 144.403 117.943 144.27 118.766 144.27C119.599 144.27 120.259 144.403 120.746 144.67C121.234 144.927 121.588 145.337 121.809 145.9C122.04 146.464 122.173 147.205 122.208 148.124C122.226 148.924 122.239 149.769 122.248 150.659C122.266 151.548 122.275 152.448 122.275 153.357C122.275 154.266 122.266 155.17 122.248 156.069C122.239 156.959 122.226 157.809 122.208 158.619C122.173 159.528 122.04 160.269 121.809 160.843C121.588 161.406 121.234 161.821 120.746 162.088C120.259 162.345 119.599 162.473 118.766 162.473ZM118.766 160.902C119.351 160.902 119.772 160.764 120.029 160.487C120.286 160.21 120.423 159.726 120.441 159.034C120.467 157.977 120.489 156.988 120.507 156.069C120.525 155.15 120.534 154.251 120.534 153.372C120.534 152.492 120.525 151.593 120.507 150.674C120.489 149.755 120.467 148.771 120.441 147.724C120.423 147.022 120.29 146.533 120.042 146.256C119.794 145.98 119.369 145.841 118.766 145.841C118.164 145.841 117.734 145.98 117.477 146.256C117.221 146.533 117.083 147.022 117.065 147.724C117.039 148.771 117.017 149.755 116.999 150.674C116.99 151.593 116.986 152.497 116.986 153.386C116.986 154.266 116.99 155.165 116.999 156.084C117.017 157.003 117.039 157.987 117.065 159.034C117.083 159.726 117.221 160.21 117.477 160.487C117.743 160.764 118.173 160.902 118.766 160.902ZM130.434 168.195V144.477H132.201V146.064H132.547C132.804 145.451 133.1 145.001 133.437 144.715C133.774 144.418 134.252 144.27 134.872 144.27C135.714 144.27 136.338 144.542 136.746 145.085C137.162 145.629 137.388 146.533 137.424 147.798C137.441 148.47 137.455 149.275 137.463 150.214C137.472 151.153 137.477 152.141 137.477 153.179C137.477 154.216 137.472 155.234 137.463 156.232C137.455 157.231 137.441 158.135 137.424 158.945C137.388 160.19 137.149 161.09 136.706 161.643C136.272 162.196 135.634 162.473 134.792 162.473C134.261 162.473 133.822 162.335 133.477 162.058C133.131 161.772 132.821 161.312 132.547 160.68H132.201V168.195H130.434ZM134.208 160.932C134.686 160.932 135.045 160.788 135.284 160.502C135.523 160.205 135.647 159.731 135.656 159.079C135.683 158.001 135.701 156.964 135.709 155.966C135.727 154.968 135.736 154.004 135.736 153.075C135.736 152.136 135.727 151.222 135.709 150.333C135.692 149.433 135.674 148.544 135.656 147.665C135.647 147.002 135.537 146.528 135.324 146.241C135.12 145.955 134.779 145.812 134.301 145.812C133.805 145.812 133.375 145.955 133.012 146.241C132.649 146.528 132.378 146.988 132.201 147.62V159.123C132.387 159.775 132.635 160.24 132.945 160.516C133.264 160.793 133.685 160.932 134.208 160.932ZM140.115 162.266V144.477H141.882V146.167H142.254C142.405 145.515 142.64 145.065 142.959 144.818C143.286 144.561 143.725 144.433 144.274 144.433C144.416 144.433 144.562 144.438 144.713 144.448C144.872 144.458 145.005 144.463 145.111 144.463V146.049H144.287C143.543 146.049 142.99 146.202 142.626 146.508C142.272 146.815 142.024 147.314 141.882 148.005V162.266H140.115ZM149.678 162.473C148.854 162.473 148.194 162.345 147.698 162.088C147.202 161.821 146.839 161.406 146.608 160.843C146.387 160.279 146.258 159.538 146.223 158.619C146.196 157.819 146.174 156.979 146.156 156.099C146.148 155.21 146.143 154.31 146.143 153.401C146.143 152.482 146.148 151.578 146.156 150.688C146.174 149.799 146.196 148.944 146.223 148.124C146.258 147.205 146.387 146.464 146.608 145.9C146.839 145.337 147.202 144.927 147.698 144.67C148.194 144.403 148.854 144.27 149.678 144.27C150.511 144.27 151.171 144.403 151.658 144.67C152.145 144.927 152.5 145.337 152.721 145.9C152.951 146.464 153.084 147.205 153.12 148.124C153.137 148.924 153.151 149.769 153.16 150.659C153.177 151.548 153.186 152.448 153.186 153.357C153.186 154.266 153.177 155.17 153.16 156.069C153.151 156.959 153.137 157.809 153.12 158.619C153.084 159.528 152.951 160.269 152.721 160.843C152.5 161.406 152.145 161.821 151.658 162.088C151.171 162.345 150.511 162.473 149.678 162.473ZM149.678 160.902C150.263 160.902 150.683 160.764 150.94 160.487C151.197 160.21 151.335 159.726 151.352 159.034C151.379 157.977 151.401 156.988 151.419 156.069C151.436 155.15 151.445 154.251 151.445 153.372C151.445 152.492 151.436 151.593 151.419 150.674C151.401 149.755 151.379 148.771 151.352 147.724C151.335 147.022 151.202 146.533 150.954 146.256C150.706 145.98 150.28 145.841 149.678 145.841C149.076 145.841 148.646 145.98 148.389 146.256C148.132 146.533 147.995 147.022 147.977 147.724C147.95 148.771 147.928 149.755 147.911 150.674C147.902 151.593 147.897 152.497 147.897 153.386C147.897 154.266 147.902 155.165 147.911 156.084C147.928 157.003 147.95 157.987 147.977 159.034C147.995 159.726 148.132 160.21 148.389 160.487C148.655 160.764 149.084 160.902 149.678 160.902ZM158.182 162.473C157.34 162.473 156.716 162.196 156.308 161.643C155.901 161.09 155.679 160.19 155.644 158.945C155.626 158.095 155.613 157.216 155.604 156.307C155.595 155.388 155.591 154.454 155.591 153.505C155.591 152.556 155.595 151.603 155.604 150.644C155.613 149.685 155.626 148.737 155.644 147.798C155.679 146.533 155.905 145.629 156.321 145.085C156.747 144.542 157.376 144.27 158.208 144.27C158.82 144.27 159.294 144.418 159.63 144.715C159.976 145.001 160.281 145.451 160.547 146.064H160.866V138.548H162.62V162.266H160.866V160.68H160.521C160.264 161.253 159.962 161.697 159.617 162.014C159.271 162.32 158.793 162.473 158.182 162.473ZM158.766 160.932C159.263 160.932 159.692 160.788 160.055 160.502C160.419 160.205 160.689 159.746 160.866 159.123V147.62C160.689 146.988 160.419 146.528 160.055 146.241C159.701 145.955 159.276 145.812 158.78 145.812C158.31 145.812 157.969 145.955 157.757 146.241C157.544 146.528 157.429 147.002 157.411 147.665C157.376 149.018 157.353 150.348 157.345 151.652C157.336 152.956 157.336 154.226 157.345 155.462C157.353 156.697 157.376 157.903 157.411 159.079C157.429 159.731 157.54 160.205 157.743 160.502C157.947 160.788 158.288 160.932 158.766 160.932ZM165.311 162.266V159.612H168.288V162.266H165.311ZM176.197 162.266V146.049H174.988V144.477H176.197V141.913C176.197 140.638 176.454 139.719 176.968 139.156C177.491 138.592 178.336 138.311 179.505 138.311C179.745 138.311 180.01 138.331 180.303 138.37C180.604 138.41 180.87 138.454 181.1 138.504V140.016C180.861 139.986 180.613 139.961 180.356 139.941C180.099 139.922 179.824 139.912 179.532 139.912C178.965 139.912 178.557 140.05 178.309 140.327C178.07 140.604 177.955 141.088 177.964 141.78V144.477H180.689V146.049H177.964V162.266H176.197ZM185.262 162.473C184.438 162.473 183.777 162.345 183.281 162.088C182.785 161.821 182.422 161.406 182.191 160.843C181.97 160.279 181.842 159.538 181.807 158.619C181.78 157.819 181.757 156.979 181.74 156.099C181.731 155.21 181.727 154.31 181.727 153.401C181.727 152.482 181.731 151.578 181.74 150.688C181.757 149.799 181.78 148.944 181.807 148.124C181.842 147.205 181.97 146.464 182.191 145.9C182.422 145.337 182.785 144.927 183.281 144.67C183.777 144.403 184.438 144.27 185.262 144.27C186.095 144.27 186.754 144.403 187.241 144.67C187.728 144.927 188.083 145.337 188.304 145.9C188.535 146.464 188.667 147.205 188.703 148.124C188.721 148.924 188.735 149.769 188.744 150.659C188.761 151.548 188.77 152.448 188.77 153.357C188.77 154.266 188.761 155.17 188.744 156.069C188.735 156.959 188.721 157.809 188.703 158.619C188.667 159.528 188.535 160.269 188.304 160.843C188.083 161.406 187.728 161.821 187.241 162.088C186.754 162.345 186.095 162.473 185.262 162.473ZM185.262 160.902C185.847 160.902 186.267 160.764 186.524 160.487C186.78 160.21 186.919 159.726 186.936 159.034C186.963 157.977 186.984 156.988 187.002 156.069C187.02 155.15 187.028 154.251 187.028 153.372C187.028 152.492 187.02 151.593 187.002 150.674C186.984 149.755 186.963 148.771 186.936 147.724C186.919 147.022 186.786 146.533 186.538 146.256C186.29 145.98 185.864 145.841 185.262 145.841C184.66 145.841 184.229 145.98 183.972 146.256C183.715 146.533 183.579 147.022 183.561 147.724C183.534 148.771 183.511 149.755 183.494 150.674C183.485 151.593 183.481 152.497 183.481 153.386C183.481 154.266 183.485 155.165 183.494 156.084C183.511 157.003 183.534 157.987 183.561 159.034C183.579 159.726 183.715 160.21 183.972 160.487C184.238 160.764 184.668 160.902 185.262 160.902ZM191.426 162.266V144.477H193.194V146.064H193.579C193.827 145.49 194.128 145.051 194.482 144.744C194.846 144.428 195.324 144.27 195.918 144.27C196.75 144.27 197.376 144.542 197.792 145.085C198.209 145.629 198.421 146.533 198.43 147.798V162.266H196.676V147.665C196.667 147.002 196.552 146.528 196.33 146.241C196.118 145.955 195.772 145.812 195.294 145.812C194.833 145.812 194.412 145.97 194.031 146.286C193.65 146.592 193.372 147.037 193.194 147.62V162.266H191.426ZM204.545 162.473C203.721 162.473 203.062 162.345 202.566 162.088C202.069 161.821 201.706 161.406 201.476 160.843C201.254 160.279 201.125 159.538 201.09 158.619C201.063 157.819 201.042 156.979 201.024 156.099C201.015 155.21 201.01 154.31 201.01 153.401C201.01 152.482 201.015 151.578 201.024 150.688C201.042 149.799 201.063 148.944 201.09 148.124C201.125 147.205 201.254 146.464 201.476 145.9C201.706 145.337 202.069 144.927 202.566 144.67C203.062 144.403 203.721 144.27 204.545 144.27C205.377 144.27 206.038 144.403 206.525 144.67C207.013 144.927 207.367 145.337 207.589 145.9C207.819 146.464 207.952 147.205 207.987 148.124C208.005 148.924 208.017 149.769 208.026 150.659C208.044 151.548 208.053 152.448 208.053 153.357C208.053 154.266 208.044 155.17 208.026 156.069C208.017 156.959 208.005 157.809 207.987 158.619C207.952 159.528 207.819 160.269 207.589 160.843C207.367 161.406 207.013 161.821 206.525 162.088C206.038 162.345 205.377 162.473 204.545 162.473ZM204.545 160.902C205.129 160.902 205.551 160.764 205.808 160.487C206.065 160.21 206.201 159.726 206.219 159.034C206.246 157.977 206.269 156.988 206.286 156.069C206.304 155.15 206.313 154.251 206.313 153.372C206.313 152.492 206.304 151.593 206.286 150.674C206.269 149.755 206.246 148.771 206.219 147.724C206.201 147.022 206.068 146.533 205.82 146.256C205.572 145.98 205.147 145.841 204.545 145.841C203.942 145.841 203.513 145.98 203.257 146.256C203 146.533 202.861 147.022 202.844 147.724C202.817 148.771 202.796 149.755 202.778 150.674C202.769 151.593 202.764 152.497 202.764 153.386C202.764 154.266 202.769 155.165 202.778 156.084C202.796 157.003 202.817 157.987 202.844 159.034C202.861 159.726 203 160.21 203.257 160.487C203.522 160.764 203.951 160.902 204.545 160.902ZM213.953 167.083C212.837 167.083 211.951 166.886 211.295 166.49C210.64 166.105 210.28 165.468 210.218 164.578C210.218 164.499 210.209 164.4 210.191 164.282C210.183 164.173 210.183 164.054 210.191 163.926C210.218 163.363 210.386 162.923 210.696 162.607C211.015 162.29 211.387 162.098 211.813 162.028V161.628C211.423 161.49 211.122 161.297 210.909 161.05C210.705 160.803 210.59 160.492 210.563 160.116C210.563 160.027 210.563 159.943 210.563 159.864C210.563 159.785 210.563 159.701 210.563 159.612C210.581 159.207 210.714 158.866 210.962 158.589C211.21 158.313 211.503 158.15 211.839 158.1V157.7C211.378 157.443 211.033 157.053 210.803 156.529C210.581 156.005 210.454 155.333 210.418 154.513C210.4 153.871 210.386 153.297 210.377 152.793C210.369 152.28 210.365 151.785 210.365 151.311C210.365 150.837 210.369 150.328 210.377 149.784C210.386 149.241 210.4 148.618 210.418 147.916C210.454 147.057 210.59 146.36 210.829 145.826C211.068 145.283 211.432 144.892 211.919 144.655C212.415 144.408 213.062 144.285 213.859 144.285C214.718 144.285 215.392 144.423 215.879 144.7C216.375 144.967 216.738 145.401 216.969 146.004H217.314C217.35 145.49 217.5 145.11 217.766 144.863C218.041 144.606 218.418 144.477 218.896 144.477V146.049H218.471C218.134 146.049 217.869 146.217 217.674 146.553C217.479 146.889 217.376 147.403 217.367 148.094L217.341 149.755C217.349 150.18 217.355 150.58 217.355 150.955C217.355 151.331 217.355 151.701 217.355 152.067C217.355 152.423 217.349 152.798 217.341 153.194C217.341 153.589 217.332 154.029 217.314 154.513C217.27 155.373 217.128 156.069 216.889 156.603C216.65 157.137 216.283 157.527 215.787 157.774C215.3 158.011 214.656 158.13 213.859 158.13C213.195 158.11 212.713 158.199 212.411 158.397C212.119 158.584 211.972 158.886 211.972 159.301V159.479C211.981 159.736 212.048 159.938 212.172 160.087C212.305 160.235 212.518 160.348 212.81 160.428C213.102 160.497 213.501 160.546 214.006 160.576C215.229 160.615 216.162 160.838 216.809 161.243C217.456 161.648 217.815 162.374 217.886 163.422C217.895 163.55 217.899 163.679 217.899 163.807C217.899 163.936 217.895 164.069 217.886 164.208C217.842 164.939 217.651 165.512 217.314 165.927C216.977 166.352 216.522 166.648 215.946 166.816C215.37 166.994 214.706 167.083 213.953 167.083ZM213.98 165.556C214.431 165.556 214.825 165.517 215.161 165.438C215.498 165.359 215.764 165.216 215.959 165.008C216.162 164.8 216.278 164.504 216.304 164.119C216.313 164 216.313 163.886 216.304 163.778C216.304 163.679 216.301 163.575 216.292 163.466C216.265 163.071 216.154 162.78 215.959 162.592C215.773 162.414 215.512 162.29 215.175 162.221C214.839 162.152 214.444 162.108 213.992 162.088C213.319 162.038 212.792 162.112 212.411 162.31C212.031 162.508 211.821 162.903 211.786 163.496C211.777 163.595 211.774 163.699 211.774 163.807C211.774 163.916 211.777 164.02 211.786 164.119C211.813 164.524 211.915 164.83 212.093 165.038C212.279 165.245 212.53 165.384 212.849 165.453C213.168 165.522 213.545 165.556 213.98 165.556ZM213.859 156.559C214.461 156.559 214.892 156.425 215.149 156.158C215.406 155.882 215.548 155.397 215.574 154.706C215.592 154.182 215.604 153.633 215.613 153.06C215.631 152.487 215.64 151.899 215.64 151.296C215.64 150.684 215.631 150.076 215.613 149.473C215.604 148.87 215.592 148.282 215.574 147.709C215.548 147.007 215.406 146.523 215.149 146.256C214.892 145.98 214.461 145.841 213.859 145.841C213.257 145.841 212.823 145.98 212.557 146.256C212.3 146.523 212.163 147.007 212.146 147.709C212.128 148.312 212.114 148.92 212.105 149.532C212.096 150.145 212.093 150.748 212.093 151.341C212.093 151.924 212.096 152.497 212.105 153.06C212.114 153.624 212.128 154.167 212.146 154.691C212.172 155.383 212.314 155.867 212.571 156.144C212.828 156.42 213.257 156.559 213.859 156.559ZM220.365 162.266V144.477H222.133V146.167H222.505C222.656 145.515 222.89 145.065 223.209 144.818C223.537 144.561 223.976 144.433 224.525 144.433C224.667 144.433 224.812 144.438 224.963 144.448C225.122 144.458 225.255 144.463 225.362 144.463V146.049H224.538C223.794 146.049 223.241 146.202 222.878 146.508C222.523 146.815 222.275 147.314 222.133 148.005V162.266H220.365ZM228.671 162.458C227.812 162.458 227.178 162.177 226.77 161.613C226.363 161.05 226.12 160.21 226.04 159.093C226.031 158.846 226.023 158.594 226.014 158.337C226.005 158.08 226.005 157.833 226.014 157.596C226.058 156.904 226.164 156.277 226.333 155.714C226.501 155.15 226.77 154.636 227.142 154.172C227.523 153.708 228.042 153.263 228.698 152.838C229.079 152.591 229.472 152.354 229.88 152.126C230.287 151.899 230.695 151.687 231.102 151.489V147.709C231.102 147.057 230.992 146.582 230.771 146.286C230.549 145.989 230.151 145.841 229.575 145.841C229.07 145.841 228.693 145.97 228.445 146.227C228.197 146.484 228.06 146.963 228.034 147.665C228.025 147.892 228.016 148.178 228.007 148.524C228.007 148.86 228.007 149.211 228.007 149.577C228.016 149.932 228.025 150.254 228.034 150.54H226.318C226.31 150.145 226.301 149.695 226.292 149.191C226.283 148.687 226.283 148.238 226.292 147.842C226.318 147.002 226.448 146.32 226.678 145.797C226.908 145.273 227.263 144.892 227.741 144.655C228.22 144.408 228.849 144.285 229.628 144.285C230.443 144.285 231.081 144.418 231.542 144.685C232.011 144.942 232.343 145.352 232.537 145.915C232.741 146.469 232.844 147.195 232.844 148.094V162.266H231.09V160.665H230.798C230.603 161.228 230.346 161.668 230.027 161.984C229.708 162.3 229.256 162.458 228.671 162.458ZM229.256 160.932C229.708 160.932 230.084 160.788 230.385 160.502C230.695 160.205 230.934 159.775 231.102 159.212V153.12C230.792 153.258 230.473 153.421 230.146 153.609C229.827 153.796 229.469 154.058 229.07 154.394C228.565 154.809 228.228 155.279 228.06 155.803C227.892 156.317 227.794 156.914 227.768 157.596C227.759 157.774 227.754 157.987 227.754 158.234C227.762 158.481 227.771 158.728 227.78 158.975C227.824 159.597 227.975 160.082 228.232 160.428C228.489 160.764 228.831 160.932 229.256 160.932ZM229.017 143.292L230.877 139.927H232.206L230.293 143.292H229.017ZM235.918 162.266V146.049H234.708V144.477H235.918V141.913C235.918 140.638 236.175 139.719 236.689 139.156C237.212 138.592 238.057 138.311 239.226 138.311C239.465 138.311 239.731 138.331 240.023 138.37C240.325 138.41 240.59 138.454 240.821 138.504V140.016C240.581 139.986 240.333 139.961 240.077 139.941C239.82 139.922 239.545 139.912 239.253 139.912C238.686 139.912 238.278 140.05 238.03 140.327C237.791 140.604 237.676 141.088 237.685 141.78V144.477H240.41V146.049H237.685V162.266H235.918ZM241.432 140.92V138.548H244.223V140.92H241.432ZM241.951 162.266V144.477H243.705V162.266H241.951ZM251.416 150.54C251.434 150.204 251.443 149.863 251.443 149.517C251.452 149.172 251.452 148.836 251.443 148.509C251.443 148.183 251.443 147.902 251.443 147.665C251.425 146.963 251.287 146.484 251.03 146.227C250.782 145.97 250.374 145.841 249.807 145.841C249.231 145.841 248.82 145.97 248.572 146.227C248.324 146.484 248.191 146.963 248.174 147.665C248.156 148.722 248.142 149.715 248.133 150.644C248.124 151.563 248.121 152.467 248.121 153.357C248.121 154.246 248.124 155.15 248.133 156.069C248.142 156.988 248.156 157.977 248.174 159.034C248.191 159.756 248.324 160.25 248.572 160.516C248.829 160.773 249.246 160.902 249.821 160.902C250.388 160.902 250.796 160.773 251.044 160.516C251.292 160.25 251.425 159.756 251.443 159.034C251.443 158.649 251.443 158.219 251.443 157.744C251.452 157.27 251.443 156.741 251.416 156.158H253.144C253.17 156.603 253.183 157.068 253.183 157.552C253.191 158.036 253.188 158.471 253.17 158.856C253.126 160.141 252.846 161.065 252.332 161.628C251.827 162.192 250.991 162.473 249.821 162.473C248.634 162.473 247.779 162.192 247.256 161.628C246.733 161.065 246.45 160.141 246.405 158.856C246.388 158.056 246.375 157.191 246.366 156.262C246.358 155.333 246.352 154.384 246.352 153.416C246.352 152.438 246.358 151.479 246.366 150.54C246.375 149.601 246.388 148.727 246.405 147.916C246.459 146.612 246.742 145.678 247.256 145.115C247.779 144.552 248.629 144.27 249.807 144.27C250.986 144.27 251.833 144.547 252.346 145.1C252.869 145.653 253.144 146.572 253.17 147.857C253.179 148.243 253.183 148.673 253.183 149.147C253.183 149.621 253.17 150.086 253.144 150.54H251.416ZM258.92 162.473C258.096 162.473 257.435 162.345 256.939 162.088C256.443 161.821 256.08 161.406 255.849 160.843C255.628 160.279 255.5 159.538 255.465 158.619C255.438 157.819 255.415 156.979 255.397 156.099C255.389 155.21 255.385 154.31 255.385 153.401C255.385 152.482 255.389 151.578 255.397 150.688C255.415 149.799 255.438 148.944 255.465 148.124C255.5 147.205 255.628 146.464 255.849 145.9C256.08 145.337 256.443 144.927 256.939 144.67C257.435 144.403 258.096 144.27 258.92 144.27C259.752 144.27 260.412 144.403 260.899 144.67C261.386 144.927 261.74 145.337 261.962 145.9C262.192 146.464 262.325 147.205 262.361 148.124C262.378 148.924 262.393 149.769 262.401 150.659C262.419 151.548 262.428 152.448 262.428 153.357C262.428 154.266 262.419 155.17 262.401 156.069C262.393 156.959 262.378 157.809 262.361 158.619C262.325 159.528 262.192 160.269 261.962 160.843C261.74 161.406 261.386 161.821 260.899 162.088C260.412 162.345 259.752 162.473 258.92 162.473ZM258.92 160.902C259.504 160.902 259.924 160.764 260.181 160.487C260.438 160.21 260.576 159.726 260.594 159.034C260.621 157.977 260.642 156.988 260.66 156.069C260.677 155.15 260.686 154.251 260.686 153.372C260.686 152.492 260.677 151.593 260.66 150.674C260.642 149.755 260.621 148.771 260.594 147.724C260.576 147.022 260.443 146.533 260.195 146.256C259.947 145.98 259.522 145.841 258.92 145.841C258.317 145.841 257.887 145.98 257.63 146.256C257.373 146.533 257.237 147.022 257.219 147.724C257.192 148.771 257.169 149.755 257.151 150.674C257.143 151.593 257.139 152.497 257.139 153.386C257.139 154.266 257.143 155.165 257.151 156.084C257.169 157.003 257.192 157.987 257.219 159.034C257.237 159.726 257.373 160.21 257.63 160.487C257.896 160.764 258.326 160.902 258.92 160.902Z" fill="#1C1C1C"/>
<path d="M449.31 126.897C448.088 126.897 447.205 126.596 446.665 125.993C446.134 125.38 445.841 124.377 445.788 122.984C445.779 122.371 445.776 121.813 445.776 121.309C445.776 120.805 445.779 120.301 445.788 119.797C445.797 119.283 445.811 118.72 445.829 118.107H447.516C447.48 118.987 447.462 119.861 447.462 120.731C447.462 121.6 447.48 122.45 447.516 123.28C447.542 123.952 447.693 124.442 447.967 124.748C448.242 125.054 448.685 125.207 449.296 125.207C449.881 125.207 450.303 125.054 450.559 124.748C450.816 124.442 450.962 123.952 450.997 123.28C451.024 122.727 451.041 122.233 451.05 121.798C451.059 121.353 451.059 120.904 451.05 120.449C451.041 119.985 451.024 119.441 450.997 118.819C450.979 118.087 450.887 117.475 450.719 116.98C450.559 116.476 450.223 116.15 449.709 116.002L448.327 115.602C447.645 115.414 447.122 115.132 446.759 114.757C446.396 114.371 446.142 113.867 446.001 113.245C445.868 112.622 445.788 111.856 445.761 110.947C445.753 110.305 445.749 109.603 445.749 108.842C445.758 108.081 445.767 107.345 445.776 106.634C445.802 105.715 445.93 104.973 446.16 104.41C446.39 103.837 446.759 103.422 447.264 103.165C447.778 102.898 448.455 102.765 449.296 102.765C450.466 102.765 451.313 103.066 451.835 103.669C452.358 104.272 452.641 105.27 452.686 106.663C452.703 107.207 452.707 107.879 452.698 108.679C452.698 109.47 452.686 110.31 452.659 111.199H450.958C450.985 110.389 450.997 109.583 450.997 108.783C451.006 107.973 450.997 107.167 450.971 106.367C450.953 105.695 450.808 105.206 450.533 104.899C450.267 104.593 449.845 104.44 449.27 104.44C448.667 104.44 448.238 104.593 447.981 104.899C447.725 105.206 447.578 105.695 447.542 106.367C447.507 107.118 447.489 107.879 447.489 108.65C447.498 109.411 447.516 110.176 447.542 110.947C447.56 111.827 447.654 112.489 447.822 112.934C447.99 113.378 448.339 113.67 448.871 113.808L450.173 114.164C450.873 114.342 451.405 114.628 451.768 115.024C452.14 115.419 452.397 115.933 452.539 116.565C452.68 117.188 452.76 117.939 452.778 118.819C452.796 119.431 452.804 119.95 452.804 120.375C452.804 120.79 452.801 121.195 452.792 121.591C452.792 121.986 452.783 122.45 452.765 122.984C452.721 124.377 452.432 125.38 451.901 125.993C451.369 126.596 450.506 126.897 449.31 126.897ZM458.513 126.883C457.308 126.883 456.444 126.606 455.921 126.052C455.398 125.489 455.111 124.565 455.058 123.28C455.04 122.48 455.026 121.62 455.017 120.701C455.008 119.772 455.005 118.819 455.005 117.84C455.005 116.862 455.008 115.903 455.017 114.964C455.026 114.026 455.04 113.151 455.058 112.341C455.111 111.036 455.404 110.107 455.935 109.554C456.476 108.991 457.33 108.709 458.499 108.709C459.633 108.709 460.453 108.986 460.958 109.539C461.472 110.083 461.759 110.992 461.821 112.267C461.83 112.573 461.839 113.023 461.848 113.615C461.857 114.208 461.857 114.9 461.848 115.691C461.848 116.471 461.83 117.311 461.795 118.211H456.771C456.771 119.021 456.777 119.856 456.786 120.716C456.803 121.576 456.816 122.49 456.825 123.458C456.842 124.17 456.981 124.659 457.237 124.926C457.494 125.193 457.911 125.326 458.487 125.326C459.045 125.326 459.443 125.193 459.683 124.926C459.922 124.659 460.055 124.17 460.081 123.458C460.099 123.093 460.108 122.668 460.108 122.183C460.108 121.699 460.099 121.161 460.081 120.568H461.795C461.821 121.012 461.835 121.482 461.835 121.976C461.844 122.46 461.839 122.895 461.821 123.28C461.759 124.565 461.484 125.489 460.997 126.052C460.51 126.606 459.683 126.883 458.513 126.883ZM456.771 116.684H460.108C460.117 116.051 460.12 115.434 460.12 114.831C460.12 114.218 460.117 113.67 460.108 113.186C460.099 112.701 460.09 112.336 460.081 112.089C460.055 111.436 459.916 110.972 459.668 110.695C459.429 110.409 459.039 110.265 458.499 110.265C457.914 110.265 457.494 110.409 457.237 110.695C456.981 110.972 456.842 111.436 456.825 112.089C456.816 112.939 456.807 113.739 456.798 114.49C456.789 115.231 456.78 115.963 456.771 116.684ZM469.39 132.619V125.104H469.071C468.806 125.736 468.496 126.196 468.141 126.482C467.796 126.759 467.353 126.897 466.812 126.897C465.98 126.897 465.342 126.621 464.899 126.067C464.456 125.514 464.213 124.615 464.169 123.369C464.16 122.707 464.146 121.912 464.128 120.983C464.119 120.054 464.116 119.071 464.116 118.033C464.116 116.995 464.119 115.972 464.128 114.964C464.137 113.956 464.151 113.042 464.169 112.222C464.213 110.957 464.438 110.053 464.846 109.509C465.262 108.966 465.887 108.694 466.72 108.694C467.349 108.694 467.828 108.842 468.155 109.139C468.492 109.425 468.793 109.875 469.059 110.488H469.39V108.902H471.144V132.619H469.39ZM467.385 125.356C467.916 125.356 468.336 125.217 468.646 124.941C468.956 124.664 469.204 124.199 469.39 123.547V112.044C469.213 111.412 468.944 110.952 468.581 110.666C468.226 110.379 467.796 110.236 467.291 110.236C466.821 110.236 466.481 110.379 466.268 110.666C466.065 110.952 465.953 111.427 465.935 112.089C465.9 113.502 465.873 114.856 465.856 116.15C465.847 117.445 465.847 118.7 465.856 119.915C465.864 121.121 465.891 122.317 465.935 123.503C465.953 124.155 466.082 124.629 466.322 124.926C466.561 125.212 466.915 125.356 467.385 125.356ZM476.506 126.897C475.673 126.897 475.035 126.621 474.592 126.067C474.158 125.514 473.942 124.615 473.942 123.369V108.902H475.709V123.503C475.709 124.155 475.815 124.629 476.028 124.926C476.249 125.212 476.595 125.356 477.064 125.356C477.534 125.356 477.959 125.198 478.34 124.881C478.721 124.565 478.995 124.12 479.164 123.547V108.902H480.932V126.69H479.164V125.104H478.845C478.588 125.707 478.265 126.156 477.875 126.453C477.486 126.749 477.029 126.897 476.506 126.897ZM487.089 126.883C485.884 126.883 485.019 126.606 484.497 126.052C483.974 125.489 483.687 124.565 483.634 123.28C483.616 122.48 483.602 121.62 483.593 120.701C483.584 119.772 483.581 118.819 483.581 117.84C483.581 116.862 483.584 115.903 483.593 114.964C483.602 114.026 483.616 113.151 483.634 112.341C483.687 111.036 483.979 110.107 484.511 109.554C485.051 108.991 485.905 108.709 487.075 108.709C488.209 108.709 489.029 108.986 489.534 109.539C490.048 110.083 490.335 110.992 490.397 112.267C490.406 112.573 490.415 113.023 490.423 113.615C490.432 114.208 490.432 114.9 490.423 115.691C490.423 116.471 490.406 117.311 490.37 118.211H485.347C485.347 119.021 485.353 119.856 485.361 120.716C485.379 121.576 485.392 122.49 485.4 123.458C485.418 124.17 485.556 124.659 485.813 124.926C486.07 125.193 486.487 125.326 487.062 125.326C487.62 125.326 488.019 125.193 488.258 124.926C488.498 124.659 488.63 124.17 488.657 123.458C488.675 123.093 488.684 122.668 488.684 122.183C488.684 121.699 488.675 121.161 488.657 120.568H490.37C490.397 121.012 490.411 121.482 490.411 121.976C490.42 122.46 490.415 122.895 490.397 123.28C490.335 124.565 490.06 125.489 489.573 126.052C489.086 126.606 488.258 126.883 487.089 126.883ZM485.347 116.684H488.684C488.692 116.051 488.696 115.434 488.696 114.831C488.696 114.218 488.692 113.67 488.684 113.186C488.675 112.701 488.666 112.336 488.657 112.089C488.63 111.436 488.492 110.972 488.244 110.695C488.005 110.409 487.615 110.265 487.075 110.265C486.49 110.265 486.07 110.409 485.813 110.695C485.556 110.972 485.418 111.436 485.4 112.089C485.392 112.939 485.383 113.739 485.374 114.49C485.365 115.231 485.356 115.963 485.347 116.684ZM492.943 126.69V108.902H494.709V110.488H495.096C495.344 109.915 495.645 109.475 495.999 109.168C496.363 108.852 496.841 108.694 497.435 108.694C498.267 108.694 498.891 108.966 499.307 109.509C499.724 110.053 499.936 110.957 499.945 112.222V126.69H498.191V112.089C498.182 111.427 498.067 110.952 497.846 110.666C497.633 110.379 497.287 110.236 496.809 110.236C496.348 110.236 495.928 110.394 495.548 110.71C495.167 111.016 494.887 111.461 494.709 112.044V126.69H492.943ZM507.591 114.964C507.608 114.628 507.617 114.287 507.617 113.942C507.626 113.596 507.626 113.26 507.617 112.934C507.617 112.607 507.617 112.326 507.617 112.089C507.599 111.387 507.461 110.908 507.204 110.651C506.956 110.394 506.549 110.265 505.982 110.265C505.406 110.265 504.995 110.394 504.747 110.651C504.499 110.908 504.366 111.387 504.348 112.089C504.33 113.146 504.316 114.139 504.307 115.068C504.299 115.987 504.295 116.891 504.295 117.781C504.295 118.67 504.299 119.575 504.307 120.494C504.316 121.413 504.33 122.401 504.348 123.458C504.366 124.18 504.499 124.674 504.747 124.941C505.004 125.198 505.42 125.326 505.996 125.326C506.563 125.326 506.97 125.198 507.218 124.941C507.467 124.674 507.599 124.18 507.617 123.458C507.617 123.073 507.617 122.643 507.617 122.169C507.626 121.694 507.617 121.166 507.591 120.583H509.318C509.345 121.027 509.357 121.492 509.357 121.976C509.366 122.46 509.362 122.895 509.345 123.28C509.3 124.565 509.02 125.489 508.507 126.052C508.002 126.616 507.165 126.897 505.996 126.897C504.809 126.897 503.953 126.616 503.43 126.052C502.908 125.489 502.624 124.565 502.58 123.28C502.562 122.48 502.55 121.615 502.541 120.686C502.532 119.757 502.527 118.809 502.527 117.84C502.527 116.862 502.532 115.903 502.541 114.964C502.55 114.026 502.562 113.151 502.58 112.341C502.633 111.036 502.917 110.102 503.43 109.539C503.953 108.976 504.804 108.694 505.982 108.694C507.16 108.694 508.007 108.971 508.521 109.524C509.043 110.078 509.318 110.997 509.345 112.281C509.354 112.667 509.357 113.097 509.357 113.571C509.357 114.045 509.345 114.51 509.318 114.964H507.591ZM511.306 105.344V102.972H514.097V105.344H511.306ZM511.825 126.69V108.902H513.579V126.69H511.825ZM518.716 126.883C517.856 126.883 517.224 126.601 516.816 126.038C516.409 125.474 516.164 124.634 516.085 123.518C516.076 123.271 516.067 123.019 516.058 122.762C516.049 122.505 516.049 122.258 516.058 122.02C516.102 121.329 516.209 120.701 516.377 120.138C516.545 119.575 516.816 119.061 517.188 118.596C517.569 118.132 518.087 117.687 518.742 117.262C519.123 117.015 519.518 116.778 519.926 116.551C520.333 116.323 520.741 116.111 521.148 115.913V112.133C521.148 111.481 521.037 111.007 520.815 110.71C520.594 110.414 520.195 110.265 519.619 110.265C519.114 110.265 518.739 110.394 518.491 110.651C518.243 110.908 518.104 111.387 518.078 112.089C518.069 112.316 518.06 112.603 518.051 112.948C518.051 113.284 518.051 113.635 518.051 114.001C518.06 114.357 518.069 114.678 518.078 114.964H516.365C516.356 114.569 516.347 114.119 516.338 113.615C516.329 113.111 516.329 112.662 516.338 112.267C516.365 111.427 516.492 110.745 516.723 110.221C516.953 109.697 517.307 109.317 517.786 109.079C518.264 108.832 518.893 108.709 519.673 108.709C520.488 108.709 521.125 108.842 521.586 109.109C522.056 109.366 522.389 109.776 522.584 110.339C522.787 110.893 522.888 111.619 522.888 112.519V126.69H521.134V125.089H520.842C520.647 125.652 520.39 126.092 520.071 126.408C519.752 126.724 519.3 126.883 518.716 126.883ZM519.3 125.356C519.752 125.356 520.13 125.212 520.431 124.926C520.741 124.629 520.98 124.199 521.148 123.636V117.544C520.838 117.682 520.519 117.845 520.192 118.033C519.873 118.221 519.513 118.483 519.114 118.819C518.609 119.234 518.273 119.703 518.105 120.227C517.936 120.741 517.839 121.339 517.812 122.02C517.803 122.198 517.8 122.411 517.8 122.658C517.809 122.905 517.817 123.152 517.826 123.399C517.871 124.022 518.021 124.506 518.278 124.852C518.535 125.188 518.875 125.356 519.3 125.356ZM525.723 126.69V102.972H527.49V126.69H525.723Z" fill="#1C1C1C"/>
</g>
<defs>
<clipPath id="clip0_941_5600">
<rect width="528" height="168" fill="white" transform="translate(0 0.195312)"/>
</clipPath>
</defs>
</svg>
