<svg width="14" height="14" viewBox="0 0 14 14" fill="none" xmlns="http://www.w3.org/2000/svg">
<path d="M12.2814 0.0527344H0.979194C0.437788 0.0527344 0 0.500514 0 1.05413V12.9434C0 13.497 0.437788 13.9475 0.979194 13.9475H12.2814C12.8228 13.9475 13.2632 13.497 13.2632 12.9461V1.05413C13.2632 0.500514 12.8228 0.0527344 12.2814 0.0527344ZM3.93491 11.8931H1.96616V5.26055H3.93491V11.8931ZM2.95053 4.35685C2.31846 4.35685 1.80814 3.82222 1.80814 3.16277C1.80814 2.50331 2.31846 1.96869 2.95053 1.96869C3.58002 1.96869 4.09034 2.50331 4.09034 3.16277C4.09034 3.81951 3.58002 4.35685 2.95053 4.35685ZM11.3022 11.8931H9.33602V8.6691C9.33602 7.90109 9.32307 6.91055 8.31279 6.91055C7.28956 6.91055 7.13413 7.74912 7.13413 8.61482V11.8931H5.17056V5.26055H7.05641V6.16696H7.08232C7.34396 5.64591 7.98639 5.095 8.94227 5.095C10.9343 5.095 11.3022 6.46819 11.3022 8.25389V11.8931Z" fill="#161722"/>
</svg>
