<svg width="162" height="102" viewBox="0 0 162 102" fill="none" xmlns="http://www.w3.org/2000/svg">
<g clip-path="url(#clip0_33_177)">
<mask id="mask0_33_177" style="mask-type:luminance" maskUnits="userSpaceOnUse" x="0" y="25" width="162" height="52">
<path d="M162 25H0V77H162V25Z" fill="white"/>
</mask>
<g mask="url(#mask0_33_177)">
<path d="M162 52.422H156.802V50.4793H154.961V41.6757C154.961 39.8562 154.315 38.2821 152.996 37.0036C151.678 35.7001 150.11 35.061 148.27 35.061C146.429 35.061 144.838 35.7001 143.544 37.0036C142.226 38.3069 141.579 39.8562 141.579 41.6757V52.4465H130.088C131.133 52.1516 132.052 51.586 132.874 50.7745C134.191 49.471 134.838 47.9219 134.838 46.1022V41.6757C134.838 39.8562 134.192 38.2821 132.874 37.0036C131.556 35.7001 129.988 35.061 128.148 35.061H121.456V50.5039H118.298V52.4465H109.965C110.985 52.1516 111.905 51.586 112.727 50.7745C114.044 49.471 114.691 47.9219 114.691 46.1022V41.6757C114.691 39.8562 114.044 38.2821 112.727 37.0036C111.408 35.7001 109.841 35.061 108 35.061H101.309V52.4465H94.5683V40.0774H92.3297V52.422H89.3201L83.5243 35.0364H81.1873V52.422H74.4457V37.0773H76.3615V34.8887H70.3417V37.0773H72.2077V52.422H54.2983V41.6514C54.2983 40.4214 54.7465 39.3887 55.6166 38.5283C56.4873 37.6678 57.5325 37.2251 58.7759 37.2251C60.0194 37.2251 61.0641 37.6678 61.9344 38.5283C62.8056 39.3887 63.253 40.4214 63.253 41.6514V43.3973H61.3623V45.5855H67.3819V43.3973H65.4916V41.6514C65.4916 39.8316 64.8446 38.2577 63.5267 36.9788C62.2083 35.676 60.641 35.0364 58.8004 35.0364C56.9599 35.0364 55.3679 35.676 54.0745 36.9788C52.7562 38.2821 52.1093 39.8316 52.1093 41.6514V52.422H47.2843V50.4793H45.3445V41.6757C45.3445 39.8562 44.6975 38.2821 43.3792 37.0036C42.0607 35.7001 40.4938 35.061 38.653 35.061C36.8126 35.061 35.2206 35.7001 33.9272 37.0036C32.6089 38.3069 31.9625 39.8562 31.9625 41.6757V52.4465H23.2314C21.9134 51.1679 20.346 50.5039 18.5061 50.5039C17.2617 50.5039 16.2172 50.0612 15.3467 49.2004C14.4763 48.34 14.0285 47.3069 14.0285 46.0777V41.6514C14.0285 40.4214 14.4763 39.3887 15.3467 38.5283C16.2172 37.6678 17.2617 37.2251 18.5061 37.2251C19.7495 37.2251 20.7938 37.6678 21.6647 38.5283C22.535 39.3887 22.9828 40.4214 22.9828 41.6514V42.3151H21.0678V44.504H26.9626V42.3151H25.0972V41.6514C25.0972 39.8316 24.4507 38.2577 23.1324 36.9792C21.8137 35.676 20.2468 35.0364 18.4062 35.0364C16.5657 35.0364 14.9738 35.676 13.6799 36.9792C12.3616 38.2821 11.7147 39.8316 11.7147 41.6514V46.0777C11.7147 47.8976 12.3616 49.471 13.6799 50.7498C14.5011 51.5614 15.4211 52.1022 16.441 52.422H3.20817C3.08431 51.6597 2.41252 51.0695 1.61686 51.0695C0.721293 51.0695 0 51.7826 0 52.6678C0 53.5532 0.721293 54.2663 1.61686 54.2663C2.41252 54.2663 3.08431 53.6761 3.20817 52.9136H19.8239C20.4708 53.1105 21.0429 53.4795 21.5651 53.9959C22.436 54.8565 22.8833 55.8894 22.8833 57.1189V61.5454C22.8833 61.9876 22.8338 62.3812 22.709 62.7747H24.9975C25.0718 62.3812 25.0972 61.9635 25.0972 61.5454V57.1189C25.0972 55.5204 24.5997 54.1188 23.5797 52.9136H31.8381V61.5206C31.8381 63.3403 32.4846 64.9144 33.8029 66.1927C35.1209 67.496 36.6883 68.1356 38.5282 68.1356C40.3691 68.1356 41.9611 67.496 43.2549 66.1927C44.5732 64.8896 45.2196 63.3403 45.2196 61.5206V52.9136H51.9606V61.5206C51.9606 63.3403 52.6071 64.9144 53.9254 66.1927C55.2436 67.496 56.8108 68.1356 58.6512 68.1356C60.4916 68.1356 62.084 67.496 63.3774 66.1927C64.6952 64.8896 65.3423 63.3403 65.3423 61.5206V59.3071H63.1036V61.5206C63.1036 62.7502 62.6563 63.7828 61.7854 64.6438C60.9149 65.5044 59.8702 65.9467 58.6267 65.9467C57.3831 65.9467 56.3383 65.5044 55.4679 64.6438C54.5969 63.7828 54.1496 62.7502 54.1496 61.5206V52.9136H72.0577V62.7502H74.2964V52.9136H81.0373V68.1356H83.2754V52.9136H87.0074L90.2901 62.7747H94.4196V52.9136H101.161V62.7747H103.399V52.9136H121.307V68.1356H123.546V52.9136H126.381L132.326 68.1356H134.713L128.769 52.9136H141.479V61.5206C141.479 63.3403 142.126 64.9144 143.445 66.1927C144.763 67.4716 146.33 68.1356 148.171 68.1356C150.011 68.1356 151.603 67.496 152.897 66.1927C154.19 64.8896 154.861 63.3403 154.861 61.5206V52.9136H161.876V52.422H162ZM103.524 37.2496H108C109.244 37.2496 110.289 37.6923 111.159 38.5527C112.03 39.4137 112.477 40.4464 112.477 41.6757V46.1022C112.477 47.3318 112.03 48.3644 111.159 49.2252C110.289 50.0858 109.244 50.5287 108 50.5287H103.524V37.2496ZM143.817 41.6514C143.817 40.4214 144.265 39.3887 145.136 38.5283C146.006 37.6678 147.052 37.2251 148.295 37.2251C149.539 37.2251 150.584 37.6678 151.454 38.5283C152.325 39.3887 152.772 40.4214 152.772 41.6514V50.4547H150.832V52.3974H143.842V41.6514H143.817ZM123.671 37.2496H128.148C129.391 37.2496 130.436 37.6923 131.306 38.5527C132.177 39.4137 132.625 40.4464 132.625 41.6757V46.1022C132.625 47.3318 132.177 48.3644 131.306 49.2252C130.436 50.0858 129.391 50.5287 128.148 50.5287H124.317V50.5039H123.671V37.2496ZM83.3756 41.7251L86.9576 52.422H83.3756V41.7251ZM34.0761 41.6514C34.0761 40.4214 34.5241 39.3887 35.3948 38.5283C36.2649 37.6678 37.3101 37.2251 38.5535 37.2251C39.7977 37.2251 40.842 37.6678 41.7124 38.5283C42.5834 39.3887 43.0307 40.4214 43.0307 41.6514V50.4547H41.1903V52.3974H34.1015V41.6514H34.0761ZM43.0307 61.5206C43.0307 62.7502 42.5834 63.7828 41.7124 64.6438C40.842 65.5044 39.7977 65.9467 38.5535 65.9467C37.3101 65.9467 36.2649 65.5044 35.3948 64.6438C34.5241 63.7828 34.0761 62.7502 34.0761 61.5206V52.9136H43.0059V61.5206H43.0307ZM92.3054 61.4714L89.4445 52.9136H92.3054V61.4714ZM152.747 61.5206C152.747 62.7502 152.3 63.7828 151.429 64.6438C150.558 65.5044 149.514 65.9467 148.271 65.9467C147.027 65.9467 145.982 65.5044 145.111 64.6438C144.241 63.7828 143.793 62.7502 143.793 61.5206V52.9136H152.723V61.5206H152.747Z" fill="white"/>
<path d="M13.9294 59.3322H11.6907V61.5455C11.6907 61.9636 11.7148 62.3812 11.7899 62.7747H14.0781C13.9786 62.3812 13.9043 61.9877 13.9043 61.5455V59.3322H13.9294Z" fill="white"/>
</g>
</g>
<defs>
<clipPath id="clip0_33_177">
<rect width="162" height="42" fill="white" transform="translate(0 30)"/>
</clipPath>
</defs>
</svg>
