<svg width="186" height="49" viewBox="0 0 186 49" fill="none" xmlns="http://www.w3.org/2000/svg">
<mask id="mask0_977_4935" style="mask-type:luminance" maskUnits="userSpaceOnUse" x="0" y="-6" width="186" height="61">
<path d="M185.75 -5.21387H0.75V54.2147H185.75V-5.21387Z" fill="white"/>
</mask>
<g mask="url(#mask0_977_4935)">
<path d="M185.75 25.922H179.813V23.9793H177.712V15.1757C177.712 13.3562 176.973 11.7821 175.468 10.5036C173.962 9.2001 172.172 8.56097 170.071 8.56097C167.969 8.56097 166.151 9.2001 164.674 10.5036C163.168 11.8069 162.43 13.3562 162.43 15.1757V25.9465H149.307C150.5 25.6516 151.55 25.086 152.488 24.2745C153.993 22.971 154.732 21.4219 154.732 19.6022V15.1757C154.732 13.3562 153.994 11.7821 152.488 10.5036C150.983 9.2001 149.194 8.56097 147.092 8.56097H139.45V24.0039H135.843V25.9465H126.328C127.492 25.6516 128.543 25.086 129.481 24.2745C130.985 22.971 131.724 21.4219 131.724 19.6022V15.1757C131.724 13.3562 130.985 11.7821 129.481 10.5036C127.975 9.2001 126.186 8.56097 124.083 8.56097H116.443V25.9465H108.745V13.5774H106.188V25.922H102.751L96.1327 8.53639H93.4639V25.922H85.7652V10.5773H87.9529V8.38867H81.0785V10.5773H83.2094V25.922H62.7573V15.1514C62.7573 13.9214 63.2692 12.8887 64.2627 12.0283C65.2571 11.1678 66.4507 10.7251 67.8706 10.7251C69.2907 10.7251 70.4837 11.1678 71.4775 12.0283C72.4724 12.8887 72.9833 13.9214 72.9833 15.1514V16.8973H70.8242V19.0855H77.6984V16.8973H75.5398V15.1514C75.5398 13.3316 74.8009 11.7577 73.296 10.4788C71.7904 9.17597 70.0005 8.53639 67.8986 8.53639C65.7968 8.53639 63.9788 9.17597 62.5017 10.4788C60.9963 11.7821 60.2576 13.3316 60.2576 15.1514V25.922H54.7475V23.9793H52.5323V15.1757C52.5323 13.3562 51.7934 11.7821 50.288 10.5036C48.7823 9.2001 46.993 8.56097 44.8908 8.56097C42.7891 8.56097 40.971 9.2001 39.494 10.5036C37.9886 11.8069 37.2504 13.3562 37.2504 15.1757V25.9465H27.2797C25.7746 24.6679 23.9847 24.0039 21.8835 24.0039C20.4625 24.0039 19.2696 23.5612 18.2756 22.7004C17.2815 21.84 16.7702 20.8069 16.7702 19.5777V15.1514C16.7702 13.9214 17.2815 12.8887 18.2756 12.0283C19.2696 11.1678 20.4625 10.7251 21.8835 10.7251C23.3035 10.7251 24.496 11.1678 25.4906 12.0283C26.4844 12.8887 26.9958 13.9214 26.9958 15.1514V15.8151H24.8089V18.004H31.5407V15.8151H29.4103V15.1514C29.4103 13.3316 28.6721 11.7577 27.1667 10.4792C25.6607 9.17597 23.8713 8.53639 21.7694 8.53639C19.6677 8.53639 17.8497 9.17597 16.3721 10.4792C14.8667 11.7821 14.1279 13.3316 14.1279 15.1514V19.5777C14.1279 21.3976 14.8667 22.971 16.3721 24.2498C17.3099 25.0614 18.3605 25.6022 19.5252 25.922H4.41366C4.2722 25.1597 3.50503 24.5695 2.59642 24.5695C1.5737 24.5695 0.75 25.2826 0.75 26.1678C0.75 27.0532 1.5737 27.7663 2.59642 27.7663C3.50503 27.7663 4.2722 27.1761 4.41366 26.4136H23.3884C24.1271 26.6105 24.7805 26.9795 25.3768 27.4959C26.3714 28.3565 26.8822 29.3894 26.8822 30.6189V35.0454C26.8822 35.4876 26.8257 35.8812 26.6832 36.2747H29.2965C29.3814 35.8812 29.4103 35.4635 29.4103 35.0454V30.6189C29.4103 29.0204 28.8422 27.6188 27.6775 26.4136H37.1083V35.0206C37.1083 36.8403 37.8466 38.4144 39.3521 39.6927C40.8572 40.996 42.6471 41.6356 44.7482 41.6356C46.8505 41.6356 48.6685 40.996 50.1461 39.6927C51.6515 38.3896 52.3897 36.8403 52.3897 35.0206V26.4136H60.0878V35.0206C60.0878 36.8403 60.826 38.4144 62.3314 39.6927C63.8368 40.996 65.6265 41.6356 67.7282 41.6356C69.8299 41.6356 71.6484 40.996 73.1254 39.6927C74.6303 38.3896 75.3693 36.8403 75.3693 35.0206V32.8071H72.8128V35.0206C72.8128 36.2502 72.3019 37.2828 71.3074 38.1438C70.3133 39.0044 69.1203 39.4467 67.7003 39.4467C66.28 39.4467 65.087 39.0044 64.0929 38.1438C63.0983 37.2828 62.5875 36.2502 62.5875 35.0206V26.4136H83.0381V36.2502H85.5947V26.4136H93.2926V41.6356H95.8484V26.4136H100.11L103.859 36.2747H108.575V26.4136H116.273V36.2747H118.829V26.4136H139.28V41.6356H141.837V26.4136H145.075L151.863 41.6356H154.589L147.802 26.4136H162.316V35.0206C162.316 36.8403 163.055 38.4144 164.56 39.6927C166.066 40.9716 167.855 41.6356 169.958 41.6356C172.059 41.6356 173.877 40.996 175.354 39.6927C176.831 38.3896 177.598 36.8403 177.598 35.0206V26.4136H185.609V25.922H185.75ZM118.971 10.7496H124.083C125.503 10.7496 126.697 11.1923 127.691 12.0527C128.685 12.9137 129.196 13.9464 129.196 15.1757V19.6022C129.196 20.8318 128.685 21.8644 127.691 22.7252C126.697 23.5858 125.503 24.0287 124.083 24.0287H118.971V10.7496ZM164.986 15.1514C164.986 13.9214 165.498 12.8887 166.492 12.0283C167.486 11.1678 168.679 10.7251 170.099 10.7251C171.52 10.7251 172.713 11.1678 173.706 12.0283C174.701 12.8887 175.212 13.9214 175.212 15.1514V23.9547H172.997V25.8974H165.014V15.1514H164.986ZM141.979 10.7496H147.092C148.511 10.7496 149.704 11.1923 150.698 12.0527C151.692 12.9137 152.204 13.9464 152.204 15.1757V19.6022C152.204 20.8318 151.692 21.8644 150.698 22.7252C149.704 23.5858 148.511 24.0287 147.092 24.0287H142.717V24.0039H141.979V10.7496ZM95.9628 15.2251L100.053 25.922H95.9628V15.2251ZM39.6641 15.1514C39.6641 13.9214 40.1757 12.8887 41.17 12.0283C42.1636 11.1678 43.3572 10.7251 44.7772 10.7251C46.1979 10.7251 47.3905 11.1678 48.3846 12.0283C49.3792 12.8887 49.89 13.9214 49.89 15.1514V23.9547H47.7883V25.8974H39.693V15.1514H39.6641ZM49.89 35.0206C49.89 36.2502 49.3792 37.2828 48.3846 38.1438C47.3905 39.0044 46.1979 39.4467 44.7772 39.4467C43.3572 39.4467 42.1636 39.0044 41.17 38.1438C40.1757 37.2828 39.6641 36.2502 39.6641 35.0206V26.4136H49.8616V35.0206H49.89ZM106.16 34.9714L102.893 26.4136H106.16V34.9714ZM175.184 35.0206C175.184 36.2502 174.673 37.2828 173.678 38.1438C172.684 39.0044 171.491 39.4467 170.071 39.4467C168.651 39.4467 167.458 39.0044 166.463 38.1438C165.469 37.2828 164.958 36.2502 164.958 35.0206V26.4136H175.156V35.0206H175.184Z" fill="#004857"/>
<path d="M16.6581 34.0225H14.1016V36.5519C14.1016 37.0298 14.1291 37.5071 14.2148 37.9568H16.8279C16.7144 37.5071 16.6294 37.0573 16.6294 36.5519V34.0225H16.6581Z" fill="#004857"/>
</g>
</svg>
