<svg width="20" height="32" viewBox="0 0 20 32" fill="none" xmlns="http://www.w3.org/2000/svg">
<path d="M9.87783 24.271C13.9025 24.271 17.1814 20.9973 17.1814 16.9674V7.30362C17.1814 3.27895 13.9077 0 9.87783 0C5.84793 0 2.57422 3.27371 2.57422 7.30362V16.9674C2.57422 20.9921 5.84793 24.271 9.87783 24.271ZM9.87783 1.71691C12.9588 1.71691 15.4615 4.22288 15.4615 7.30061V10.9531H4.29113V7.30061C4.29113 4.21966 6.7971 1.71691 9.87483 1.71691H9.87783ZM9.87783 22.5545C6.79688 22.5545 4.29413 20.0486 4.29413 16.9708V12.6745H15.4645V16.9708C15.4645 20.0518 12.9586 22.5545 9.88084 22.5545H9.87783Z" fill="white"/>
<path d="M18.8974 11.5977C18.4247 11.5977 18.0392 11.9832 18.0392 12.4559V16.9668C18.0392 21.4674 14.3783 25.1287 9.87736 25.1287C5.37641 25.1287 1.7155 21.4677 1.7155 16.9668V12.4559C1.7155 11.9832 1.32996 11.5977 0.857263 11.5977C0.384544 11.5977 -0.000976562 11.9832 -0.000976562 12.4559V16.9668C-0.000976562 22.0828 3.94658 26.3688 9.01912 26.8065V30.2831H7.94632C7.4736 30.2831 7.08808 30.6686 7.08808 31.1413C7.08808 31.614 7.47362 31.9995 7.94632 31.9995H11.8134C12.2861 31.9995 12.6717 31.614 12.6717 31.1413C12.6717 30.6686 12.2861 30.2831 11.8134 30.2831H10.7406V26.8065C15.8162 26.369 19.7607 22.081 19.7607 16.9668V12.4559C19.7607 11.9832 19.3752 11.5977 18.9025 11.5977H18.8974Z" fill="white"/>
</svg>
