<svg width="33" height="33" viewBox="0 0 33 33" fill="none" xmlns="http://www.w3.org/2000/svg">
<g clip-path="url(#clip0_980_4977)">
<path d="M28.6249 27.903C20.5168 36.5612 5.99878 33.5439 1.96037 22.4461C-2.54535 10.0586 8.98664 -2.16889 21.6097 1.62298C32.9429 5.02849 36.7459 19.2337 28.6249 27.9048V27.903ZM6.67031 24.8986L24.9747 6.65489C25.0115 6.6273 24.9563 6.5997 24.936 6.57578C24.6766 6.27221 23.547 5.62827 23.1514 5.41853C13.91 0.517252 3.0753 7.90597 4.04121 18.2476C4.2675 20.6633 5.25549 22.9575 6.67031 24.8986ZM27.0592 8.69893L8.7677 26.9776C8.73275 27.0052 8.7861 27.0327 8.80634 27.0567C8.91857 27.1873 9.26814 27.421 9.42636 27.535C15.1114 31.6305 23.0502 30.4291 27.3223 24.9335C30.8529 20.391 31.0038 13.9185 27.5744 9.27112C27.4768 9.13865 27.2726 8.82588 27.1678 8.73573C27.1273 8.70077 27.1199 8.68422 27.0574 8.70077L27.0592 8.69893Z" fill="white"/>
<path d="M18.209 25.9615C18.1226 26.8078 18.5218 27.9761 17.5522 28.425C17.1438 28.6145 16.6673 28.5795 16.3011 28.3127C15.6002 27.7976 15.8669 26.8262 15.8062 26.081C14.7943 25.8971 13.8008 25.5751 12.9416 25.0011L12.3584 24.5264L14.0308 22.8632C14.9397 23.4667 15.9037 23.7831 17.0058 23.7206C18.6138 23.6286 20.8032 22.578 20.6376 20.6793C20.5382 19.5534 19.4546 18.8781 18.5328 18.4679C18.496 18.4513 18.4648 18.4899 18.4795 18.4053L20.2641 16.6299C22.1683 17.6639 23.4433 19.6969 22.9337 21.9157C22.4241 24.1345 20.3175 25.5622 18.209 25.9596V25.9615Z" fill="white"/>
<path d="M19.735 10.8123C18.4398 10.0432 16.9054 9.94573 15.4998 10.4793C13.5422 11.2207 12.5137 13.2372 14.3811 14.7734C14.6185 14.9684 14.8761 15.0843 15.1336 15.2352C15.1649 15.2536 15.198 15.2279 15.1851 15.3033C15.1557 15.4854 13.6765 16.7825 13.4723 17.0456C12.3224 16.3538 11.3362 15.1359 11.0823 13.7946C10.5065 10.7534 13.0436 8.45732 15.807 7.90353C15.8806 7.12897 15.5733 6.08947 16.3019 5.55408C16.9863 5.05181 18.0902 5.42713 18.2006 6.28265C18.2319 6.52918 18.1491 7.67907 18.2429 7.77106C18.2889 7.81706 19.0432 7.95504 19.1941 7.99736C19.9705 8.21446 20.7359 8.58978 21.3835 9.0663L19.735 10.8104V10.8123Z" fill="white"/>
</g>
<defs>
<clipPath id="clip0_980_4977">
<rect width="32" height="32" fill="white" transform="translate(0.964844 0.919922)"/>
</clipPath>
</defs>
</svg>
