<svg width="33" height="33" viewBox="0 0 33 33" fill="none" xmlns="http://www.w3.org/2000/svg">
<path d="M16.667 0.919922C7.82491 0.919922 0.666992 8.07779 0.666992 16.92C0.666992 25.7621 7.82491 32.9199 16.667 32.9199C25.509 32.9199 32.6669 25.7621 32.6669 16.92C32.6879 8.07779 25.509 0.919922 16.667 0.919922ZM21.2775 23.2358C20.5827 24.0778 19.6775 24.6463 18.6038 24.941C18.1406 25.0673 17.9302 25.32 17.9511 25.7831C17.9722 26.2462 17.9511 26.7305 17.9511 27.1936C17.9511 27.6147 17.7407 27.8462 17.3196 27.8462C16.8143 27.8673 16.3091 27.8673 15.7828 27.8462C15.3406 27.8462 15.1302 27.5936 15.1302 27.1515V26.12C15.1302 25.362 15.088 25.32 14.3722 25.2147C13.4249 25.0673 12.5196 24.8568 11.6565 24.4357C10.9828 24.0989 10.9197 23.9305 11.1091 23.2358C11.2565 22.7094 11.4038 22.1831 11.5512 21.6568C11.7407 21.0463 11.9091 20.9831 12.4565 21.2568C13.4038 21.741 14.4144 22.0357 15.467 22.1621C16.1407 22.2463 16.8143 22.1831 17.4459 21.9094C18.6249 21.4041 18.8144 20.0357 17.8038 19.2146C17.467 18.941 17.088 18.7305 16.688 18.562C15.6565 18.0989 14.5828 17.762 13.6144 17.1726C12.0354 16.2252 11.0249 14.9199 11.1512 13.0041C11.2775 10.8357 12.5196 9.46733 14.4986 8.75153C15.3196 8.45676 15.3196 8.45676 15.3196 7.61469V6.75155C15.3406 6.09888 15.4459 5.9936 16.0985 5.97252H16.688C18.0564 5.97252 18.0564 5.97252 18.0775 7.34099C18.0775 8.30942 18.0775 8.30942 19.0459 8.47783C19.7827 8.6041 20.4985 8.81466 21.1722 9.10943C21.5511 9.27785 21.6986 9.53047 21.5722 9.93043C21.4038 10.5199 21.2354 11.1305 21.0459 11.6989C20.8564 12.2463 20.688 12.3305 20.1617 12.0778C19.088 11.5515 17.9722 11.341 16.7722 11.4041C16.4564 11.4252 16.1617 11.4673 15.867 11.5936C14.8354 12.0357 14.667 13.1725 15.5512 13.8673C15.9933 14.2252 16.4986 14.4778 17.0249 14.6883C17.9302 15.0672 18.8354 15.4251 19.6985 15.9094C22.4564 17.4252 23.2143 20.8778 21.2775 23.2358Z" fill="white"/>
</svg>
