<svg width="33" height="32" viewBox="0 0 33 32" fill="none" xmlns="http://www.w3.org/2000/svg">
<path d="M6.40385 15.8845C6.40385 14.1853 5.02615 12.8076 3.32692 12.8076C1.62769 12.8076 0.25 14.1853 0.25 15.8845C0.25 17.5838 1.62769 18.9615 3.32692 18.9615C5.02615 18.9615 6.40385 17.5834 6.40385 15.8845ZM3.32692 17.8076C2.26654 17.8076 1.40385 16.9449 1.40385 15.8845C1.40385 14.8242 2.26654 13.9615 3.32692 13.9615C4.38731 13.9615 5.25 14.8242 5.25 15.8845C5.25 16.9449 4.38731 17.8076 3.32692 17.8076Z" fill="white"/>
<path d="M20.5574 10.3462C22.2566 10.3462 23.6343 8.96854 23.6343 7.26931C23.6343 5.56931 22.2566 4.19238 20.5574 4.19238C18.8582 4.19238 17.4805 5.56931 17.4805 7.26931C17.4805 8.96854 18.8582 10.3462 20.5574 10.3462ZM20.5574 5.34623C21.6178 5.34623 22.4805 6.20892 22.4805 7.26931C22.4805 8.32969 21.6178 9.19238 20.5574 9.19238C19.497 9.19238 18.6343 8.32969 18.6343 7.26931C18.6343 6.20892 19.497 5.34623 20.5574 5.34623Z" fill="white"/>
<path d="M20.5574 23.8848C18.8582 23.8848 17.4805 25.2625 17.4805 26.9617C17.4805 28.6609 18.8582 30.0386 20.5574 30.0386C22.2566 30.0386 23.6343 28.6609 23.6343 26.9617C23.6343 25.2625 22.2566 23.8848 20.5574 23.8848ZM20.5574 28.8848C19.497 28.8848 18.6343 28.0221 18.6343 26.9617C18.6343 25.9013 19.497 25.0386 20.5574 25.0386C21.6178 25.0386 22.4805 25.9013 22.4805 26.9617C22.4805 28.0221 21.6178 28.8848 20.5574 28.8848Z" fill="white"/>
<path d="M28.1825 12.4714C26.1253 12.4714 24.4289 13.9943 24.1575 15.9685H20.3872C20.1102 13.3825 17.9132 11.367 15.2414 11.367C14.7763 11.367 14.3278 11.434 13.8993 11.5481L12.5209 8.07194C14.2616 7.09421 15.0584 4.9661 14.3041 3.06365C13.4789 0.983022 11.1162 -0.037044 9.02752 0.783868C6.93846 1.60478 5.91242 3.95745 6.73806 6.03807C7.49493 7.94494 9.54442 8.95728 11.4904 8.47946L12.8647 11.9461C11.2024 12.803 10.065 14.5281 10.065 16.5207C10.065 18.1011 10.7812 19.5135 11.906 20.4589L9.79215 23.5839C7.99408 22.7077 5.7782 23.2629 4.63199 24.9643C3.38041 26.8222 3.87993 29.338 5.74566 30.5833C7.6114 31.828 10.1379 31.3321 11.3891 29.4738C12.5338 27.7731 12.2088 25.5231 10.7136 24.199L12.8255 21.077C13.5469 21.4569 14.3688 21.6744 15.2418 21.6744C17.9136 21.6744 20.1106 19.6593 20.3876 17.0729H24.1578C24.4289 19.0471 26.1253 20.5701 28.1829 20.5701C30.4295 20.5701 32.2501 18.7567 32.2501 16.5207C32.2501 14.2847 30.4291 12.4714 28.1825 12.4714Z" fill="white"/>
</svg>
