<svg width="36" height="36" viewBox="0 0 36 36" fill="none" xmlns="http://www.w3.org/2000/svg">
<path fill-rule="evenodd" clip-rule="evenodd" d="M5.64962 11.4009C5.67489 11.4621 5.68669 11.5281 5.6842 11.5943C5.68172 11.6605 5.66501 11.7254 5.63522 11.7846C5.54374 11.965 4.86274 13.648 4.86274 13.648C4.84187 13.7111 4.80759 13.7689 4.76227 13.8174C4.71694 13.8659 4.66164 13.9041 4.60016 13.9292L1.51193 15.2031C0.739447 15.5157 0 15.8147 0 16.3534V19.6517C0 20.1904 0.739448 20.4894 1.51108 20.8019L4.56882 22.0589C4.6376 22.0815 4.7001 22.12 4.7513 22.1712C4.80249 22.2224 4.84095 22.2849 4.86358 22.3537C5.07245 22.9872 5.32723 23.6046 5.6259 24.201C5.65934 24.2616 5.67868 24.3289 5.6825 24.398C5.68631 24.4671 5.67449 24.5361 5.64792 24.6L4.36469 27.6763C4.04452 28.4319 3.73789 29.1561 4.09195 29.544L6.44243 31.8937C6.8202 32.2714 7.54355 31.9707 8.30587 31.6489L11.4119 30.3504C11.4731 30.3251 11.5391 30.3133 11.6053 30.3158C11.6715 30.3183 11.7364 30.335 11.7956 30.3648C12.397 30.6673 13.0198 30.9252 13.659 31.1364C13.7578 31.2187 13.8517 31.3067 13.9402 31.3998L15.2108 34.4872C15.5242 35.2597 15.8232 36 16.3619 36H19.6602C20.1989 36 20.4979 35.2606 20.8104 34.4881L22.0674 31.4312C22.09 31.3624 22.1285 31.2999 22.1797 31.2487C22.2309 31.1975 22.2934 31.159 22.3622 31.1364C22.9958 30.9279 23.6132 30.6731 24.2095 30.3741C24.2701 30.3407 24.3374 30.3213 24.4065 30.3175C24.4755 30.3137 24.5446 30.3255 24.6084 30.3521L27.6797 31.6353C28.448 31.9606 29.1832 32.2723 29.5652 31.8894L31.897 29.5576C32.279 29.1756 31.9673 28.4404 31.6429 27.673L30.3546 24.5915C30.3293 24.5303 30.3176 24.4643 30.32 24.3981C30.3225 24.3319 30.3392 24.267 30.369 24.2078C30.4453 24.057 31.1415 22.3444 31.1415 22.3444C31.1622 22.2812 31.1964 22.2234 31.2418 22.1748C31.2871 22.1262 31.3425 22.0881 31.4041 22.0631L34.4923 20.7926C35.2639 20.4809 36.0042 20.1811 36.0042 19.6424V16.3492C36.0042 15.8105 35.2648 15.5115 34.4932 15.1989L31.4346 13.9419C31.366 13.9191 31.3037 13.8806 31.2526 13.8294C31.2016 13.7782 31.1633 13.7158 31.1407 13.6472C30.9322 13.0135 30.6774 12.3961 30.3783 11.7998C30.3449 11.7393 30.3256 11.6719 30.3217 11.6029C30.3179 11.5338 30.3297 11.4647 30.3563 11.4009L31.6387 8.31942C31.964 7.55202 32.2757 6.81681 31.8928 6.4348L29.5652 4.10719C29.1832 3.72519 28.448 4.03689 27.6806 4.3613L24.5991 5.64962C24.5379 5.67489 24.4719 5.68669 24.4057 5.6842C24.3395 5.68172 24.2746 5.66501 24.2154 5.63522C24.035 5.54374 22.352 4.86274 22.352 4.86274C22.2889 4.84202 22.231 4.8078 22.1824 4.76245C22.1339 4.71711 22.0958 4.66173 22.0708 4.60016L20.8002 1.51108C20.4877 0.739448 20.1887 0 19.65 0H16.3525C15.8138 0 15.5148 0.739448 15.2023 1.51108L13.9445 4.56628C13.922 4.6349 13.8837 4.69727 13.8326 4.74833C13.7816 4.7994 13.7192 4.83772 13.6506 4.86019C13.0171 5.06906 12.3996 5.32384 11.8032 5.62251C11.7427 5.65595 11.6753 5.67529 11.6063 5.67911C11.5372 5.68292 11.4681 5.6711 11.4043 5.64453C10.3785 5.21679 9.3477 4.79159 8.32281 4.3613C7.55541 4.03605 6.82104 3.72434 6.43904 4.10719L4.11058 6.43565C3.72858 6.81681 4.04028 7.55202 4.36469 8.31857L5.653 11.4009H5.64962ZM18.0017 7.47664C20.0827 7.47664 22.1169 8.09372 23.8472 9.24986C25.5775 10.406 26.9261 12.0493 27.7225 13.9718C28.5188 15.8944 28.7272 18.01 28.3212 20.051C27.9152 22.092 26.9131 23.9668 25.4416 25.4382C23.9702 26.9097 22.0954 27.9118 20.0544 28.3178C18.0134 28.7238 15.8978 28.5154 13.9752 27.7191C12.0526 26.9227 10.4094 25.5741 9.25325 23.8438C8.09711 22.1136 7.48002 20.0793 7.48002 17.9983C7.48025 15.2079 8.58885 12.5318 10.562 10.5586C12.5351 8.58546 15.2112 7.47686 18.0017 7.47664Z" fill="white"/>
<path fill-rule="evenodd" clip-rule="evenodd" d="M15.8327 24.1583L24.3994 18.5638C24.4934 18.5021 24.5707 18.4181 24.6241 18.3191C24.6775 18.2202 24.7055 18.1095 24.7055 17.9971C24.7055 17.8847 24.6775 17.774 24.6241 17.6751C24.5707 17.5762 24.4934 17.4921 24.3994 17.4305L15.8344 11.8359C15.7319 11.7682 15.6128 11.7296 15.4901 11.7243C15.3673 11.719 15.2454 11.7471 15.1374 11.8058C15.0294 11.8644 14.9394 11.9513 14.877 12.0572C14.8146 12.1631 14.7822 12.2839 14.7832 12.4068V23.5959C14.784 23.7178 14.8175 23.8372 14.8805 23.9416C14.9434 24.046 15.0333 24.1315 15.1408 24.1891C15.2482 24.2467 15.3692 24.2742 15.4909 24.2688C15.6127 24.2634 15.7308 24.2252 15.8327 24.1583Z" fill="white"/>
</svg>
