<svg width="33" height="32" viewBox="0 0 33 32" fill="none" xmlns="http://www.w3.org/2000/svg">
<path fill-rule="evenodd" clip-rule="evenodd" d="M16.584 0C7.75298 0 0.583984 7.169 0.583984 16C0.583984 24.831 7.75298 32 16.584 32C25.415 32 32.584 24.831 32.584 16C32.584 7.169 25.415 0 16.584 0ZM25.098 16.857C25.4 16.677 25.584 16.351 25.584 16C25.584 15.649 25.4 15.323 25.098 15.143L13.098 7.943C12.79 7.757 12.405 7.752 12.091 7.93C11.778 8.107 11.584 8.44 11.584 8.8V23.2C11.584 23.56 11.778 23.893 12.091 24.07C12.405 24.248 12.79 24.243 13.098 24.057L25.098 16.857Z" fill="white"/>
</svg>
