<svg width="25" height="30" viewBox="0 0 25 30" fill="none" xmlns="http://www.w3.org/2000/svg">
<path fill-rule="evenodd" clip-rule="evenodd" d="M3.75345 0H16.3878C17.3028 0 18.1362 0.375408 18.7381 0.980595C19.3401 1.58458 19.7155 2.42081 19.7155 3.33882V4.51192H21.0981C22.0131 4.51192 22.8465 4.88733 23.4485 5.49252C24.0516 6.0965 24.4258 6.93273 24.4258 7.85074V26.6612C24.4258 27.5792 24.0516 28.4154 23.4485 29.0194C22.8465 29.6246 22.0142 30 21.0981 30H8.46377C7.54879 30 6.71538 29.6246 6.11341 29.0194C5.51025 28.4154 5.13609 27.5792 5.13609 26.6612V25.4881H3.75345C2.83848 25.4881 2.00507 25.1127 1.4031 24.5075C0.801134 23.9035 0.425781 23.0685 0.425781 22.1493V3.33882C0.425781 2.42078 0.799936 1.58458 1.4031 0.980595C2.00627 0.375408 2.83851 0 3.75345 0ZM19.7143 5.91727V22.1506C19.7143 23.0686 19.3401 23.9048 18.737 24.5088C18.1338 25.1128 17.3016 25.4894 16.3866 25.4894H6.53543V26.6625C6.53543 27.1931 6.75128 27.6768 7.10145 28.0269C7.45162 28.377 7.93246 28.5948 8.46131 28.5948H21.0956C21.6245 28.5948 22.1066 28.3782 22.4555 28.0269C22.8045 27.6755 23.0215 27.1931 23.0215 26.6625V7.85203C23.0215 7.32141 22.8057 6.83774 22.4555 6.48762C22.1054 6.1375 21.6245 5.9197 21.0956 5.9197H19.713L19.7143 5.91727ZM4.56758 16.4005C4.18026 16.4005 3.86729 16.0853 3.86729 15.6979C3.86729 15.3093 4.18146 14.9953 4.56758 14.9953H12.7638C13.1511 14.9953 13.4641 15.3105 13.4641 15.6979C13.4641 16.0865 13.1499 16.4005 12.7638 16.4005H4.56758ZM4.56758 11.1979C4.18026 11.1979 3.86729 10.8826 3.86729 10.4952C3.86729 10.1066 4.18146 9.79258 4.56758 9.79258H15.5712C15.9585 9.79258 16.2715 10.1078 16.2715 10.4952C16.2715 10.8838 15.9573 11.1979 15.5712 11.1979H4.56758ZM4.56758 5.99519C4.18026 5.99519 3.86729 5.67997 3.86729 5.29255C3.86729 4.90393 4.18146 4.58991 4.56758 4.58991H15.5712C15.9585 4.58991 16.2715 4.90513 16.2715 5.29255C16.2715 5.68117 15.9573 5.99519 15.5712 5.99519H4.56758Z" fill="white"/>
</svg>
