<svg width="122" height="48" viewBox="0 0 122 48" fill="none" xmlns="http://www.w3.org/2000/svg">
<g clip-path="url(#clip0_977_4865)">
<path d="M68.8736 47.9999L68.7666 47.8221V29.3561L68.8736 29.125H70.5574L70.6109 47.9999H68.8736Z" fill="#004857"/>
<path d="M66.2452 39.1646C66.2452 39.1646 66.3675 39.3576 66.4083 39.3982C66.3191 40.795 66.5127 42.3062 66.4032 43.6877C66.2758 45.2827 64.8518 46.8344 63.2215 46.9563C62.8802 46.9817 62.8878 46.8573 62.8012 46.8497C62.6331 46.8344 62.7018 46.9487 62.5923 46.9614C61.1556 47.1544 59.4157 45.4503 59.2094 44.0941C59.1763 43.8757 59.2986 43.83 59.1406 43.6928V33.5417C59.2425 33.2395 59.2323 32.9119 59.3826 32.5258C60.7684 28.9601 66.123 29.7677 66.4032 33.5417C66.4286 33.8897 66.4541 34.7989 66.4032 35.1138C66.3955 35.157 66.2172 35.3423 66.2019 35.3474C66.1 35.3754 64.8314 35.3728 64.6862 35.3525C64.6506 35.3474 64.4723 35.19 64.4646 35.1773C64.3857 35.0173 64.4774 33.943 64.4519 33.6458C64.2863 31.7284 61.418 31.6471 61.0894 33.5468L61.0817 43.4795C61.0817 44.0484 61.5734 44.7214 62.0981 44.9246C62.3401 45.0185 62.5821 45.0211 62.7936 45.1506C63.0381 44.9728 63.3056 45.0084 63.6087 44.8357C63.9118 44.663 64.4493 44.0662 64.4493 43.736V39.5785H62.5032C62.5032 39.5785 62.5032 39.5023 62.4726 39.477C62.4165 39.4287 62.3452 39.4287 62.3452 39.4211V37.7474C62.3452 37.7474 62.4038 37.7576 62.4318 37.7297C62.4598 37.7017 62.4471 37.6433 62.4497 37.6433H64.7117C64.7117 37.6433 64.7117 37.7144 64.7448 37.7449C65.0225 37.9862 64.778 37.8947 64.7601 38.0344C64.7168 38.3773 64.8009 38.809 64.7652 39.162C64.9817 39.2052 66.1459 39.1036 66.2376 39.162L66.2452 39.1646Z" fill="#004857"/>
<path d="M30.383 48.0004V39.0074H29.7004V43.3477C29.0788 43.4341 28.3757 43.4341 27.7542 43.3477V39.0074H27.26C27.26 39.1014 27.1301 39.1903 27.1275 39.203C27.0052 39.7007 27.1759 40.841 27.1275 41.443C27.1199 41.5445 27.0969 41.6334 27.0715 41.7274H25.3877C25.3622 41.6309 25.3393 41.542 25.3316 41.443C25.1966 39.7388 25.4259 37.8442 25.3494 36.1198L25.4692 35.9217C25.622 35.8811 25.5634 36.0182 25.6755 36.0334C25.8946 36.0614 26.5671 36.0614 26.7862 36.0334C26.8728 36.0233 26.8549 35.9801 26.8881 35.9242H26.9925C27.0052 35.9674 27.125 36.0969 27.125 36.1071V38.4334H27.7567V34.3293C27.7567 34.3293 27.879 34.1998 27.8892 34.1998H29.5985C29.5985 34.1998 29.5883 34.2582 29.6163 34.2861C29.6443 34.3141 29.7029 34.3014 29.7029 34.3039V38.4334H30.3856V29.4912H32.0694C32.0694 29.4912 32.0567 29.5547 32.0847 29.5801C32.1254 29.6157 32.2273 29.5877 32.2273 29.5953V38.4309H32.7521V32.7826C32.7521 32.7826 32.854 32.8055 32.8947 32.7674C32.9228 32.742 32.9049 32.6785 32.91 32.6785H34.5938C34.5938 32.6785 34.5837 32.7369 34.6117 32.7649C34.6397 32.7928 34.6983 32.7801 34.6983 32.7826V38.4309H35.381V37.1763H37.0648C37.0648 37.1763 37.0648 37.2525 37.0954 37.2779C37.1514 37.3261 37.2227 37.3261 37.2227 37.3337V38.4309H37.7475V37.2804C37.7475 37.2804 37.8061 37.2906 37.8341 37.2626C37.8621 37.2347 37.8494 37.1763 37.8519 37.1763H39.5867V38.4309H40.2694V34.1439C40.2694 34.1439 40.328 34.1541 40.356 34.1261C40.384 34.0982 40.3713 34.0398 40.3738 34.0398H42.0576C42.0576 34.0398 42.0449 34.1033 42.0729 34.1287C42.1137 34.1642 42.2156 34.1363 42.2156 34.1439V38.4309H42.7403V35.8176C42.7403 35.8176 42.8601 35.8049 42.9135 35.7668C42.9492 35.7414 42.9518 35.6652 42.9772 35.6601C43.1377 35.6245 43.0715 35.7566 43.1836 35.7693C43.4154 35.7972 44.0573 35.7947 44.2942 35.7693C44.4038 35.7566 44.3477 35.6195 44.5006 35.6601C44.526 35.6677 44.5821 35.7845 44.5821 35.7922V38.4334H45.4227V37.2576C45.4227 37.2423 45.4762 37.1357 45.5119 37.1255L47.1498 37.1357C47.1575 37.1737 47.211 37.2398 47.211 37.2576V38.4334C47.7536 38.5045 48.5585 38.3344 49.0654 38.4334C49.2438 38.469 49.2208 38.8601 49.2081 39.0049H47.3154C47.3154 39.0049 47.3383 39.1064 47.3001 39.1471C47.2746 39.175 47.2084 39.1572 47.2084 39.1623V40.2874C47.1626 40.3611 47.104 40.3585 47.0276 40.3687C46.7244 40.4042 45.9042 40.4042 45.6036 40.3687C45.5271 40.3585 45.4686 40.3611 45.4227 40.2874V39.1623C45.4227 39.1623 45.359 39.175 45.331 39.1471C45.2953 39.1064 45.3234 39.0049 45.3157 39.0049H44.5795V41.9864H42.8957C42.8957 41.9864 42.8881 41.9153 42.8397 41.862C42.8142 41.8315 42.7378 41.8366 42.7378 41.8315V39.0074H42.213V43.5052H40.2668V39.0074H39.5841V40.4195H37.9284C37.9003 40.4195 37.8112 40.3382 37.7449 40.3661V39.0074H37.2202V40.3661C37.154 40.3382 37.0648 40.4195 37.0368 40.4195H35.381V39.0074H34.6983V44.8639C34.0665 44.9477 33.3864 44.9477 32.7521 44.8639V39.0074H32.2248V48.0004H30.383Z" fill="#004857"/>
<path d="M45.3688 30.5378L49.0803 30.5429C49.3885 30.2889 50.0941 30.5327 50.4533 30.6851C51.6251 31.1879 52.5345 32.4273 52.6288 33.6997C52.8733 37.0064 52.4428 40.6102 52.6262 43.9498C52.5447 45.3822 51.0876 46.9771 49.6483 47.1092C49.4318 47.1295 49.3911 46.9924 49.2408 47.1702L45.542 47.1524L45.3662 46.934V41.8597C45.4121 41.8241 45.514 41.626 45.5292 41.626H47.2131C47.2131 41.626 47.2029 41.6845 47.2309 41.7124C47.2589 41.7403 47.3175 41.7276 47.3175 41.7302V45.2324H49.2892C49.8445 45.2324 50.4992 44.5238 50.6469 44.021C50.708 43.8152 50.6265 43.6832 50.7921 43.5384V34.0146C50.6316 33.8444 50.6749 33.6235 50.5883 33.3822C50.41 32.8921 49.7146 32.3206 49.1847 32.3206H47.3175V35.9295C47.3175 35.9295 47.2589 35.9194 47.2309 35.9473C47.2029 35.9752 47.2156 36.0337 47.2131 36.0337H45.5292C45.5292 36.0337 45.5216 35.9625 45.4732 35.9092C45.4477 35.8787 45.3713 35.8838 45.3713 35.8787V30.5454L45.3688 30.5378Z" fill="#004857"/>
<path d="M73.0288 29.2797C73.0288 29.2797 73.2249 29.1578 73.2631 29.1172H78.9998C79.0355 29.1629 79.2342 29.2645 79.2342 29.2797V30.9534C79.2342 30.9534 79.1323 30.9305 79.0915 30.9686C79.0635 30.994 79.0813 31.0575 79.0762 31.0575H76.9721V45.0715H75.2883V31.0575H73.1842C73.1842 31.0575 73.1969 30.994 73.1689 30.9686C73.1281 30.9331 73.0262 30.961 73.0262 30.9534C73.0262 30.7248 72.9804 29.3508 73.0262 29.2797H73.0288Z" fill="#004857"/>
<path d="M80.706 44.2359L80.6016 44.0404L82.5478 32.5635L82.7796 32.3604L85.3983 32.3654L85.5919 32.5635L87.8514 45.7445C87.8081 45.7445 87.7418 45.8029 87.724 45.8029H86.0937C86.0657 45.8029 85.9714 45.7445 85.923 45.7369L85.1665 41.5743H82.9706L82.5427 44.0353C82.4433 44.0657 82.4 44.2334 82.3873 44.2334H80.7035L80.706 44.2359ZM84.8608 39.7381L84.1246 35.2404L83.2839 39.7381H84.8608Z" fill="#004857"/>
<path d="M91.8537 33.7773C91.8359 33.8281 91.9072 33.8916 91.9072 33.9069V42.0897H96.1129C96.1919 42.7119 96.2046 43.4027 96.1129 44.025H90.1699C90.1699 44.025 90.1801 43.9665 90.152 43.9386C90.124 43.9107 90.0654 43.9234 90.0654 43.9208V33.8815C90.0654 33.8815 90.124 33.8916 90.152 33.8637C90.1801 33.8358 90.1673 33.7773 90.1699 33.7773H91.8537Z" fill="#004857"/>
<path d="M56.677 32H54.9932V46.5371H56.677V32Z" fill="#004857"/>
<path d="M15.0275 0C17.0959 0.406349 19.0599 2.38476 19.1822 4.52064C19.2026 4.85841 19.0752 4.87111 19.0752 4.89397C19.0752 4.91683 19.1211 5.30794 19.1313 5.34857C19.1313 5.35619 19.2255 5.49079 19.2357 5.49079H20.4712C20.489 5.49079 20.5501 5.55937 20.6036 5.54413V7.29651C20.6036 7.29651 20.5221 7.38794 20.4967 7.40064H15.9241C15.8987 7.38794 15.8171 7.30667 15.8171 7.29651V5.54413C15.8681 5.5619 15.9318 5.49079 15.9496 5.49079H17.2386V4.68064C17.2386 4.30222 16.8616 3.56064 16.6298 3.24825C15.2898 1.43492 12.5361 1.58222 11.3796 3.50984C11.0765 4.01524 11.0969 4.24635 10.9797 4.7746C10.972 4.81016 10.8319 4.86603 10.8243 4.94476C10.8217 4.9727 10.9211 4.94222 10.9338 5.04381C11.0153 5.65079 11.0153 7.89587 10.9338 8.50286C10.9211 8.60444 10.8192 8.57397 10.8243 8.6019C10.8319 8.6781 10.9695 8.73651 10.9797 8.77206C11.0255 8.92952 11.0154 9.15556 11.0739 9.34857C11.4051 10.4787 12.5591 11.4489 13.7461 11.5556C13.9754 11.5759 14.332 11.5124 14.5256 11.5556C14.5664 11.5657 14.5587 11.6546 14.5817 11.6546C15.7458 11.5886 16.8667 12.2362 17.6869 13.021H24.0248C24.0299 10.3975 24.0197 7.77397 24.0222 5.14794C24.0222 4.89397 23.9585 4.81524 23.9713 4.57397C24.0935 2.36444 26.0881 0.383492 28.233 0.00253968H30.0213C30.1868 0.0965079 30.4008 0.0914286 30.5893 0.144762C32.3725 0.645079 34.0538 2.40762 34.2754 4.27175C34.2983 4.46984 34.1862 4.60952 34.3391 4.73143L34.334 11.5581H35.6484C35.6306 11.6089 35.7019 11.6724 35.7019 11.6876V13.021H39.1205L39.1256 5.04381C38.9778 4.90413 39.0033 4.77968 39.0135 4.57397C39.1434 2.39238 41.0539 0.429206 43.1708 0.00253968H45.1679C47.3179 0.474921 49.0246 2.17651 49.3278 4.36825C49.3405 4.45714 49.2794 4.52825 49.2768 4.58159C49.2768 4.60698 49.3685 4.57905 49.3813 4.6781C49.4399 5.14794 49.3278 5.73968 49.3762 6.22476H50.6906C50.6906 6.22476 50.6804 6.28317 50.7084 6.31111C50.7365 6.33905 50.7951 6.32635 50.7951 6.32889V8.10667C50.7951 8.12191 50.5964 8.22349 50.5607 8.26921L46.1003 8.26413C46.0519 8.17778 45.9143 8.11937 45.899 8.03048C45.8735 7.8654 45.8888 6.41778 45.9296 6.33143C45.9423 6.30603 46.0238 6.2273 46.034 6.2273H47.323V4.84064C47.323 2.77079 44.661 1.2927 42.6944 2.32889C41.9328 2.73016 41.0132 3.84762 41.0132 4.73397V13.021H54.0022V1.77778H52.7667C52.6928 1.73206 52.6954 1.67365 52.6852 1.59746C52.6266 1.10476 52.7336 0.505397 52.6878 0H57.3673V1.77778H56.0528V13.0184H60.7858L60.8393 0H62.7855L67.0982 13.0184H69.1488V3.71302H70.9371C70.9371 3.71302 70.9447 3.78413 70.9931 3.83746C71.0186 3.86794 71.095 3.86286 71.095 3.86794V13.0184H75.7236L75.7185 0.180317L75.8815 0H81.8246C83.4956 0.327619 85.0674 1.52889 85.7246 3.10095C86.2901 4.44952 86.0201 6.95619 86.0277 8.49778C86.0277 8.69333 86.0939 8.86095 86.0863 9.07175C86.0379 10.2832 85.1463 11.6495 84.2446 12.4165L83.4014 13.0184H88.5012V11.6851C88.5012 11.6673 88.57 11.6063 88.5547 11.5556H90.7633L90.7582 0.180317L90.9212 0H96.8642C98.7722 0.365714 100.512 1.86921 100.993 3.76381C101.126 4.28444 101.072 4.45206 101.07 4.93968C101.065 6.31111 101.154 7.71302 101.129 9.07429C101.106 10.2832 100.178 11.6597 99.2842 12.4216L98.441 13.0235H105.803V4.72889C105.958 2.39238 107.82 0.411429 110.116 0H111.904C114.143 0.444444 115.982 2.32635 116.166 4.62476V11.5556H117.427C117.409 11.6063 117.48 11.6698 117.48 11.6851V13.0184L121.265 13.0717V13.6457L121.087 13.7549L116.112 13.7498L116.117 20.3683C115.944 20.5156 116.074 20.5917 116.056 20.8279C115.865 23.1289 113.458 25.1073 111.198 25.2038C108.613 25.3156 105.905 23.299 105.752 20.6298C105.739 20.3886 105.803 20.3098 105.803 20.0559C105.803 17.9556 105.811 15.8527 105.805 13.7524H96.7088L101.062 25.0362L100.838 25.2089H99.0524C99.0448 24.9981 98.9021 25.0768 98.8639 25.0133L94.4748 13.7549H92.712V25.0489C92.712 25.0489 92.6483 25.0362 92.6203 25.0641C92.5846 25.1048 92.6126 25.2064 92.605 25.2064H90.8168C90.8168 25.2064 90.8091 25.1352 90.7607 25.0819C90.7352 25.0514 90.6588 25.0565 90.6588 25.0514V13.7575H77.6698V21.026C77.6698 21.026 77.6061 21.0133 77.5781 21.0413C77.5424 21.0819 77.5704 21.1835 77.5628 21.1835H75.7211C75.7211 21.1835 75.744 21.0819 75.7058 21.0413C75.6803 21.0133 75.6141 21.0311 75.6141 21.026V13.7575H70.9855V21.026C70.9855 21.0413 70.7868 21.1429 70.7511 21.1886L67.6281 21.1759L65.0705 13.76H62.5715V25.0286C62.5715 25.0565 62.49 25.1454 62.518 25.2114H60.7298C60.7476 25.1606 60.6763 25.0971 60.6763 25.0819V13.7625H55.9433V21.0311C55.281 21.1124 54.5524 21.12 53.8927 21.0311V13.7625H40.9036V20.4292C40.9036 20.8533 41.2985 21.6508 41.6373 22.0521C43.2701 23.9695 46.3601 23.3143 47.0835 20.927C47.137 20.7517 47.1243 20.5333 47.1651 20.3886C47.188 20.3048 47.4274 20.3022 47.2109 20.1194C47.2746 19.5784 47.1421 18.9105 47.2109 18.3873C47.2109 18.3771 47.3103 18.207 47.3204 18.207H49.1087C49.1087 18.207 49.0934 18.334 49.2692 18.3416C49.1953 18.974 49.3532 19.7714 49.2692 20.381C49.2564 20.4825 49.1596 20.4521 49.1571 20.4851C49.1291 21.4375 49.0093 21.9556 48.477 22.7835C46.3321 26.1079 41.5074 26.0013 39.528 22.5829C39.0058 21.6813 38.9574 21.1225 38.96 20.1194C38.9702 18.0013 38.9498 15.8806 38.96 13.7651H34.227V20.64C34.227 21.9937 32.9482 23.68 31.8554 24.4013C28.7552 26.4432 24.4986 24.4902 23.9178 20.899C23.8923 20.7467 24.0349 20.734 23.8643 20.5917L23.8694 13.7651H18.2957C18.7543 14.461 19.1338 15.3016 19.1899 16.1448C19.2077 16.4114 19.1415 16.513 19.1415 16.7695C19.1415 17.8692 19.1415 18.9689 19.1415 20.0686C19.1415 20.4114 19.1669 20.2311 19.1899 20.3352C19.2255 20.4876 19.1746 21.0946 19.0319 21.1632L17.2691 21.1937L17.0322 20.9981C17.1163 20.8178 17.0959 20.5562 17.1443 20.3911C17.1571 20.3479 17.2309 20.3479 17.2411 20.3124C17.3277 20.0737 17.3507 16.8533 17.2742 16.5816C17.2462 16.4825 17.1494 16.4902 17.1392 16.447C17.0526 16.0584 17.0704 15.8044 16.8845 15.4032C16.561 14.6971 15.8885 14.1003 15.1676 13.8159L2.86887 13.7651C2.38232 14.9511 1.0475 15.1619 0.257812 14.1333V12.6705C0.994002 11.6394 2.44345 11.8298 2.83575 13.0362H11.5656C11.2777 12.8051 10.9542 12.6248 10.6715 12.3835C9.69836 11.5505 8.84244 10.2375 8.9316 8.92698C8.9316 8.90159 8.8399 8.92698 8.82716 8.83048C8.73545 8.09143 8.72781 5.47302 8.82716 4.74413C8.8399 4.64254 8.9367 4.67302 8.93924 4.64C9.00038 2.7327 10.0957 1.39429 11.7235 0.457143L13.0405 0.0152381H15.0376L15.0275 0ZM25.9124 4.68064V12.9676H30.9612V11.6343C30.9612 11.6165 31.03 11.5556 31.0147 11.5048H32.2247L32.2196 5.04381C32.4413 4.86095 32.1891 4.84825 32.1738 4.7746C31.9624 3.80698 31.8121 3.27619 30.9867 2.61587C29.145 1.14794 26.1773 2.33905 25.9124 4.68064ZM81.31 1.98603H77.7615V11.7105H80.9177V11.5606C82.2754 11.619 83.5058 10.6362 83.9159 9.38413C83.9822 9.18095 83.9771 8.9854 84.0229 8.82032C84.0331 8.78476 84.1707 8.72635 84.1783 8.65016C84.1809 8.62222 84.0815 8.6527 84.0688 8.55111C83.9108 7.36 84.1885 6.02413 84.1274 4.8381C84.1274 4.80762 84.0331 4.81524 84.0229 4.77206C83.9287 4.40127 83.9567 4.18032 83.7682 3.77905C83.3453 2.87492 82.3187 2.09778 81.3151 1.98349L81.31 1.98603ZM96.3496 1.98603H92.8012V11.5556L93.1654 11.5606L93.1985 11.7156H95.9268L95.9854 11.5505C97.2183 11.6394 98.4665 10.7022 98.8894 9.57968C99.0244 9.22159 99.1084 8.86603 99.1084 8.54857C99.1084 7.38032 99.0983 6.20952 99.1084 5.04127C99.111 4.7746 99.1186 4.7619 99.0448 4.48254C98.7212 3.23048 97.6998 2.12571 96.3496 1.98349V1.98603ZM107.787 12.9676H112.678V11.6597C112.678 11.6597 112.755 11.6597 112.78 11.6292C112.829 11.5733 112.829 11.5048 112.836 11.5048H114.151V4.78476C114.151 4.6273 114.12 4.73651 114.1 4.66794C113.916 4.03556 113.914 3.71556 113.465 3.16444C111.766 1.08698 108.597 1.84381 107.917 4.38857C107.848 4.64762 107.864 4.72635 107.846 4.93968C107.833 5.08444 107.792 5.22159 107.785 5.35619C107.683 7.86794 107.866 10.4483 107.785 12.9651L107.787 12.9676ZM64.9304 13.0184L62.7218 6.43048V13.0184H64.9304ZM32.2757 13.7524H25.9124V20.4724C25.9124 20.8686 26.3607 21.7016 26.6205 22.0165C28.2381 23.9644 31.3637 23.3194 32.0923 20.9194C32.1738 20.6527 32.1025 20.3987 32.3292 20.2108C32.1254 20.16 32.2757 19.9619 32.2782 19.7968C32.3164 17.7854 32.2451 15.7663 32.2782 13.7549L32.2757 13.7524ZM69.0852 13.7524H67.3504L69.0852 18.9816V13.7524ZM114.1 13.7524H107.841V20.5232C107.841 20.9854 108.386 21.8819 108.715 22.2171C110.419 23.967 113.425 23.167 114.031 20.8203C114.087 20.607 114.044 20.2768 114.204 20.2083L114.095 20.0559L114.1 13.7524Z" fill="#004857"/>
<path d="M10.7146 18.1973C10.8343 18.2735 10.7273 19.8354 10.763 20.1096C10.7655 20.1325 10.8496 20.3916 10.8776 20.5185C10.9056 20.6455 10.9821 20.8309 10.9821 20.9452C10.9821 21.0316 10.8165 21.0366 10.8725 21.1763H9.03077C9.03077 21.1763 9.03077 21.1077 8.9951 21.0773C8.89321 20.9884 8.81934 20.8893 8.81934 20.7319V18.3014C8.81934 18.3014 8.87793 18.3116 8.90595 18.2836C8.93397 18.2557 8.92123 18.1973 8.92378 18.1973H10.712H10.7146Z" fill="#004857"/>
</g>
<defs>
<clipPath id="clip0_977_4865">
<rect width="121" height="48" fill="white" transform="translate(0.25)"/>
</clipPath>
</defs>
</svg>
