<svg width="48" height="48" viewBox="0 0 48 48" fill="none" xmlns="http://www.w3.org/2000/svg">
<circle cx="24" cy="24" r="24" fill="#004857"/>
<g clip-path="url(#clip0_33_195)">
<path d="M23.9999 20.7907C22.2302 20.7907 20.7905 22.2305 20.7905 24.0001C20.7905 25.7697 22.2303 27.2094 23.9999 27.2094C25.7695 27.2094 27.2093 25.7697 27.2093 24.0001C27.2093 22.2305 25.7696 20.7907 23.9999 20.7907ZM23.9999 25.686C23.0702 25.686 22.314 24.9297 22.314 24.0001C22.314 23.0705 23.0703 22.3141 23.9999 22.3141C24.9295 22.3141 25.6858 23.0705 25.6858 24.0001C25.6858 24.9297 24.9295 25.686 23.9999 25.686Z" fill="white"/>
<path d="M18.1956 18.1956L17.1183 17.1183C15.2775 18.9592 14.2637 21.4032 14.2637 24.0001C14.2637 26.597 15.2775 29.041 17.1184 30.8818L18.1956 29.8046C16.6424 28.2515 15.7871 26.1901 15.7871 24.0001C15.7871 21.8102 16.6424 19.7487 18.1956 18.1956Z" fill="white"/>
<path d="M15.8889 15.8889L14.8117 14.8117C12.3537 17.2697 11 20.5328 11 24C11 27.4672 12.3537 30.7304 14.8117 33.1883L15.8889 32.1111C13.7187 29.9409 12.5234 27.0603 12.5234 24C12.5234 20.9397 13.7187 18.0592 15.8889 15.8889Z" fill="white"/>
<path d="M33.1883 14.8117L32.1111 15.8889C34.2813 18.0592 35.4766 20.9397 35.4766 24C35.4766 27.0603 34.2813 29.9409 32.1111 32.1112L33.1884 33.1884C35.6463 30.7304 37 27.4672 37 24C37 20.5328 35.6463 17.2697 33.1883 14.8117Z" fill="white"/>
<path d="M30.8817 17.1183L29.8045 18.1956C31.3576 19.7487 32.213 21.8102 32.213 24.0001C32.213 26.1901 31.3576 28.2515 29.8044 29.8046L30.8817 30.8818C32.7225 29.041 33.7364 26.597 33.7364 24.0001C33.7364 21.4032 32.7226 18.9592 30.8817 17.1183Z" fill="white"/>
<path d="M28.5751 19.4247L27.4979 20.502C28.4339 21.438 28.9494 22.6803 28.9494 23.9999C28.9494 25.3195 28.4339 26.5617 27.4978 27.4978L28.5751 28.575C29.7989 27.3512 30.4728 25.7264 30.4728 23.9999C30.4729 22.2733 29.7989 20.6485 28.5751 19.4247Z" fill="white"/>
<path d="M20.5021 20.502L19.4249 19.4247C18.2011 20.6485 17.5271 22.2733 17.5271 23.9999C17.5271 25.7264 18.2011 27.3512 19.4248 28.575L20.5021 27.4978C19.566 26.5617 19.0505 25.3195 19.0505 23.9999C19.0505 22.6803 19.5661 21.438 20.5021 20.502Z" fill="white"/>
</g>
<defs>
<clipPath id="clip0_33_195">
<rect width="26" height="26" fill="white" transform="translate(11 11)"/>
</clipPath>
</defs>
</svg>
