<svg width="48" height="48" viewBox="0 0 48 48" fill="none" xmlns="http://www.w3.org/2000/svg">
<circle cx="24" cy="24" r="24" fill="#004857"/>
<g clip-path="url(#clip0_713_1987)">
<path d="M32.4699 23.2268H39.3337C40.0268 23.3601 40.24 24.2668 39.6669 24.6534L32.4699 24.7334C32.0568 28.8401 28.8581 32.0934 24.7398 32.4534V39.3334C24.6865 40.2134 23.5137 40.1734 23.2471 39.4268V32.4534C19.1422 32.0801 15.9701 28.7868 15.5037 24.7334H8.53325C7.77356 24.4668 7.8402 23.3601 8.63987 23.2401L15.5303 23.1868C16.0235 19.1201 19.1422 16.0001 23.2071 15.5068L23.2604 8.61344C23.3804 7.86677 24.4999 7.73344 24.7398 8.50677L24.7798 15.4934C28.8448 16.0001 32.0301 19.1068 32.4833 23.2001L32.4699 23.2268ZM23.2471 17.0934C20.0618 17.4134 17.4495 20.0534 17.103 23.2401H18.7423C19.4087 23.2401 19.3954 24.7201 18.8356 24.7201H17.103C17.3696 27.8534 20.0618 30.7068 23.2471 30.8668V29.2268C23.2471 29.2268 23.487 28.8934 23.5137 28.8801C23.8735 28.6668 24.7265 28.7734 24.7265 29.2268V30.8668C27.8985 30.7068 30.6973 27.8934 30.8706 24.7201H29.2313C29.2313 24.7201 28.8981 24.5068 28.8448 24.4134C28.5649 24.0001 28.8848 23.2268 29.3379 23.2268H30.8706C30.6973 20.7868 28.9248 18.4668 26.6724 17.5601C26.3392 17.4268 25.2596 17.0668 24.9664 17.0934C24.8731 17.0934 24.7265 17.1734 24.7265 17.2401V18.8268C24.7265 18.9334 24.2734 19.2668 24.0868 19.2801C23.8469 19.2934 23.2471 19.0134 23.2471 18.8268V17.0934Z" fill="white"/>
<path d="M12.5446 26.2129C13.1844 30.0396 16.0765 33.4796 19.675 34.8796C20.3947 35.1596 21.1677 35.3062 21.8474 35.5729V37.0129C16.3431 36.2396 11.8649 31.6796 10.9453 26.2129H12.5313H12.5446Z" fill="white"/>
<path d="M37.0144 26.2129C36.1481 31.6929 31.63 36.2662 26.1123 37.0129V35.5729L26.2722 35.4396C30.1506 34.7596 33.5092 31.8929 34.8953 28.2129C35.1485 27.5462 35.2818 26.8262 35.5617 26.2129H37.0011H37.0144Z" fill="white"/>
<path d="M37.0142 21.8537H35.5748C35.2816 21.027 35.0816 20.1737 34.7218 19.347C33.5623 16.667 31.1499 14.2404 28.4177 13.1604C28.0312 13.0004 26.3386 12.6004 26.2053 12.4937C25.9921 12.307 26.1654 11.3737 26.112 11.0537C31.6164 11.6937 36.2012 16.4137 37.0142 21.8537Z" fill="white"/>
<path d="M21.8474 11.0537V12.5337C17.2094 13.2937 13.291 17.2137 12.5313 21.8537H10.9453C11.7317 17.0004 15.3435 12.8137 20.0615 11.4004C20.6346 11.2271 21.2344 11.0137 21.8474 11.0537Z" fill="white"/>
<path d="M23.5134 21.3862C27.3385 20.8262 27.765 26.3995 24.2731 26.7062C20.7812 27.0129 20.3147 21.8529 23.5134 21.3862Z" fill="white"/>
</g>
<defs>
<clipPath id="clip0_713_1987">
<rect width="32" height="32" fill="white" transform="translate(8 8)"/>
</clipPath>
</defs>
</svg>
