<svg width="33" height="36" viewBox="0 0 33 36" fill="none" xmlns="http://www.w3.org/2000/svg">
<path d="M17.3692 12.6184V20.4562H12.3729V18.7259H15.6309V12.6186H17.3708L17.3692 12.6184ZM13.4637 0.00265251L19.2907 5.35961H16.4985C12.5485 5.35961 8.96883 6.95229 6.38057 9.52785C3.79083 12.1034 2.18937 15.662 2.18937 19.5904C2.18937 23.5188 3.79083 27.0773 6.38057 29.6529C8.97031 32.2285 12.5485 33.8211 16.4985 33.8211C20.4485 33.8211 24.0282 32.2285 26.6165 29.6529C29.2062 27.0773 30.8077 23.5188 30.8077 19.5904H33C33 24.1213 31.1529 28.2243 28.1672 31.1936C25.1815 34.1629 21.0558 36 16.5 36C11.9442 36 7.8185 34.1631 4.83284 31.1936C1.84722 28.2244 0 24.1213 0 19.5904C0 15.0595 1.84706 10.9549 4.83284 7.9856C7.24396 5.58768 10.4007 3.92687 13.9251 3.37779L11.9842 1.59269L13.4651 0L13.4637 0.00265251ZM27.2383 18.7211H28.8413C28.6269 15.6674 27.2949 12.9216 25.2499 10.8863C23.2034 8.85104 20.441 7.52478 17.3689 7.31311V8.90432H15.629V7.31311C12.557 7.52478 9.79484 8.85104 7.74953 10.8848C5.70156 12.9201 4.36948 15.6658 4.15516 18.7196H5.7581V20.4485H4.15367C4.36502 23.5036 5.70007 26.2522 7.74805 28.2905C9.79453 30.3258 12.5569 31.652 15.6275 31.8637V30.2651H17.3674V31.8637C20.4379 31.652 23.2004 30.3258 25.2468 28.2905C27.2948 26.2537 28.6299 23.505 28.8412 20.4485H27.2368V18.7196L27.2383 18.7211Z" fill="white"/>
</svg>
