<svg width="28" height="28" viewBox="0 0 28 28" fill="none" xmlns="http://www.w3.org/2000/svg">
<path d="M14.1087 23.9382L12.3015 22.0486C11.5024 21.2129 11.2278 20.0111 11.5835 18.91C11.9418 17.8075 12.8717 16.9954 14.0107 16.7901L16.5817 16.3246L17.8201 14.0229C17.9522 13.7771 18.1157 13.5548 18.3014 13.3586C17.5716 12.9035 16.7975 12.5216 15.9893 12.2313C17.6371 10.989 18.7094 9.0208 18.7094 6.8028C18.7094 3.05222 15.6571 0 11.9066 0C8.15615 0 5.10389 3.05229 5.10389 6.8028C5.10389 9.02074 6.17492 10.9876 7.82268 12.23C3.92047 13.6371 0.890362 17.006 0.0534081 21.2507C-0.110059 22.0759 0.105718 22.9259 0.645804 23.5837C1.19766 24.2546 2.00846 24.6404 2.87418 24.6404H14.0147L14.1102 23.9394L14.1087 23.9382Z" fill="white"/>
<path d="M27.5934 19.5575C27.4744 19.1913 27.1645 18.9194 26.7852 18.8513L23.2214 18.2053L21.5057 15.0144C21.3226 14.6757 20.9695 14.4639 20.585 14.4639C20.2006 14.4639 19.8462 14.6757 19.6644 15.0144L17.9486 18.2053L14.3839 18.8513C14.0046 18.9193 13.6947 19.1913 13.5757 19.5575C13.4567 19.9237 13.5482 20.3265 13.815 20.6037L16.3193 23.2218L15.8329 26.8117C15.7806 27.1936 15.9427 27.5728 16.254 27.7991C16.4357 27.9311 16.6515 27.9991 16.8686 27.9991C17.0229 27.9991 17.1785 27.9651 17.3224 27.8958L20.5865 26.3239L23.8493 27.8958C24.1959 28.0632 24.6065 28.0266 24.919 27.7991C25.2303 27.5728 25.3924 27.1936 25.3401 26.8117L24.8537 23.2218L27.358 20.6037C27.6248 20.3252 27.7163 19.9237 27.5973 19.5575L27.5934 19.5575Z" fill="white"/>
</svg>
