<svg width="24" height="24" viewBox="0 0 24 24" fill="none" xmlns="http://www.w3.org/2000/svg">
<path d="M12.0039 3.00002C13.1861 2.99728 14.3572 3.22887 15.4492 3.68166C16.5414 4.13453 17.5328 4.80006 18.3662 5.6387C19.2041 6.47263 19.8683 7.46435 20.3203 8.55666C20.7723 9.64909 21.0037 10.8207 21 12.003C20.9981 16.9636 16.9606 21 12 21H11.9971C10.3818 20.9991 8.79746 20.5659 7.41603 19.7461L7.08692 19.5508L3.68067 20.4444L4.58985 17.124L4.37599 16.7842C3.47467 15.3501 2.99757 13.6899 3.00001 11.9961C3.00178 7.03574 7.03948 3.00002 12.0039 3.00002ZM8.86524 8.40041C8.71756 8.4005 8.47807 8.45413 8.2754 8.66897C8.07256 8.88404 7.50001 9.40375 7.50001 10.461C7.50002 11.5182 8.29373 12.5401 8.40431 12.6836C8.51667 12.83 9.93747 15.066 12.1865 15.9268C14.0565 16.6424 14.4377 16.5007 14.8438 16.4649C15.2499 16.4291 16.1545 15.9442 16.3389 15.4424C16.5231 14.9408 16.5231 14.5108 16.4678 14.4209C16.4123 14.3312 16.2643 14.2783 16.043 14.1709C15.8213 14.0634 14.7337 13.5437 14.5303 13.4717C14.3274 13.4 14.18 13.3642 14.0322 13.5791C13.8845 13.7941 13.4606 14.2772 13.3311 14.4209C13.2019 14.5642 13.0729 14.5828 12.8516 14.4756C12.63 14.3682 11.9163 14.1412 11.0703 13.4092C10.4123 12.8398 9.96838 12.1361 9.83888 11.9209C9.70955 11.706 9.82453 11.5895 9.93556 11.4824C10.0349 11.3861 10.1576 11.2319 10.2686 11.1065C10.3794 10.9811 10.4156 10.8912 10.4893 10.7481C10.563 10.6049 10.5261 10.4785 10.4707 10.3711C10.4145 10.2617 9.98469 9.20092 9.7881 8.77639C9.62212 8.41863 9.44771 8.41149 9.29005 8.4053L8.86524 8.40041Z" fill="#004857"/>
</svg>
